<svg width="101" height="101" viewBox="0 0 101 101" fill="none" xmlns="http://www.w3.org/2000/svg">
<g clip-path="url(#clip0_236_404)">
<path d="M101 50.5C101 63.9356 95.784 76.5807 86.3137 86.1064C76.8488 95.6245 64.2493 100.913 50.8313 100.998C50.7982 100.998 50.762 101 50.7289 100.998C50.6541 101 50.5771 101 50.5 101C37.0127 101 24.3307 95.7486 14.7926 86.2089C5.25297 76.6716 0 63.9888 0 50.5C0 37.0112 5.25297 24.3307 14.7926 14.7911C24.3307 5.25297 37.0127 0 50.5 0C50.5771 0 50.6518 0 50.7289 0.00231172C50.7643 0.00231172 50.7998 0.00231172 50.8352 0.00385283C64.2516 0.0909272 76.8504 5.3778 86.3137 14.8959C95.784 24.4216 101 37.0659 101 50.5Z" fill="#FF771A"/>
<path d="M101.002 50.5001C101.002 63.9358 95.7856 76.5808 86.3153 86.1066C76.8504 95.6246 64.2509 100.913 50.833 100.998C50.7998 100.998 50.7636 101 50.7305 100.998V0.00244141C50.7659 0.00244141 50.8014 0.00244141 50.8368 0.00398252C64.2532 0.0910569 76.852 5.37793 86.3153 14.896C95.7856 24.4218 101.002 37.066 101.002 50.5001Z" fill="#FF4A05"/>
<path d="M50.7502 21.2663C50.8331 21.2648 50.6781 21.2663 50.7502 21.2663V21.2663Z" fill="black"/>
<path d="M59.1652 29.681V52.2556C59.1652 56.896 55.3909 60.671 50.7513 60.671H50.7297C48.5621 60.6078 46.3244 59.7324 44.8002 58.2075C43.2121 56.6178 42.3359 54.5049 42.3359 52.2556V29.681C42.3359 25.0923 46.1456 21.3974 50.7297 21.2656H50.7513C55.3909 21.2656 59.1652 25.0414 59.1652 29.681Z" fill="white"/>
<path d="M50.7513 60.6714C50.6792 60.6714 50.8233 60.6729 50.7513 60.6714V60.6714Z" fill="black"/>
<path d="M58.7144 71.3393C58.7144 75.7323 55.142 79.3047 50.749 79.3047H50.729C46.3475 79.2947 42.7852 75.7262 42.7852 71.3393C42.7852 66.954 46.3475 63.3855 50.729 63.3755H50.749C55.142 63.3755 58.7144 66.9478 58.7144 71.3393Z" fill="white"/>
<path d="M58.7159 71.3393C58.7159 75.7323 55.1435 79.3047 50.7505 79.3047H50.7305V63.3755H50.7505C55.1435 63.3755 58.7159 66.9478 58.7159 71.3393Z" fill="#DDEBF0"/>
<path d="M59.1659 29.681V52.2556C59.1659 56.896 55.3916 60.671 50.752 60.671H50.7305V21.2656H50.752C55.3916 21.2656 59.1659 25.0414 59.1659 29.681Z" fill="#DDEBF0"/>
</g>
<defs>
<clipPath id="clip0_236_404">
<rect width="101" height="101" fill="white"/>
</clipPath>
</defs>
</svg>
