<svg width="104" height="104" viewBox="0 0 104 104" fill="none" xmlns="http://www.w3.org/2000/svg">
<path d="M55.3389 103.887L83.5431 92.7266C94.6674 83.6002 101.766 69.7465 101.766 54.2344C101.766 26.7498 79.4846 4.46875 52 4.46875C24.5154 4.46875 2.23438 26.7498 2.23438 54.2344C2.23438 81.7197 24.5154 104 52 104C53.1227 104 54.2352 103.96 55.3389 103.887Z" fill="#27A3FF"/>
<path d="M81.1965 64.7867C81.5932 59.9839 80.8616 55.1716 78.7352 50.8464C73.2421 39.6722 74.5021 38.8613 74.3315 27.7711C74.3315 25.505 72.4946 23.6689 70.2293 23.6689C67.9632 23.6689 66.1271 25.505 66.1271 27.7711C66.1271 29.2343 66.1271 69.1745 66.1271 69.0182C66.1271 69.6577 66.0589 70.2822 65.9327 70.8844V76.7893C65.9327 81.7651 61.8845 85.8141 56.9088 85.8141C53.604 85.8141 42.2076 85.8141 34.4531 85.8141C37.9023 90.6113 42.6218 94.3684 48.099 96.6432C48.1331 96.6567 48.1672 96.671 48.2014 96.6852C51.4966 98.0778 54.0126 100.703 55.3377 103.887C66.0089 103.18 75.7613 99.1116 83.5419 92.7275L80.4847 81.4961C80.0483 79.8909 79.8944 78.2223 80.0301 76.5648L81.1965 64.7867Z" fill="#F9CFA9"/>
<path d="M19.2159 23.8122L17.9662 22.6546C16.0405 20.8693 13.0039 20.9852 11.2194 22.9117C9.43494 24.8374 9.55078 27.8739 11.4765 29.6584L19.2159 36.8297V23.8122Z" fill="#F9CFA9"/>
<path d="M60.2519 0H25.1692C21.7653 0 18.9961 2.76996 18.9961 6.17389V80.1074C18.9961 83.5114 21.7653 86.2813 25.1692 86.2813H60.2519C63.6558 86.2813 66.4258 83.5114 66.4258 80.1074V6.17389C66.4258 2.76996 63.6558 0 60.2519 0V0Z" fill="#3D4EC6"/>
<path d="M30.8837 4.57825C30.5496 4.08154 30.3544 3.48407 30.3544 2.84058C30.3544 1.57739 31.1066 0.491943 32.1857 0H25.17C21.7605 0 18.9961 2.7644 18.9961 6.17389V80.1074C18.9961 83.5169 21.7605 86.2805 25.17 86.2805H32.6285V9.98883C32.6285 8.04724 31.9675 6.18976 30.8837 4.57825Z" fill="#2B3894"/>
<path d="M22.5703 38.9951V80.1073C22.5703 81.5434 23.7343 82.7075 25.1697 82.7075H60.2524C61.6878 82.7075 62.8518 81.5434 62.8518 80.1073C62.8518 78.6965 62.8518 58.1016 62.8518 38.9951H22.5703Z" fill="#E6F7FE"/>
<path d="M22.5703 38.9951V80.1073C22.5703 81.5434 23.7343 82.7075 25.1697 82.7075H31.319V38.9951H22.5703Z" fill="#D5F1FE"/>
<path d="M36.7003 51.3969C36.7003 53.6463 34.877 55.4697 32.6275 55.4697C30.3781 55.4697 28.5547 53.6463 28.5547 51.3969C28.5547 49.1474 30.3781 47.3232 32.6275 47.3232C34.877 47.3232 36.7003 49.1474 36.7003 51.3969Z" fill="#3D4EC6"/>
<path d="M36.7003 66.4996C36.7003 68.749 34.877 70.5732 32.6275 70.5732C30.3781 70.5732 28.5547 68.749 28.5547 66.4996C28.5547 64.2501 30.3781 62.4268 32.6275 62.4268C34.877 62.4268 36.7003 64.2501 36.7003 66.4996Z" fill="#3D4EC6"/>
<path d="M32.1673 47.3511C30.1345 47.5804 28.5547 49.303 28.5547 51.3969C28.5547 53.6464 30.3781 55.4697 32.6275 55.4697C34.0303 55.4697 35.2665 54.7604 35.9989 53.6813C32.4871 54.0772 30.2511 50.1734 32.1673 47.3511Z" fill="#2B3894"/>
<path d="M32.1673 62.4546C30.1345 62.6831 28.5547 64.4065 28.5547 66.4996C28.5547 68.7499 30.3781 70.5732 32.6275 70.5732C34.0303 70.5732 35.2665 69.8639 35.9989 68.7848C32.5085 69.1776 30.2384 65.2952 32.1673 62.4546Z" fill="#2B3894"/>
<path d="M49.271 49.7036H43.4883C42.6472 49.7036 41.9648 49.0212 41.9648 48.1802C41.9648 47.3383 42.6472 46.6567 43.4883 46.6567H49.271C50.1121 46.6567 50.7944 47.3383 50.7944 48.1802C50.7944 49.0212 50.1121 49.7036 49.271 49.7036Z" fill="#11DFEF"/>
<path d="M55.0537 56.1367H43.4883C42.6464 56.1367 41.9648 55.4543 41.9648 54.6133C41.9648 53.7714 42.6464 53.0898 43.4883 53.0898H55.0537C55.8948 53.0898 56.5771 53.7714 56.5771 54.6133C56.5771 55.4543 55.8948 56.1367 55.0537 56.1367Z" fill="#11DFEF"/>
<path d="M49.271 64.8062H43.4883C42.6472 64.8062 41.9648 64.1246 41.9648 63.2827C41.9648 62.4409 42.6472 61.7593 43.4883 61.7593H49.271C50.1121 61.7593 50.7944 62.4409 50.7944 63.2827C50.7944 64.1246 50.1121 64.8062 49.271 64.8062Z" fill="#11DFEF"/>
<path d="M55.0537 71.2397H43.4883C42.6464 71.2397 41.9648 70.5582 41.9648 69.7163C41.9648 68.8752 42.6464 68.1929 43.4883 68.1929H55.0537C55.8948 68.1929 56.5771 68.8752 56.5771 69.7163C56.5771 70.5582 55.8948 71.2397 55.0537 71.2397Z" fill="#11DFEF"/>
<path d="M60.229 3.57471H55.0151C54.5232 3.57471 54.1249 3.97302 54.1249 4.46417C54.1249 5.64404 53.16 6.60889 51.981 6.60889H33.3958C32.2159 6.60889 31.2511 5.64404 31.2511 4.46417C31.2511 3.97302 30.8528 3.57471 30.3608 3.57471H25.147C23.7109 3.57471 22.5469 4.73871 22.5469 6.17407V39.4017H62.8291V6.17407C62.8291 4.73871 61.6651 3.57471 60.229 3.57471Z" fill="#F948B4"/>
<path d="M31.3162 4.97833C31.2749 4.81329 31.2511 4.64191 31.2511 4.46497C31.2511 3.97302 30.8528 3.57471 30.3608 3.57471H25.147C23.7109 3.57471 22.5469 4.73871 22.5469 6.17407V39.4017H31.3162V4.97833Z" fill="#E00E8B"/>
<path d="M60.2291 3.57471H55.0153C54.5234 3.57471 54.1251 3.97302 54.1251 4.46417C54.1251 5.64404 53.1602 6.60889 51.9811 6.60889H41.7305L62.8293 33.0564V6.17407C62.8293 4.73871 61.6653 3.57471 60.2291 3.57471Z" fill="#FC7ACD"/>
<path d="M36.1385 15.6826H29.1133C28.2722 15.6826 27.5898 15.001 27.5898 14.1592C27.5898 13.3173 28.2722 12.6357 29.1133 12.6357H36.1385C36.9796 12.6357 37.662 13.3173 37.662 14.1592C37.662 15.0002 36.9796 15.6826 36.1385 15.6826Z" fill="#FC7ACD"/>
<path d="M26.1654 48.9919C24.5952 50.6859 21.9482 50.7874 20.2534 49.2172L13.2464 42.7243C11.5516 41.1541 11.4508 38.5071 13.021 36.8123C14.5913 35.1175 17.2383 35.0167 18.9331 36.587L25.9401 43.0798C27.6341 44.6501 27.7357 47.297 26.1654 48.9919Z" fill="#F9CFA9"/>
<path d="M25.9411 43.0798L22.6078 39.9917C23.0466 41.581 22.6824 43.352 21.4803 44.6493C20.2774 45.9474 18.5389 46.4449 16.9219 46.1291L20.2544 49.2172C21.9492 50.7875 24.5954 50.6859 26.1664 48.9919C27.7367 47.2971 27.6351 44.6501 25.9411 43.0798Z" fill="#FBBC8D"/>
<path d="M26.1654 60.4017C24.5952 62.0965 21.9482 62.1973 20.2534 60.6271L13.2464 54.1342C11.5516 52.5639 11.4508 49.917 13.021 48.2229C14.5913 46.5281 17.2383 46.4273 18.9331 47.9976L25.9401 54.4905C27.6341 56.0607 27.7357 58.7069 26.1654 60.4017Z" fill="#F9CFA9"/>
<path d="M26.1654 71.8127C24.5952 73.5075 21.9482 73.6082 20.2534 72.038L13.2464 65.5451C11.5516 63.9749 11.4508 61.3279 13.021 59.6331C14.5913 57.9383 17.2383 57.8375 18.9331 59.4078L25.9401 65.9006C27.6341 67.4709 27.7357 70.1178 26.1654 71.8127Z" fill="#F9CFA9"/>
<path d="M80.4852 81.4949C80.2686 80.6967 80.1218 79.8834 80.0449 79.063C72.2928 91.79 57.2425 97.7005 43.1055 94.0252C44.6821 95.0385 46.3523 95.916 48.0995 96.642C48.1336 96.6563 48.1677 96.6706 48.2018 96.6849C51.4971 98.0766 54.0131 100.702 55.3382 103.886C66.0094 103.179 75.7618 99.1105 83.5424 92.7263L80.4852 81.4949Z" fill="#FBBC8D"/>
<path d="M25.9411 54.4905L22.6078 51.4023C23.0466 52.9908 22.6824 54.7618 21.4803 56.0599C20.2774 57.358 18.5389 57.8555 16.9219 57.5397L20.2544 60.6271C21.9492 62.1973 24.5962 62.0966 26.1664 60.4017C27.7367 58.7069 27.6351 56.0607 25.9411 54.4905Z" fill="#FBBC8D"/>
<path d="M25.9411 65.9006L22.6078 62.8125C23.0466 64.4018 22.6824 66.1728 21.4803 67.4701C20.2774 68.7682 18.5389 69.2665 16.9219 68.9499L20.2544 72.038C21.9492 73.6083 24.5962 73.5075 26.1664 71.8127C27.7367 70.1179 27.6351 67.4709 25.9411 65.9006Z" fill="#FBBC8D"/>
</svg>
