<svg width="84" height="84" viewBox="0 0 84 84" fill="none" xmlns="http://www.w3.org/2000/svg">
<g clip-path="url(#clip0_236_154)">
<path d="M82.25 69.8288H56.3948C55.9007 69.8288 55.5 69.4283 55.5 68.934V64.7943C55.5 64.3 55.9006 63.8994 56.3948 63.8994H82.25C82.7442 63.8994 83.1449 64.3 83.1449 64.7943V68.934C83.1449 69.4281 82.7443 69.8288 82.25 69.8288Z" fill="url(#paint0_linear_236_154)"/>
<path d="M78.9665 69.8288H59.6755C59.2465 69.8288 58.8984 69.481 58.8984 69.0517V64.6765C58.8984 64.2473 59.2463 63.8994 59.6755 63.8994H78.9665C79.3956 63.8994 79.7436 64.2473 79.7436 64.6765V69.0517C79.7436 69.4808 79.3958 69.8288 78.9665 69.8288Z" fill="url(#paint1_linear_236_154)"/>
<path d="M72.6428 69.8288H65.9998C65.7411 69.8288 65.5312 69.619 65.5312 69.3602V64.368C65.5312 64.1092 65.7411 63.8994 65.9998 63.8994H72.6428C72.9015 63.8994 73.1114 64.1092 73.1114 64.368V69.3602C73.1114 69.619 72.9015 69.8288 72.6428 69.8288Z" fill="url(#paint2_linear_236_154)"/>
<path d="M57.1761 64.6211C56.682 64.6211 56.2812 65.0217 56.2812 65.5159V69.6557C56.2812 69.7131 56.2872 69.7691 56.2976 69.8235C56.3298 69.827 56.3626 69.8291 56.3959 69.8291H82.2509C82.745 69.8291 83.1458 69.4285 83.1458 68.9342V64.7945C83.1458 64.737 83.1398 64.681 83.1295 64.6267C83.0972 64.6232 83.0644 64.6211 83.0311 64.6211H57.1761Z" fill="url(#paint3_linear_236_154)"/>
<path d="M82.25 63.8996H56.3948C55.9007 63.8996 55.5 63.4991 55.5 63.0048V58.8651C55.5 58.3708 55.9006 57.9702 56.3948 57.9702H82.25C82.7442 57.9702 83.1449 58.3708 83.1449 58.8651V63.0048C83.1449 63.4989 82.7443 63.8996 82.25 63.8996Z" fill="url(#paint4_linear_236_154)"/>
<path d="M78.9665 63.8996H59.6755C59.2465 63.8996 58.8984 63.5518 58.8984 63.1225V58.7473C58.8984 58.3182 59.2463 57.9702 59.6755 57.9702H78.9665C79.3956 57.9702 79.7436 58.3181 79.7436 58.7473V63.1227C79.7436 63.5518 79.3958 63.8996 78.9665 63.8996Z" fill="url(#paint5_linear_236_154)"/>
<path d="M72.6428 63.8996H65.9998C65.7411 63.8996 65.5312 63.6898 65.5312 63.431V58.4388C65.5312 58.1801 65.7411 57.9702 65.9998 57.9702H72.6428C72.9015 57.9702 73.1114 58.1801 73.1114 58.4388V63.431C73.1114 63.6898 72.9015 63.8996 72.6428 63.8996Z" fill="url(#paint6_linear_236_154)"/>
<path d="M57.1761 58.6914C56.682 58.6914 56.2812 59.092 56.2812 59.5863V63.726C56.2812 63.7835 56.2872 63.8393 56.2976 63.8938C56.3298 63.8974 56.3626 63.8994 56.3959 63.8994H82.2509C82.745 63.8994 83.1458 63.4988 83.1458 63.0046V58.8648C83.1458 58.8074 83.1398 58.7515 83.1295 58.697C83.0972 58.6934 83.0644 58.6914 83.0311 58.6914H57.1761Z" fill="url(#paint7_linear_236_154)"/>
<path d="M82.25 57.9704H56.3948C55.9007 57.9704 55.5 57.5699 55.5 57.0756V52.9359C55.5 52.4416 55.9006 52.041 56.3948 52.041H82.25C82.7442 52.041 83.1449 52.4416 83.1449 52.9359V57.0756C83.1449 57.5699 82.7443 57.9704 82.25 57.9704Z" fill="url(#paint8_linear_236_154)"/>
<path d="M78.9665 57.9704H59.6755C59.2465 57.9704 58.8984 57.6226 58.8984 57.1933V52.8181C58.8984 52.389 59.2463 52.041 59.6755 52.041H78.9665C79.3956 52.041 79.7436 52.3889 79.7436 52.8181V57.1933C79.7436 57.6226 79.3958 57.9704 78.9665 57.9704Z" fill="url(#paint9_linear_236_154)"/>
<path d="M72.6428 57.9704H65.9998C65.7411 57.9704 65.5312 57.7606 65.5312 57.5018V52.5096C65.5312 52.2509 65.7411 52.041 65.9998 52.041H72.6428C72.9015 52.041 73.1114 52.2509 73.1114 52.5096V57.5018C73.1114 57.7606 72.9015 57.9704 72.6428 57.9704Z" fill="url(#paint10_linear_236_154)"/>
<path d="M57.1761 52.7622C56.682 52.7622 56.2812 53.1628 56.2812 53.6571V57.7968C56.2812 57.8543 56.2872 57.9103 56.2976 57.9646C56.3298 57.9681 56.3626 57.9702 56.3959 57.9702H82.2509C82.745 57.9702 83.1458 57.5696 83.1458 57.0754V52.9356C83.1458 52.8782 83.1398 52.8222 83.1295 52.7678C83.0972 52.7643 83.0644 52.7622 83.0311 52.7622H57.1761Z" fill="url(#paint11_linear_236_154)"/>
<path d="M82.25 52.0407H56.3948C55.9007 52.0407 55.5 51.6402 55.5 51.1459V47.0062C55.5 46.5119 55.9006 46.1113 56.3948 46.1113H82.25C82.7442 46.1113 83.1449 46.5119 83.1449 47.0062V51.1459C83.1449 51.6402 82.7443 52.0407 82.25 52.0407Z" fill="url(#paint12_linear_236_154)"/>
<path d="M78.9665 52.0407H59.6755C59.2465 52.0407 58.8984 51.6929 58.8984 51.2637V46.8884C58.8984 46.4593 59.2463 46.1113 59.6755 46.1113H78.9665C79.3956 46.1113 79.7436 46.4592 79.7436 46.8884V51.2638C79.7436 51.6929 79.3958 52.0407 78.9665 52.0407Z" fill="url(#paint13_linear_236_154)"/>
<path d="M72.6428 52.0407H65.9998C65.7411 52.0407 65.5312 51.8309 65.5312 51.5722V46.5799C65.5312 46.3212 65.7411 46.1113 65.9998 46.1113H72.6428C72.9015 46.1113 73.1114 46.3212 73.1114 46.5799V51.5722C73.1114 51.8309 72.9015 52.0407 72.6428 52.0407Z" fill="url(#paint14_linear_236_154)"/>
<path d="M57.1761 46.833C56.682 46.833 56.2812 47.2336 56.2812 47.7279V51.8676C56.2812 51.9251 56.2872 51.9811 56.2976 52.0354C56.3298 52.039 56.3626 52.041 56.3959 52.041H82.2509C82.745 52.041 83.1458 51.6404 83.1458 51.1462V47.0064C83.1458 46.949 83.1398 46.8931 83.1295 46.8386C83.0972 46.835 83.0644 46.833 83.0311 46.833H57.1761Z" fill="url(#paint15_linear_236_154)"/>
<path d="M82.25 46.1115H56.3948C55.9007 46.1115 55.5 45.711 55.5 45.2167V41.077C55.5 40.5827 55.9006 40.1821 56.3948 40.1821H82.25C82.7442 40.1821 83.1449 40.5827 83.1449 41.077V45.2167C83.1449 45.711 82.7443 46.1115 82.25 46.1115Z" fill="url(#paint16_linear_236_154)"/>
<path d="M78.9665 46.1115H59.6755C59.2465 46.1115 58.8984 45.7637 58.8984 45.3344V40.9592C58.8984 40.53 59.2463 40.1821 59.6755 40.1821H78.9665C79.3956 40.1821 79.7436 40.53 79.7436 40.9592V45.3344C79.7436 45.7637 79.3958 46.1115 78.9665 46.1115Z" fill="url(#paint17_linear_236_154)"/>
<path d="M72.6428 46.1115H65.9998C65.7411 46.1115 65.5312 45.9017 65.5312 45.6429V40.6507C65.5312 40.392 65.7411 40.1821 65.9998 40.1821H72.6428C72.9015 40.1821 73.1114 40.392 73.1114 40.6507V45.6429C73.1114 45.9019 72.9015 46.1115 72.6428 46.1115Z" fill="url(#paint18_linear_236_154)"/>
<path d="M57.1761 40.9033C56.682 40.9033 56.2812 41.3039 56.2812 41.7982V45.9379C56.2812 45.9954 56.2872 46.0514 56.2976 46.1057C56.3298 46.1092 56.3626 46.1113 56.3959 46.1113H82.2509C82.745 46.1113 83.1458 45.7108 83.1458 45.2165V41.0768C83.1458 41.0193 83.1398 40.9633 83.1295 40.9089C83.0972 40.9055 83.0644 40.9033 83.0311 40.9033H57.1761Z" fill="url(#paint19_linear_236_154)"/>
<path d="M82.25 40.1819H56.3948C55.9007 40.1819 55.5 39.7813 55.5 39.287V35.1473C55.5 34.653 55.9006 34.2524 56.3948 34.2524H82.25C82.7442 34.2524 83.1449 34.653 83.1449 35.1473V39.287C83.1449 39.7813 82.7443 40.1819 82.25 40.1819Z" fill="url(#paint20_linear_236_154)"/>
<path d="M78.9665 40.1819H59.6755C59.2465 40.1819 58.8984 39.834 58.8984 39.4048V35.0295C58.8984 34.6005 59.2463 34.2524 59.6755 34.2524H78.9665C79.3956 34.2524 79.7436 34.6003 79.7436 35.0295V39.4048C79.7436 39.834 79.3958 40.1819 78.9665 40.1819Z" fill="url(#paint21_linear_236_154)"/>
<path d="M72.6428 40.1819H65.9998C65.7411 40.1819 65.5312 39.972 65.5312 39.7133V34.721C65.5312 34.4623 65.7411 34.2524 65.9998 34.2524H72.6428C72.9015 34.2524 73.1114 34.4623 73.1114 34.721V39.7133C73.1114 39.9722 72.9015 40.1819 72.6428 40.1819Z" fill="url(#paint22_linear_236_154)"/>
<path d="M57.1761 34.9741C56.682 34.9741 56.2812 35.3747 56.2812 35.869V40.0087C56.2812 40.0662 56.2872 40.122 56.2976 40.1765C56.3298 40.18 56.3626 40.1821 56.3959 40.1821H82.2509C82.745 40.1821 83.1458 39.7816 83.1458 39.2873V35.1476C83.1458 35.0901 83.1398 35.0342 83.1295 34.9797C83.0972 34.9763 83.0644 34.9741 83.0311 34.9741H57.1761Z" fill="url(#paint23_linear_236_154)"/>
<path d="M82.25 34.2527H56.3948C55.9007 34.2527 55.5 33.8521 55.5 33.3578V29.2181C55.5 28.7238 55.9006 28.3232 56.3948 28.3232H82.25C82.7442 28.3232 83.1449 28.7238 83.1449 29.2181V33.3578C83.1449 33.8519 82.7443 34.2527 82.25 34.2527Z" fill="url(#paint24_linear_236_154)"/>
<path d="M78.9665 34.2528H59.6755C59.2465 34.2528 58.8984 33.905 58.8984 33.4757V29.1003C58.8984 28.6713 59.2463 28.3232 59.6755 28.3232H78.9665C79.3956 28.3232 79.7436 28.6711 79.7436 29.1003V33.4756C79.7436 33.9048 79.3958 34.2528 78.9665 34.2528Z" fill="url(#paint25_linear_236_154)"/>
<path d="M72.6428 34.2527H65.9998C65.7411 34.2527 65.5312 34.0428 65.5312 33.7841V28.7918C65.5312 28.5331 65.7411 28.3232 65.9998 28.3232H72.6428C72.9015 28.3232 73.1114 28.5331 73.1114 28.7918V33.7841C73.1114 34.0428 72.9015 34.2527 72.6428 34.2527Z" fill="url(#paint26_linear_236_154)"/>
<path d="M57.1761 29.0444C56.682 29.0444 56.2812 29.445 56.2812 29.9393V34.079C56.2812 34.1365 56.2872 34.1925 56.2976 34.2468C56.3298 34.2503 56.3626 34.2524 56.3959 34.2524H82.2509C82.745 34.2524 83.1458 33.8519 83.1458 33.3576V29.2179C83.1458 29.1604 83.1398 29.1044 83.1295 29.05C83.0972 29.0466 83.0644 29.0444 83.0311 29.0444H57.1761Z" fill="url(#paint27_linear_236_154)"/>
<path d="M82.25 28.3235H56.3948C55.9007 28.3235 55.5 27.9229 55.5 27.4286V23.2889C55.5 22.7946 55.9006 22.394 56.3948 22.394H82.25C82.7442 22.394 83.1449 22.7946 83.1449 23.2889V27.4286C83.1449 27.9227 82.7443 28.3235 82.25 28.3235Z" fill="url(#paint28_linear_236_154)"/>
<path d="M78.9665 28.3235H59.6755C59.2465 28.3235 58.8984 27.9756 58.8984 27.5464V23.1711C58.8984 22.7421 59.2463 22.394 59.6755 22.394H78.9665C79.3956 22.394 79.7436 22.7419 79.7436 23.1711V27.5464C79.7436 27.9756 79.3958 28.3235 78.9665 28.3235Z" fill="url(#paint29_linear_236_154)"/>
<path d="M72.6428 28.3235H65.9998C65.7411 28.3235 65.5312 28.1136 65.5312 27.8549V22.8626C65.5312 22.6039 65.7411 22.394 65.9998 22.394H72.6428C72.9015 22.394 73.1114 22.6039 73.1114 22.8626V27.8549C73.1114 28.1136 72.9015 28.3235 72.6428 28.3235Z" fill="url(#paint30_linear_236_154)"/>
<path d="M57.1761 23.1152C56.682 23.1152 56.2812 23.5158 56.2812 24.0101V28.1498C56.2812 28.2073 56.2872 28.2631 56.2976 28.3176C56.3298 28.3211 56.3626 28.3232 56.3959 28.3232H82.2509C82.745 28.3232 83.1458 27.9227 83.1458 27.4284V23.2887C83.1458 23.2312 83.1398 23.1752 83.1295 23.1208C83.0972 23.1174 83.0644 23.1152 83.0311 23.1152H57.1761Z" fill="url(#paint31_linear_236_154)"/>
<path d="M68.7955 44.0875L66.4195 31.6269C64.6473 22.3325 56.5205 15.6089 47.0587 15.6089H38.1441C28.6823 15.6089 20.5555 22.3325 18.7833 31.6269L17.4361 38.6916C16.1416 45.4808 14.0722 52.1227 10.9774 58.3026C10.0725 60.1095 9.5973 62.1686 9.6864 64.347C9.94384 70.6495 15.4906 76.0726 21.7972 76.196C21.8435 76.1968 21.8896 76.1974 21.9357 76.1979C24.797 76.2226 27.5519 77.3377 29.5585 79.3776C31.8011 81.6574 34.9207 83.0714 38.3717 83.0714C42.56 83.0714 46.261 80.9892 48.4983 77.804C49.2186 76.7785 50.3999 76.1958 51.6531 76.1983H51.6749C52.2133 76.1983 52.7423 76.1584 53.2593 76.0816C54.2344 75.9372 55.2208 76.1861 56.0257 76.7553C58.2027 78.2951 60.8982 79.15 63.8 79.003C70.0101 78.6888 75.0758 73.7176 75.4978 67.514C75.6496 65.2819 75.208 63.1662 74.3157 61.308C71.6965 55.854 69.9287 50.0306 68.7955 44.0875Z" fill="url(#paint32_radial_236_154)"/>
<path d="M22.045 76.198C28.8764 76.198 34.4143 70.6601 34.4143 63.8287C34.4143 56.9974 28.8764 51.4595 22.045 51.4595C15.2137 51.4595 9.67578 56.9974 9.67578 63.8287C9.67578 70.6601 15.2137 76.198 22.045 76.198Z" fill="url(#paint33_linear_236_154)"/>
<path d="M38.3732 83.071C45.2045 83.071 50.7424 77.5331 50.7424 70.7018C50.7424 63.8704 45.2045 58.3325 38.3732 58.3325C31.5418 58.3325 26.0039 63.8704 26.0039 70.7018C26.0039 77.5331 31.5418 83.071 38.3732 83.071Z" fill="url(#paint34_linear_236_154)"/>
<path d="M63.1583 79.0193C69.9897 79.0193 75.5276 73.4814 75.5276 66.65C75.5276 59.8187 69.9897 54.2808 63.1583 54.2808C56.327 54.2808 50.7891 59.8187 50.7891 66.65C50.7891 73.4814 56.327 79.0193 63.1583 79.0193Z" fill="url(#paint35_linear_236_154)"/>
<path d="M75.4991 67.5138C75.6509 65.2817 75.2093 63.1661 74.317 61.3079C71.6978 55.8538 69.9302 50.0305 68.797 44.0872L66.421 31.6266C65.778 28.254 64.2949 25.223 62.2185 22.7257C58.7817 19.8801 54.3824 18.1973 49.6488 18.1973H40.7341C31.2724 18.1973 23.1455 24.9209 21.3732 34.2152L20.0261 41.28C18.7315 48.0692 16.6622 54.7111 13.5673 60.8908C12.6624 62.6977 12.1873 64.7568 12.2762 66.9352C12.3775 69.4149 13.3 71.7565 14.7629 73.6946C16.7761 75.2109 19.2237 76.1451 21.7985 76.1955C21.8448 76.1963 21.8909 76.197 21.937 76.1975C24.7983 76.2222 27.5533 77.3372 29.56 79.3771C31.8026 81.657 34.9221 83.071 38.3732 83.071C42.5615 83.071 46.2624 80.9888 48.4998 77.8035C49.2201 76.778 50.4013 76.1953 51.6546 76.1978H51.6763C52.2148 76.1978 52.7438 76.1579 53.2608 76.0812C54.2359 75.9367 55.2223 76.1856 56.0272 76.7548C58.2041 78.2947 60.8997 79.1495 63.8015 79.0026C70.0114 78.6886 75.0772 73.7175 75.4991 67.5138Z" fill="url(#paint36_linear_236_154)"/>
<path d="M49.7878 30.1691C48.8923 29.8921 48.0414 29.6927 47.2355 29.5696C46.8468 29.5102 46.4542 29.4621 46.0584 29.4242C46.0551 29.4224 46.0519 29.4206 46.0488 29.4187L44.2356 27.5408C43.8775 27.3071 43.4891 27.1895 43.0714 27.1895C42.5934 27.1895 42.1906 27.3008 41.8625 27.5218C41.5337 27.7435 41.37 28.0067 41.37 28.3103V29.4729C38.7731 29.8381 36.6311 30.7973 34.945 32.3497C33.2581 33.902 32.4153 36.0323 32.4153 38.7413C32.4153 39.8459 32.6091 40.8534 32.9972 41.7636C33.3849 42.6744 33.8327 43.4202 34.3407 44.0023L41.3702 51.0382V55.2183C40.206 55.0098 38.937 54.4199 37.5645 53.4497C36.191 52.48 35.2207 51.9945 34.654 51.9945C33.8481 51.9945 33.1388 52.4128 32.5271 53.2482C31.9151 54.0843 31.6094 54.9203 31.6094 55.7557C31.6094 56.8444 32.1435 57.8501 33.21 58.7733L50.739 76.3023C51.0354 76.2329 51.3421 76.1972 51.6534 76.1978H51.6752C52.2136 76.1978 52.7426 76.158 53.2596 76.0812C54.2347 75.9368 55.2211 76.1857 56.026 76.7549C58.203 78.2947 60.8985 79.1495 63.8003 79.0026C70.0104 78.6884 75.0761 73.7172 75.4981 67.5136C75.6499 65.2815 75.2083 63.1658 74.316 61.3076C72.4932 57.5118 71.0838 53.5368 70.0125 49.4672L51.9593 31.4145C51.4065 30.8611 50.6833 30.4462 49.7878 30.1691Z" fill="url(#paint37_linear_236_154)"/>
<path d="M53.034 48.4576C52.6601 47.5026 52.2126 46.7112 51.6906 46.0845C51.1679 45.4576 50.474 44.8609 49.6084 44.2935C48.7424 43.7267 47.9666 43.2939 47.2802 42.9951C46.5933 42.697 45.7579 42.3536 44.773 41.9652V35.428C45.8474 35.5176 46.8844 35.8163 47.8848 36.3235C48.8846 36.8315 49.5933 37.0848 50.0116 37.0848C50.877 37.0848 51.5564 36.66 52.0489 35.8108C52.5414 34.9614 52.7876 34.1415 52.7876 33.3524C52.7876 32.6144 52.5114 31.9687 51.9593 31.4145C51.4065 30.8611 50.6833 30.4463 49.7878 30.1691C48.8923 29.8921 48.0414 29.6927 47.2355 29.5696C46.4296 29.4464 45.6082 29.3695 44.773 29.3387V28.3053C44.773 28.0296 44.5938 27.775 44.2356 27.5406C43.8775 27.3069 43.4891 27.1895 43.0714 27.1895C42.5934 27.1895 42.1906 27.3008 41.8625 27.5218C41.5337 27.7435 41.37 28.0067 41.37 28.3103V29.4729C38.7731 29.8381 36.6311 30.7973 34.945 32.3497C33.2581 33.902 32.4153 36.0323 32.4153 38.7413C32.4153 39.8459 32.609 40.8535 32.9972 41.7636C33.3849 42.6744 33.8327 43.4202 34.3407 44.0023C34.8478 44.5844 35.5643 45.1518 36.4898 45.7037C37.4146 46.2565 38.1914 46.6664 38.8181 46.9349C39.4449 47.2035 40.2956 47.5471 41.3702 47.9648V55.2183C40.206 55.0098 38.937 54.4199 37.5645 53.4497C36.191 52.48 35.2207 51.9945 34.654 51.9945C33.8481 51.9945 33.1388 52.4128 32.5271 53.2482C31.9151 54.0843 31.6094 54.9203 31.6094 55.7557C31.6094 57.2186 32.5721 58.5317 34.4973 59.696C36.4227 60.8601 38.7131 61.487 41.3702 61.5764V62.6958C41.3702 63.0239 41.5341 63.3071 41.8626 63.5465C42.1907 63.785 42.5936 63.9047 43.0716 63.9047C43.4891 63.9047 43.8777 63.7774 44.2357 63.5241C44.5941 63.2701 44.7732 62.9937 44.7732 62.6958V61.3972C47.4597 60.9495 49.601 59.8903 51.1982 58.2182C52.7948 56.5468 53.5937 54.3529 53.5937 51.6363C53.5935 50.4723 53.4069 49.4131 53.034 48.4576ZM41.8178 40.8905C39.9073 40.0846 38.9521 39.1443 38.9521 38.0698C38.9521 36.7867 39.9071 35.9507 41.8178 35.5623V40.8905ZM44.3252 55.1736V49.1739C46.1455 50.0399 47.0565 51.0991 47.0565 52.3529C47.0565 53.8156 46.1455 54.7559 44.3252 55.1736Z" fill="url(#paint38_linear_236_154)"/>
<path d="M48.6767 15.6086H36.5262L30.9983 5.01147C30.1822 3.44709 31.114 1.53946 32.8495 1.22125L36.4695 0.557488C40.5238 -0.185829 44.6793 -0.185829 48.7334 0.557488L52.3534 1.22125C54.0889 1.53946 55.0207 3.44692 54.2046 5.01147L48.6767 15.6086Z" fill="url(#paint39_linear_236_154)"/>
<path d="M44.6235 15.6086H40.5824L38.744 5.01147C38.4726 3.44709 38.7825 1.53946 39.3597 1.22125L40.5637 0.557488C41.912 -0.185829 43.294 -0.185829 44.6424 0.557488L45.8464 1.22125C46.4237 1.53946 46.7336 3.44692 46.4621 5.01147L44.6235 15.6086Z" fill="url(#paint40_linear_236_154)"/>
<path d="M54.0232 2.28768C54.2601 2.62466 54.1408 3.09424 53.7734 3.28052C52.0494 4.15725 50.0108 4.15725 48.287 3.28052L46.763 2.50674C45.0392 1.63001 43.0004 1.63001 41.2766 2.50674L39.7546 3.28052C38.0306 4.15725 35.992 4.15725 34.2681 3.28052L32.6739 2.46968C32.1154 2.18556 32.2194 1.34078 32.8353 1.22516C32.8406 1.22417 32.8457 1.22318 32.8509 1.22219L36.471 0.557112C40.5244 -0.185053 44.6808 -0.185053 48.7344 0.557112L52.3544 1.22219C53.0692 1.35248 53.6469 1.75238 54.0232 2.28768Z" fill="url(#paint41_linear_236_154)"/>
<path d="M54.2415 3.77304C54.3228 3.57556 54.3818 3.37297 54.4251 3.16874C54.1871 2.21772 53.4247 1.41742 52.3553 1.22125L48.7352 0.557488C44.681 -0.185829 40.5254 -0.185829 36.4714 0.557488L33.7713 1.05259C33.433 1.86311 33.3899 2.86848 33.7628 3.77304L38.6409 15.6086H48.6785L51.9417 9.35295L54.2415 3.77304Z" fill="url(#paint42_linear_236_154)"/>
<path d="M42.6042 16.7965C39.9704 16.7965 37.4774 16.6263 35.4344 16.3119C34.7616 16.2083 34.3103 15.5669 34.446 14.8999C34.5722 14.2796 35.1615 13.8667 35.7872 13.9625C37.706 14.2567 40.1198 14.4214 42.6042 14.4214C45.0885 14.4214 47.5022 14.2567 49.4212 13.9625C50.0469 13.8667 50.6363 14.2794 50.7624 14.8999C50.8981 15.5669 50.4468 16.2085 49.774 16.3119C47.731 16.6263 45.238 16.7965 42.6042 16.7965Z" fill="url(#paint43_linear_236_154)"/>
<path d="M28.4719 49.1103C28.3775 48.7172 28.0274 48.4238 27.6054 48.4238H24.3233H17.9992H14.9772C13.8928 51.8105 12.5722 55.1181 10.9775 58.3024C10.0726 60.1092 9.59742 62.1684 9.68637 64.3468C9.9438 70.6492 15.4908 76.0723 21.7974 76.1957C21.8436 76.1965 21.8898 76.1972 21.9359 76.1977C24.7971 76.2224 27.5522 77.3375 29.5588 79.3773C31.8014 81.6572 34.921 83.0712 38.372 83.0712C42.5603 83.0712 46.2613 80.989 48.4986 77.8037C49.2189 76.7783 50.4002 76.1956 51.6534 76.198H51.6752C52.2136 76.198 52.7426 76.1582 53.2596 76.0814C54.2347 75.937 55.2211 76.1858 56.026 76.7551C56.1184 76.8204 56.213 76.8829 56.3074 76.9456L28.4719 49.1103Z" fill="url(#paint44_linear_236_154)"/>
<path d="M27.6055 84.0002H1.75032C1.2562 84.0002 0.855469 83.5996 0.855469 83.1054V78.9657C0.855469 78.4714 1.25603 78.0708 1.75032 78.0708H27.6055C28.0996 78.0708 28.5004 78.4714 28.5004 78.9657V83.1054C28.5004 83.5996 28.0996 84.0002 27.6055 84.0002Z" fill="url(#paint45_linear_236_154)"/>
<path d="M24.322 84.0002H5.03099C4.60176 84.0002 4.25391 83.6524 4.25391 83.2231V78.8479C4.25391 78.4188 4.60176 78.0708 5.03099 78.0708H24.322C24.7511 78.0708 25.0991 78.4187 25.0991 78.8479V83.2231C25.0991 83.6524 24.7512 84.0002 24.322 84.0002Z" fill="url(#paint46_linear_236_154)"/>
<path d="M17.9982 84.0002H11.3553C11.0966 84.0002 10.8867 83.7904 10.8867 83.5316V78.5394C10.8867 78.2806 11.0966 78.0708 11.3553 78.0708H17.9982C18.257 78.0708 18.4668 78.2806 18.4668 78.5394V83.5316C18.4668 83.7904 18.257 84.0002 17.9982 84.0002Z" fill="url(#paint47_linear_236_154)"/>
<path d="M2.53157 78.792C2.03728 78.792 1.63672 79.1926 1.63672 79.6868V83.8266C1.63672 83.884 1.64265 83.94 1.65302 83.9944C1.68531 83.9979 1.71808 84 1.75135 84H27.6066C28.1008 84 28.5014 83.5994 28.5014 83.1051V78.9654C28.5014 78.9079 28.4955 78.8519 28.4851 78.7976C28.4528 78.7941 28.42 78.792 28.3868 78.792H2.53157Z" fill="url(#paint48_linear_236_154)"/>
<path d="M27.6055 78.0705H1.75032C1.2562 78.0705 0.855469 77.67 0.855469 77.1757V73.036C0.855469 72.5417 1.25603 72.1411 1.75032 72.1411H27.6055C28.0996 72.1411 28.5004 72.5417 28.5004 73.036V77.1757C28.5004 77.67 28.0996 78.0705 27.6055 78.0705Z" fill="url(#paint49_linear_236_154)"/>
<path d="M24.322 78.0707H5.03099C4.60176 78.0707 4.25391 77.7228 4.25391 77.2936V72.9182C4.25391 72.4891 4.60176 72.1411 5.03099 72.1411H24.322C24.7511 72.1411 25.0991 72.489 25.0991 72.9182V77.2936C25.0991 77.7228 24.7512 78.0707 24.322 78.0707Z" fill="url(#paint50_linear_236_154)"/>
<path d="M17.9982 78.0705H11.3553C11.0966 78.0705 10.8867 77.8607 10.8867 77.6019V72.6097C10.8867 72.3509 11.0966 72.1411 11.3553 72.1411H17.9982C18.257 72.1411 18.4668 72.3509 18.4668 72.6097V77.6019C18.4668 77.8607 18.257 78.0705 17.9982 78.0705Z" fill="url(#paint51_linear_236_154)"/>
<path d="M2.53157 72.8628C2.03728 72.8628 1.63672 73.2634 1.63672 73.7576V77.8974C1.63672 77.9548 1.64265 78.0107 1.65302 78.0652C1.68531 78.0688 1.71808 78.0708 1.75135 78.0708H27.6066C28.1008 78.0708 28.5014 77.6702 28.5014 77.176V73.0362C28.5014 72.9787 28.4955 72.9227 28.4851 72.8684C28.4528 72.8648 28.42 72.8628 28.3868 72.8628H2.53157Z" fill="url(#paint52_linear_236_154)"/>
<path d="M27.6055 72.1413H1.75032C1.2562 72.1413 0.855469 71.7408 0.855469 71.2465V67.1068C0.855469 66.6126 1.25603 66.2119 1.75032 66.2119H27.6055C28.0996 66.2119 28.5004 66.6125 28.5004 67.1068V71.2465C28.5004 71.7408 28.0996 72.1413 27.6055 72.1413Z" fill="url(#paint53_linear_236_154)"/>
<path d="M24.322 72.1413H5.03099C4.60176 72.1413 4.25391 71.7935 4.25391 71.3642V66.989C4.25391 66.5598 4.60176 66.2119 5.03099 66.2119H24.322C24.7511 66.2119 25.0991 66.5598 25.0991 66.989V71.3642C25.0991 71.7935 24.7512 72.1413 24.322 72.1413Z" fill="url(#paint54_linear_236_154)"/>
<path d="M17.9982 72.1413H11.3553C11.0966 72.1413 10.8867 71.9315 10.8867 71.6727V66.6805C10.8867 66.4217 11.0966 66.2119 11.3553 66.2119H17.9982C18.257 66.2119 18.4668 66.4217 18.4668 66.6805V71.6727C18.4668 71.9317 18.257 72.1413 17.9982 72.1413Z" fill="url(#paint55_linear_236_154)"/>
<path d="M2.53157 66.9331C2.03728 66.9331 1.63672 67.3337 1.63672 67.828V71.9677C1.63672 72.0252 1.64265 72.0812 1.65302 72.1355C1.68531 72.139 1.71808 72.1411 1.75135 72.1411H27.6066C28.1008 72.1411 28.5014 71.7406 28.5014 71.2463V67.1065C28.5014 67.0491 28.4955 66.9932 28.4851 66.9387C28.4528 66.9352 28.42 66.9331 28.3868 66.9331H2.53157Z" fill="url(#paint56_linear_236_154)"/>
<path d="M27.6055 66.2116H1.75032C1.2562 66.2116 0.855469 65.8111 0.855469 65.3168V61.1771C0.855469 60.6828 1.25603 60.2822 1.75032 60.2822H27.6055C28.0996 60.2822 28.5004 60.6828 28.5004 61.1771V65.3168C28.5004 65.8111 28.0996 66.2116 27.6055 66.2116Z" fill="url(#paint57_linear_236_154)"/>
<path d="M24.322 66.2118H5.03099C4.60176 66.2118 4.25391 65.864 4.25391 65.4347V61.0593C4.25391 60.6303 4.60176 60.2822 5.03099 60.2822H24.322C24.7511 60.2822 25.0991 60.6301 25.0991 61.0593V65.4347C25.0991 65.864 24.7512 66.2118 24.322 66.2118Z" fill="url(#paint58_linear_236_154)"/>
<path d="M17.9982 66.2116H11.3553C11.0966 66.2116 10.8867 66.0018 10.8867 65.7431V60.7508C10.8867 60.4921 11.0966 60.2822 11.3553 60.2822H17.9982C18.257 60.2822 18.4668 60.4921 18.4668 60.7508V65.7431C18.4668 66.002 18.257 66.2116 17.9982 66.2116Z" fill="url(#paint59_linear_236_154)"/>
<path d="M2.53157 61.0039C2.03728 61.0039 1.63672 61.4045 1.63672 61.8988V66.0385C1.63672 66.096 1.64265 66.1518 1.65302 66.2063C1.68531 66.2099 1.71808 66.2119 1.75135 66.2119H27.6066C28.1008 66.2119 28.5014 65.8113 28.5014 65.3171V61.1773C28.5014 61.1199 28.4955 61.064 28.4851 61.0095C28.4528 61.0059 28.42 61.0039 28.3868 61.0039H2.53157Z" fill="url(#paint60_linear_236_154)"/>
<path d="M27.6055 60.2824H1.75032C1.2562 60.2824 0.855469 59.8819 0.855469 59.3876V55.2479C0.855469 54.7538 1.25603 54.353 1.75032 54.353H27.6055C28.0996 54.353 28.5004 54.7536 28.5004 55.2479V59.3876C28.5004 59.8817 28.0996 60.2824 27.6055 60.2824Z" fill="url(#paint61_linear_236_154)"/>
<path d="M24.322 60.2824H5.03099C4.60176 60.2824 4.25391 59.9346 4.25391 59.5054V55.1301C4.25391 54.701 4.60176 54.353 5.03099 54.353H24.322C24.7511 54.353 25.0991 54.7009 25.0991 55.1301V59.5054C25.0991 59.9344 24.7512 60.2824 24.322 60.2824Z" fill="url(#paint62_linear_236_154)"/>
<path d="M17.9982 60.2824H11.3553C11.0966 60.2824 10.8867 60.0726 10.8867 59.8139V54.8216C10.8867 54.5629 11.0966 54.353 11.3553 54.353H17.9982C18.257 54.353 18.4668 54.5629 18.4668 54.8216V59.8139C18.4668 60.0726 18.257 60.2824 17.9982 60.2824Z" fill="url(#paint63_linear_236_154)"/>
<path d="M2.53157 55.0742C2.03728 55.0742 1.63672 55.4748 1.63672 55.9691V60.1088C1.63672 60.1663 1.64265 60.2223 1.65302 60.2766C1.68531 60.2801 1.71808 60.2822 1.75135 60.2822H27.6066C28.1008 60.2822 28.5014 59.8817 28.5014 59.3874V55.2477C28.5014 55.1902 28.4955 55.1343 28.4851 55.0798C28.4528 55.0764 28.42 55.0742 28.3868 55.0742H2.53157Z" fill="url(#paint64_linear_236_154)"/>
<path d="M27.6055 54.3532H1.75032C1.2562 54.3532 0.855469 53.9527 0.855469 53.4584V49.3187C0.855469 48.8244 1.25603 48.4238 1.75032 48.4238H27.6055C28.0996 48.4238 28.5004 48.8244 28.5004 49.3187V53.4584C28.5004 53.9525 28.0996 54.3532 27.6055 54.3532Z" fill="url(#paint65_linear_236_154)"/>
<path d="M24.322 54.3529H5.03099C4.60176 54.3529 4.25391 54.0051 4.25391 53.5758V49.2004C4.25391 48.7714 4.60176 48.4233 5.03099 48.4233H24.322C24.7511 48.4233 25.0991 48.7712 25.0991 49.2004V53.5758C25.0991 54.0051 24.7512 54.3529 24.322 54.3529Z" fill="url(#paint66_linear_236_154)"/>
<path d="M17.9982 54.3532H11.3553C11.0966 54.3532 10.8867 54.1434 10.8867 53.8847V48.8924C10.8867 48.6337 11.0966 48.4238 11.3553 48.4238H17.9982C18.257 48.4238 18.4668 48.6337 18.4668 48.8924V53.8847C18.4668 54.1434 18.257 54.3532 17.9982 54.3532Z" fill="url(#paint67_linear_236_154)"/>
<path d="M2.53157 49.145C2.03728 49.145 1.63672 49.5456 1.63672 50.0399V54.1796C1.63672 54.2371 1.64265 54.2929 1.65302 54.3474C1.68531 54.3509 1.71808 54.353 1.75135 54.353H27.6066C28.1008 54.353 28.5014 53.9525 28.5014 53.4582V49.3185C28.5014 49.261 28.4955 49.2051 28.4851 49.1506C28.4528 49.1472 28.42 49.145 28.3868 49.145H2.53157Z" fill="url(#paint68_linear_236_154)"/>
<path d="M76.086 84.0002H50.2308C49.7365 84.0002 49.3359 83.5996 49.3359 83.1054V78.9657C49.3359 78.4714 49.7365 78.0708 50.2308 78.0708H76.086C76.5801 78.0708 76.9808 78.4714 76.9808 78.9657V83.1054C76.9808 83.5996 76.5801 84.0002 76.086 84.0002Z" fill="url(#paint69_linear_236_154)"/>
<path d="M72.8025 84.0002H53.5115C53.0824 84.0002 52.7344 83.6524 52.7344 83.2231V78.8479C52.7344 78.4188 53.0822 78.0708 53.5115 78.0708H72.8025C73.2315 78.0708 73.5796 78.4187 73.5796 78.8479V83.2231C73.5796 83.6524 73.2315 84.0002 72.8025 84.0002Z" fill="url(#paint70_linear_236_154)"/>
<path d="M66.4787 84.0002H59.8358C59.577 84.0002 59.3672 83.7904 59.3672 83.5316V78.5394C59.3672 78.2806 59.577 78.0708 59.8358 78.0708H66.4787C66.7374 78.0708 66.9473 78.2806 66.9473 78.5394V83.5316C66.9473 83.7904 66.7374 84.0002 66.4787 84.0002Z" fill="url(#paint71_linear_236_154)"/>
<path d="M51.012 78.792C50.5179 78.792 50.1172 79.1926 50.1172 79.6868V83.8266C50.1172 83.884 50.1231 83.94 50.1335 83.9944C50.1658 83.9979 50.1986 84 50.2318 84H76.087C76.5811 84 76.9819 83.5994 76.9819 83.1051V78.9654C76.9819 78.9079 76.9759 78.8519 76.9656 78.7976C76.9333 78.7941 76.9005 78.792 76.8672 78.792H51.012Z" fill="url(#paint72_linear_236_154)"/>
<path d="M76.086 78.0705H50.2308C49.7365 78.0705 49.3359 77.67 49.3359 77.1757V73.036C49.3359 72.5417 49.7365 72.1411 50.2308 72.1411H76.086C76.5801 72.1411 76.9808 72.5417 76.9808 73.036V77.1757C76.9808 77.67 76.5801 78.0705 76.086 78.0705Z" fill="url(#paint73_linear_236_154)"/>
<path d="M72.8025 78.0707H53.5115C53.0824 78.0707 52.7344 77.7228 52.7344 77.2936V72.9182C52.7344 72.4891 53.0822 72.1411 53.5115 72.1411H72.8025C73.2315 72.1411 73.5796 72.489 73.5796 72.9182V77.2936C73.5796 77.7228 73.2315 78.0707 72.8025 78.0707Z" fill="url(#paint74_linear_236_154)"/>
<path d="M66.4787 78.0705H59.8358C59.577 78.0705 59.3672 77.8607 59.3672 77.6019V72.6097C59.3672 72.3509 59.577 72.1411 59.8358 72.1411H66.4787C66.7374 72.1411 66.9473 72.3509 66.9473 72.6097V77.6019C66.9473 77.8607 66.7374 78.0705 66.4787 78.0705Z" fill="url(#paint75_linear_236_154)"/>
<path d="M51.012 72.8628C50.5179 72.8628 50.1172 73.2634 50.1172 73.7576V77.8974C50.1172 77.9548 50.1231 78.0107 50.1335 78.0652C50.1658 78.0688 50.1986 78.0708 50.2318 78.0708H76.087C76.5811 78.0708 76.9819 77.6702 76.9819 77.176V73.0362C76.9819 72.9787 76.9759 72.9227 76.9656 72.8684C76.9333 72.8648 76.9005 72.8628 76.8672 72.8628H51.012Z" fill="url(#paint76_linear_236_154)"/>
<path d="M15.3253 34.5353C12.8524 36.1468 10.7425 38.2693 9.1447 40.7526C8.78532 41.311 7.95619 41.3095 7.59894 40.7498C6.01019 38.2609 3.90805 36.1306 1.44108 34.5101C0.893434 34.1504 0.894916 33.3326 1.44388 32.9749C3.91677 31.3634 6.02666 29.2408 7.62447 26.7577C7.98369 26.1994 8.81299 26.2008 9.17023 26.7605C10.759 29.2494 12.8611 31.3797 15.3283 33.0002C15.8757 33.3598 15.8743 34.1777 15.3253 34.5353Z" fill="url(#paint77_linear_236_154)"/>
<path d="M25.1786 12.1043C23.4299 13.2439 21.9378 14.7448 20.8079 16.5009C20.5538 16.8957 19.9674 16.8947 19.7148 16.4989C18.5913 14.7389 17.1047 13.2325 15.3601 12.0865C14.9729 11.8322 14.9739 11.2537 15.3621 11.0007C17.1108 9.86114 18.6028 8.36017 19.7327 6.60408C19.9869 6.20928 20.5732 6.21027 20.8259 6.60605C21.9493 8.3661 23.436 9.8725 25.1805 11.0185C25.5678 11.273 25.5668 11.8513 25.1786 12.1043Z" fill="url(#paint78_linear_236_154)"/>
<path d="M72.6747 16.1604C70.926 17.3 69.4339 18.801 68.304 20.5571C68.0499 20.9519 67.4635 20.9509 67.2109 20.5551C66.0874 18.7951 64.6008 17.2887 62.8562 16.1426C62.469 15.8883 62.47 15.3099 62.8582 15.0569C64.6069 13.9173 66.0989 12.4163 67.2288 10.6602C67.483 10.2654 68.0693 10.2664 68.322 10.6622C69.4456 12.4223 70.9321 13.9287 72.6766 15.0747C73.0639 15.3291 73.0629 15.9074 72.6747 16.1604Z" fill="url(#paint79_linear_236_154)"/>
</g>
<defs>
<linearGradient id="paint0_linear_236_154" x1="69.3224" y1="64.0216" x2="69.3224" y2="71.7093" gradientUnits="userSpaceOnUse">
<stop stop-color="#E4F2FF"/>
<stop offset="1" stop-color="#B2CBFF"/>
</linearGradient>
<linearGradient id="paint1_linear_236_154" x1="69.321" y1="64.133" x2="69.321" y2="77.062" gradientUnits="userSpaceOnUse">
<stop stop-color="#3F3CED" stop-opacity="0"/>
<stop offset="0.2796" stop-color="#3C3DE4" stop-opacity="0.28"/>
<stop offset="0.7305" stop-color="#3541CC" stop-opacity="0.731"/>
<stop offset="1" stop-color="#2F43BB"/>
</linearGradient>
<linearGradient id="paint2_linear_236_154" x1="69.3213" y1="64.133" x2="69.3213" y2="77.062" gradientUnits="userSpaceOnUse">
<stop stop-color="#3F3CED" stop-opacity="0"/>
<stop offset="0.2796" stop-color="#3C3DE4" stop-opacity="0.28"/>
<stop offset="0.7305" stop-color="#3541CC" stop-opacity="0.731"/>
<stop offset="1" stop-color="#2F43BB"/>
</linearGradient>
<linearGradient id="paint3_linear_236_154" x1="69.2915" y1="66.2046" x2="66.226" y2="58.7917" gradientUnits="userSpaceOnUse">
<stop stop-color="white" stop-opacity="0"/>
<stop offset="1" stop-color="white"/>
</linearGradient>
<linearGradient id="paint4_linear_236_154" x1="69.3224" y1="58.0924" x2="69.3224" y2="65.7801" gradientUnits="userSpaceOnUse">
<stop stop-color="#E4F2FF"/>
<stop offset="1" stop-color="#B2CBFF"/>
</linearGradient>
<linearGradient id="paint5_linear_236_154" x1="69.321" y1="58.2039" x2="69.321" y2="71.1328" gradientUnits="userSpaceOnUse">
<stop stop-color="#3F3CED" stop-opacity="0"/>
<stop offset="0.2796" stop-color="#3C3DE4" stop-opacity="0.28"/>
<stop offset="0.7305" stop-color="#3541CC" stop-opacity="0.731"/>
<stop offset="1" stop-color="#2F43BB"/>
</linearGradient>
<linearGradient id="paint6_linear_236_154" x1="69.3213" y1="58.2039" x2="69.3213" y2="71.1328" gradientUnits="userSpaceOnUse">
<stop stop-color="#3F3CED" stop-opacity="0"/>
<stop offset="0.2796" stop-color="#3C3DE4" stop-opacity="0.28"/>
<stop offset="0.7305" stop-color="#3541CC" stop-opacity="0.731"/>
<stop offset="1" stop-color="#2F43BB"/>
</linearGradient>
<linearGradient id="paint7_linear_236_154" x1="69.2915" y1="60.2749" x2="66.226" y2="52.862" gradientUnits="userSpaceOnUse">
<stop stop-color="white" stop-opacity="0"/>
<stop offset="1" stop-color="white"/>
</linearGradient>
<linearGradient id="paint8_linear_236_154" x1="69.3224" y1="52.1632" x2="69.3224" y2="59.8509" gradientUnits="userSpaceOnUse">
<stop stop-color="#E4F2FF"/>
<stop offset="1" stop-color="#B2CBFF"/>
</linearGradient>
<linearGradient id="paint9_linear_236_154" x1="69.321" y1="52.2747" x2="69.321" y2="65.2037" gradientUnits="userSpaceOnUse">
<stop stop-color="#3F3CED" stop-opacity="0"/>
<stop offset="0.2796" stop-color="#3C3DE4" stop-opacity="0.28"/>
<stop offset="0.7305" stop-color="#3541CC" stop-opacity="0.731"/>
<stop offset="1" stop-color="#2F43BB"/>
</linearGradient>
<linearGradient id="paint10_linear_236_154" x1="69.3213" y1="52.2747" x2="69.3213" y2="65.2037" gradientUnits="userSpaceOnUse">
<stop stop-color="#3F3CED" stop-opacity="0"/>
<stop offset="0.2796" stop-color="#3C3DE4" stop-opacity="0.28"/>
<stop offset="0.7305" stop-color="#3541CC" stop-opacity="0.731"/>
<stop offset="1" stop-color="#2F43BB"/>
</linearGradient>
<linearGradient id="paint11_linear_236_154" x1="69.2915" y1="54.3457" x2="66.226" y2="46.9328" gradientUnits="userSpaceOnUse">
<stop stop-color="white" stop-opacity="0"/>
<stop offset="1" stop-color="white"/>
</linearGradient>
<linearGradient id="paint12_linear_236_154" x1="69.3224" y1="46.2335" x2="69.3224" y2="53.9212" gradientUnits="userSpaceOnUse">
<stop stop-color="#E4F2FF"/>
<stop offset="1" stop-color="#B2CBFF"/>
</linearGradient>
<linearGradient id="paint13_linear_236_154" x1="69.321" y1="46.345" x2="69.321" y2="59.274" gradientUnits="userSpaceOnUse">
<stop stop-color="#3F3CED" stop-opacity="0"/>
<stop offset="0.2796" stop-color="#3C3DE4" stop-opacity="0.28"/>
<stop offset="0.7305" stop-color="#3541CC" stop-opacity="0.731"/>
<stop offset="1" stop-color="#2F43BB"/>
</linearGradient>
<linearGradient id="paint14_linear_236_154" x1="69.3213" y1="46.345" x2="69.3213" y2="59.274" gradientUnits="userSpaceOnUse">
<stop stop-color="#3F3CED" stop-opacity="0"/>
<stop offset="0.2796" stop-color="#3C3DE4" stop-opacity="0.28"/>
<stop offset="0.7305" stop-color="#3541CC" stop-opacity="0.731"/>
<stop offset="1" stop-color="#2F43BB"/>
</linearGradient>
<linearGradient id="paint15_linear_236_154" x1="69.2915" y1="48.4165" x2="66.226" y2="41.0037" gradientUnits="userSpaceOnUse">
<stop stop-color="white" stop-opacity="0"/>
<stop offset="1" stop-color="white"/>
</linearGradient>
<linearGradient id="paint16_linear_236_154" x1="69.3224" y1="40.3043" x2="69.3224" y2="47.992" gradientUnits="userSpaceOnUse">
<stop stop-color="#E4F2FF"/>
<stop offset="1" stop-color="#B2CBFF"/>
</linearGradient>
<linearGradient id="paint17_linear_236_154" x1="69.321" y1="40.4158" x2="69.321" y2="53.3447" gradientUnits="userSpaceOnUse">
<stop stop-color="#3F3CED" stop-opacity="0"/>
<stop offset="0.2796" stop-color="#3C3DE4" stop-opacity="0.28"/>
<stop offset="0.7305" stop-color="#3541CC" stop-opacity="0.731"/>
<stop offset="1" stop-color="#2F43BB"/>
</linearGradient>
<linearGradient id="paint18_linear_236_154" x1="69.3213" y1="40.4158" x2="69.3213" y2="53.3447" gradientUnits="userSpaceOnUse">
<stop stop-color="#3F3CED" stop-opacity="0"/>
<stop offset="0.2796" stop-color="#3C3DE4" stop-opacity="0.28"/>
<stop offset="0.7305" stop-color="#3541CC" stop-opacity="0.731"/>
<stop offset="1" stop-color="#2F43BB"/>
</linearGradient>
<linearGradient id="paint19_linear_236_154" x1="69.2915" y1="42.4868" x2="66.226" y2="35.0741" gradientUnits="userSpaceOnUse">
<stop stop-color="white" stop-opacity="0"/>
<stop offset="1" stop-color="white"/>
</linearGradient>
<linearGradient id="paint20_linear_236_154" x1="69.3224" y1="34.3747" x2="69.3224" y2="42.0625" gradientUnits="userSpaceOnUse">
<stop stop-color="#E4F2FF"/>
<stop offset="1" stop-color="#B2CBFF"/>
</linearGradient>
<linearGradient id="paint21_linear_236_154" x1="69.321" y1="34.4862" x2="69.321" y2="47.4152" gradientUnits="userSpaceOnUse">
<stop stop-color="#3F3CED" stop-opacity="0"/>
<stop offset="0.2796" stop-color="#3C3DE4" stop-opacity="0.28"/>
<stop offset="0.7305" stop-color="#3541CC" stop-opacity="0.731"/>
<stop offset="1" stop-color="#2F43BB"/>
</linearGradient>
<linearGradient id="paint22_linear_236_154" x1="69.3213" y1="34.4862" x2="69.3213" y2="47.4152" gradientUnits="userSpaceOnUse">
<stop stop-color="#3F3CED" stop-opacity="0"/>
<stop offset="0.2796" stop-color="#3C3DE4" stop-opacity="0.28"/>
<stop offset="0.7305" stop-color="#3541CC" stop-opacity="0.731"/>
<stop offset="1" stop-color="#2F43BB"/>
</linearGradient>
<linearGradient id="paint23_linear_236_154" x1="69.2915" y1="36.5576" x2="66.226" y2="29.1448" gradientUnits="userSpaceOnUse">
<stop stop-color="white" stop-opacity="0"/>
<stop offset="1" stop-color="white"/>
</linearGradient>
<linearGradient id="paint24_linear_236_154" x1="69.3224" y1="28.4455" x2="69.3224" y2="36.1331" gradientUnits="userSpaceOnUse">
<stop stop-color="#E4F2FF"/>
<stop offset="1" stop-color="#B2CBFF"/>
</linearGradient>
<linearGradient id="paint25_linear_236_154" x1="69.321" y1="28.557" x2="69.321" y2="41.486" gradientUnits="userSpaceOnUse">
<stop stop-color="#3F3CED" stop-opacity="0"/>
<stop offset="0.2796" stop-color="#3C3DE4" stop-opacity="0.28"/>
<stop offset="0.7305" stop-color="#3541CC" stop-opacity="0.731"/>
<stop offset="1" stop-color="#2F43BB"/>
</linearGradient>
<linearGradient id="paint26_linear_236_154" x1="69.3213" y1="28.5568" x2="69.3213" y2="41.4859" gradientUnits="userSpaceOnUse">
<stop stop-color="#3F3CED" stop-opacity="0"/>
<stop offset="0.2796" stop-color="#3C3DE4" stop-opacity="0.28"/>
<stop offset="0.7305" stop-color="#3541CC" stop-opacity="0.731"/>
<stop offset="1" stop-color="#2F43BB"/>
</linearGradient>
<linearGradient id="paint27_linear_236_154" x1="69.2915" y1="30.6281" x2="66.226" y2="23.2152" gradientUnits="userSpaceOnUse">
<stop stop-color="white" stop-opacity="0"/>
<stop offset="1" stop-color="white"/>
</linearGradient>
<linearGradient id="paint28_linear_236_154" x1="69.3224" y1="22.5163" x2="69.3224" y2="30.2039" gradientUnits="userSpaceOnUse">
<stop stop-color="#E4F2FF"/>
<stop offset="1" stop-color="#B2CBFF"/>
</linearGradient>
<linearGradient id="paint29_linear_236_154" x1="69.321" y1="22.6278" x2="69.321" y2="35.5567" gradientUnits="userSpaceOnUse">
<stop stop-color="#3F3CED" stop-opacity="0"/>
<stop offset="0.2796" stop-color="#3C3DE4" stop-opacity="0.28"/>
<stop offset="0.7305" stop-color="#3541CC" stop-opacity="0.731"/>
<stop offset="1" stop-color="#2F43BB"/>
</linearGradient>
<linearGradient id="paint30_linear_236_154" x1="69.3213" y1="22.6278" x2="69.3213" y2="35.5567" gradientUnits="userSpaceOnUse">
<stop stop-color="#3F3CED" stop-opacity="0"/>
<stop offset="0.2796" stop-color="#3C3DE4" stop-opacity="0.28"/>
<stop offset="0.7305" stop-color="#3541CC" stop-opacity="0.731"/>
<stop offset="1" stop-color="#2F43BB"/>
</linearGradient>
<linearGradient id="paint31_linear_236_154" x1="69.2915" y1="24.6987" x2="66.226" y2="17.2858" gradientUnits="userSpaceOnUse">
<stop stop-color="white" stop-opacity="0"/>
<stop offset="1" stop-color="white"/>
</linearGradient>
<radialGradient id="paint32_radial_236_154" cx="0" cy="0" r="1" gradientUnits="userSpaceOnUse" gradientTransform="translate(32.7052 34.0991) scale(55.6009)">
<stop stop-color="#4AB272"/>
<stop offset="0.3386" stop-color="#47B071"/>
<stop offset="0.5502" stop-color="#3FA870"/>
<stop offset="0.727" stop-color="#309B6D"/>
<stop offset="0.8837" stop-color="#1C8869"/>
<stop offset="1" stop-color="#077565"/>
</radialGradient>
<linearGradient id="paint33_linear_236_154" x1="22.1735" y1="59.8239" x2="20.3924" y2="115.339" gradientUnits="userSpaceOnUse">
<stop stop-color="#005A01" stop-opacity="0"/>
<stop offset="1" stop-color="#005A01"/>
</linearGradient>
<linearGradient id="paint34_linear_236_154" x1="38.3888" y1="70.7614" x2="46.3059" y2="100.978" gradientUnits="userSpaceOnUse">
<stop stop-color="#005A01" stop-opacity="0"/>
<stop offset="1" stop-color="#005A01"/>
</linearGradient>
<linearGradient id="paint35_linear_236_154" x1="62.8837" y1="70.1681" x2="59.981" y2="107.378" gradientUnits="userSpaceOnUse">
<stop stop-color="#005A01" stop-opacity="0"/>
<stop offset="1" stop-color="#005A01"/>
</linearGradient>
<linearGradient id="paint36_linear_236_154" x1="38.7402" y1="48.4396" x2="1.53063" y2="-18.0626" gradientUnits="userSpaceOnUse">
<stop stop-color="#91F27F" stop-opacity="0"/>
<stop offset="1" stop-color="#FFED82"/>
</linearGradient>
<linearGradient id="paint37_linear_236_154" x1="64.6947" y1="61.3173" x2="17.5432" y2="34.6378" gradientUnits="userSpaceOnUse">
<stop stop-color="#005A01" stop-opacity="0"/>
<stop offset="1" stop-color="#005A01"/>
</linearGradient>
<linearGradient id="paint38_linear_236_154" x1="37.198" y1="40.443" x2="63.0255" y2="62.7081" gradientUnits="userSpaceOnUse">
<stop stop-color="#FFC738"/>
<stop offset="0.1876" stop-color="#FDBF3C"/>
<stop offset="0.4837" stop-color="#F7A848"/>
<stop offset="0.8493" stop-color="#ED835B"/>
<stop offset="1" stop-color="#E97264"/>
</linearGradient>
<linearGradient id="paint39_linear_236_154" x1="39.6213" y1="-2.49962" x2="48.33" y2="15.9073" gradientUnits="userSpaceOnUse">
<stop stop-color="#4AB272"/>
<stop offset="0.3386" stop-color="#47B071"/>
<stop offset="0.5502" stop-color="#3FA870"/>
<stop offset="0.727" stop-color="#309B6D"/>
<stop offset="0.8837" stop-color="#1C8869"/>
<stop offset="1" stop-color="#077565"/>
</linearGradient>
<linearGradient id="paint40_linear_236_154" x1="42.4833" y1="7.21671" x2="54.2267" y2="25.4256" gradientUnits="userSpaceOnUse">
<stop stop-color="#005A01" stop-opacity="0"/>
<stop offset="1" stop-color="#005A01"/>
</linearGradient>
<linearGradient id="paint41_linear_236_154" x1="43.0584" y1="0.614594" x2="43.6522" y2="6.45325" gradientUnits="userSpaceOnUse">
<stop stop-color="#005A01" stop-opacity="0"/>
<stop offset="1" stop-color="#005A01"/>
</linearGradient>
<linearGradient id="paint42_linear_236_154" x1="40.4828" y1="7.79928" x2="18.0184" y2="7.40349" gradientUnits="userSpaceOnUse">
<stop stop-color="#91F27F" stop-opacity="0"/>
<stop offset="1" stop-color="#FFED82"/>
</linearGradient>
<linearGradient id="paint43_linear_236_154" x1="42.6042" y1="14.4385" x2="42.6042" y2="17.2376" gradientUnits="userSpaceOnUse">
<stop stop-color="#FFC738"/>
<stop offset="0.1876" stop-color="#FDBF3C"/>
<stop offset="0.4837" stop-color="#F7A848"/>
<stop offset="0.8493" stop-color="#ED835B"/>
<stop offset="1" stop-color="#E97264"/>
</linearGradient>
<linearGradient id="paint44_linear_236_154" x1="40.4299" y1="66.3878" x2="23.0127" y2="64.9364" gradientUnits="userSpaceOnUse">
<stop stop-color="#005A01" stop-opacity="0"/>
<stop offset="1" stop-color="#005A01"/>
</linearGradient>
<linearGradient id="paint45_linear_236_154" x1="14.6779" y1="78.193" x2="14.6779" y2="85.8807" gradientUnits="userSpaceOnUse">
<stop stop-color="#FFD945"/>
<stop offset="0.3043" stop-color="#FFCD3E"/>
<stop offset="0.8558" stop-color="#FFAD2B"/>
<stop offset="1" stop-color="#FFA325"/>
</linearGradient>
<linearGradient id="paint46_linear_236_154" x1="14.6765" y1="78.3045" x2="14.6765" y2="91.2334" gradientUnits="userSpaceOnUse">
<stop stop-color="#E87264" stop-opacity="0"/>
<stop offset="1" stop-color="#FF7044"/>
</linearGradient>
<linearGradient id="paint47_linear_236_154" x1="14.6768" y1="78.3045" x2="14.6768" y2="91.2334" gradientUnits="userSpaceOnUse">
<stop stop-color="#E87264" stop-opacity="0"/>
<stop offset="1" stop-color="#FF7044"/>
</linearGradient>
<linearGradient id="paint48_linear_236_154" x1="14.647" y1="80.3755" x2="11.5817" y2="72.9626" gradientUnits="userSpaceOnUse">
<stop stop-color="#FFD945" stop-opacity="0"/>
<stop offset="1" stop-color="#FBED21"/>
</linearGradient>
<linearGradient id="paint49_linear_236_154" x1="14.6779" y1="72.2633" x2="14.6779" y2="79.951" gradientUnits="userSpaceOnUse">
<stop stop-color="#FFD945"/>
<stop offset="0.3043" stop-color="#FFCD3E"/>
<stop offset="0.8558" stop-color="#FFAD2B"/>
<stop offset="1" stop-color="#FFA325"/>
</linearGradient>
<linearGradient id="paint50_linear_236_154" x1="14.6765" y1="72.375" x2="14.6765" y2="85.3039" gradientUnits="userSpaceOnUse">
<stop stop-color="#E87264" stop-opacity="0"/>
<stop offset="1" stop-color="#FF7044"/>
</linearGradient>
<linearGradient id="paint51_linear_236_154" x1="14.6768" y1="72.3748" x2="14.6768" y2="85.3037" gradientUnits="userSpaceOnUse">
<stop stop-color="#E87264" stop-opacity="0"/>
<stop offset="1" stop-color="#FF7044"/>
</linearGradient>
<linearGradient id="paint52_linear_236_154" x1="14.647" y1="74.4463" x2="11.5817" y2="67.0335" gradientUnits="userSpaceOnUse">
<stop stop-color="#FFD945" stop-opacity="0"/>
<stop offset="1" stop-color="#FBED21"/>
</linearGradient>
<linearGradient id="paint53_linear_236_154" x1="14.6779" y1="66.3341" x2="14.6779" y2="74.0218" gradientUnits="userSpaceOnUse">
<stop stop-color="#FFD945"/>
<stop offset="0.3043" stop-color="#FFCD3E"/>
<stop offset="0.8558" stop-color="#FFAD2B"/>
<stop offset="1" stop-color="#FFA325"/>
</linearGradient>
<linearGradient id="paint54_linear_236_154" x1="14.6765" y1="66.4456" x2="14.6765" y2="79.3746" gradientUnits="userSpaceOnUse">
<stop stop-color="#E87264" stop-opacity="0"/>
<stop offset="1" stop-color="#FF7044"/>
</linearGradient>
<linearGradient id="paint55_linear_236_154" x1="14.6768" y1="66.4456" x2="14.6768" y2="79.3746" gradientUnits="userSpaceOnUse">
<stop stop-color="#E87264" stop-opacity="0"/>
<stop offset="1" stop-color="#FF7044"/>
</linearGradient>
<linearGradient id="paint56_linear_236_154" x1="14.647" y1="68.5166" x2="11.5816" y2="61.1038" gradientUnits="userSpaceOnUse">
<stop stop-color="#FFD945" stop-opacity="0"/>
<stop offset="1" stop-color="#FBED21"/>
</linearGradient>
<linearGradient id="paint57_linear_236_154" x1="14.6779" y1="60.4044" x2="14.6779" y2="68.0923" gradientUnits="userSpaceOnUse">
<stop stop-color="#FFD945"/>
<stop offset="0.3043" stop-color="#FFCD3E"/>
<stop offset="0.8558" stop-color="#FFAD2B"/>
<stop offset="1" stop-color="#FFA325"/>
</linearGradient>
<linearGradient id="paint58_linear_236_154" x1="14.6765" y1="60.5161" x2="14.6765" y2="73.4452" gradientUnits="userSpaceOnUse">
<stop stop-color="#E87264" stop-opacity="0"/>
<stop offset="1" stop-color="#FF7044"/>
</linearGradient>
<linearGradient id="paint59_linear_236_154" x1="14.6768" y1="60.5159" x2="14.6768" y2="73.445" gradientUnits="userSpaceOnUse">
<stop stop-color="#E87264" stop-opacity="0"/>
<stop offset="1" stop-color="#FF7044"/>
</linearGradient>
<linearGradient id="paint60_linear_236_154" x1="14.647" y1="62.5874" x2="11.5817" y2="55.1746" gradientUnits="userSpaceOnUse">
<stop stop-color="#FFD945" stop-opacity="0"/>
<stop offset="1" stop-color="#FBED21"/>
</linearGradient>
<linearGradient id="paint61_linear_236_154" x1="14.6779" y1="54.4752" x2="14.6779" y2="62.1629" gradientUnits="userSpaceOnUse">
<stop stop-color="#FFD945"/>
<stop offset="0.3043" stop-color="#FFCD3E"/>
<stop offset="0.8558" stop-color="#FFAD2B"/>
<stop offset="1" stop-color="#FFA325"/>
</linearGradient>
<linearGradient id="paint62_linear_236_154" x1="14.6765" y1="54.5866" x2="14.6765" y2="67.5157" gradientUnits="userSpaceOnUse">
<stop stop-color="#E87264" stop-opacity="0"/>
<stop offset="1" stop-color="#FF7044"/>
</linearGradient>
<linearGradient id="paint63_linear_236_154" x1="14.6768" y1="54.5866" x2="14.6768" y2="67.5157" gradientUnits="userSpaceOnUse">
<stop stop-color="#E87264" stop-opacity="0"/>
<stop offset="1" stop-color="#FF7044"/>
</linearGradient>
<linearGradient id="paint64_linear_236_154" x1="14.647" y1="56.6579" x2="11.5817" y2="49.2449" gradientUnits="userSpaceOnUse">
<stop stop-color="#FFD945" stop-opacity="0"/>
<stop offset="1" stop-color="#FBED21"/>
</linearGradient>
<linearGradient id="paint65_linear_236_154" x1="14.6779" y1="48.546" x2="14.6779" y2="56.2337" gradientUnits="userSpaceOnUse">
<stop stop-color="#FFD945"/>
<stop offset="0.3043" stop-color="#FFCD3E"/>
<stop offset="0.8558" stop-color="#FFAD2B"/>
<stop offset="1" stop-color="#FFA325"/>
</linearGradient>
<linearGradient id="paint66_linear_236_154" x1="14.6765" y1="48.6571" x2="14.6765" y2="61.5861" gradientUnits="userSpaceOnUse">
<stop stop-color="#E87264" stop-opacity="0"/>
<stop offset="1" stop-color="#FF7044"/>
</linearGradient>
<linearGradient id="paint67_linear_236_154" x1="14.6768" y1="48.6574" x2="14.6768" y2="61.5865" gradientUnits="userSpaceOnUse">
<stop stop-color="#E87264" stop-opacity="0"/>
<stop offset="1" stop-color="#FF7044"/>
</linearGradient>
<linearGradient id="paint68_linear_236_154" x1="14.647" y1="50.7285" x2="11.5817" y2="43.3156" gradientUnits="userSpaceOnUse">
<stop stop-color="#FFD945" stop-opacity="0"/>
<stop offset="1" stop-color="#FBED21"/>
</linearGradient>
<linearGradient id="paint69_linear_236_154" x1="63.1584" y1="78.193" x2="63.1584" y2="85.8807" gradientUnits="userSpaceOnUse">
<stop stop-color="#FFD945"/>
<stop offset="0.3043" stop-color="#FFCD3E"/>
<stop offset="0.8558" stop-color="#FFAD2B"/>
<stop offset="1" stop-color="#FFA325"/>
</linearGradient>
<linearGradient id="paint70_linear_236_154" x1="63.157" y1="78.3045" x2="63.157" y2="91.2334" gradientUnits="userSpaceOnUse">
<stop stop-color="#E87264" stop-opacity="0"/>
<stop offset="1" stop-color="#FF7044"/>
</linearGradient>
<linearGradient id="paint71_linear_236_154" x1="63.1572" y1="78.3045" x2="63.1572" y2="91.2334" gradientUnits="userSpaceOnUse">
<stop stop-color="#E87264" stop-opacity="0"/>
<stop offset="1" stop-color="#FF7044"/>
</linearGradient>
<linearGradient id="paint72_linear_236_154" x1="63.1275" y1="80.3755" x2="60.0621" y2="72.9626" gradientUnits="userSpaceOnUse">
<stop stop-color="#FFD945" stop-opacity="0"/>
<stop offset="1" stop-color="#FBED21"/>
</linearGradient>
<linearGradient id="paint73_linear_236_154" x1="63.1584" y1="72.2633" x2="63.1584" y2="79.951" gradientUnits="userSpaceOnUse">
<stop stop-color="#FFD945"/>
<stop offset="0.3043" stop-color="#FFCD3E"/>
<stop offset="0.8558" stop-color="#FFAD2B"/>
<stop offset="1" stop-color="#FFA325"/>
</linearGradient>
<linearGradient id="paint74_linear_236_154" x1="63.157" y1="72.375" x2="63.157" y2="85.3039" gradientUnits="userSpaceOnUse">
<stop stop-color="#E87264" stop-opacity="0"/>
<stop offset="1" stop-color="#FF7044"/>
</linearGradient>
<linearGradient id="paint75_linear_236_154" x1="63.1572" y1="72.3748" x2="63.1572" y2="85.3037" gradientUnits="userSpaceOnUse">
<stop stop-color="#E87264" stop-opacity="0"/>
<stop offset="1" stop-color="#FF7044"/>
</linearGradient>
<linearGradient id="paint76_linear_236_154" x1="63.1275" y1="74.4463" x2="60.0621" y2="67.0335" gradientUnits="userSpaceOnUse">
<stop stop-color="#FFD945" stop-opacity="0"/>
<stop offset="1" stop-color="#FBED21"/>
</linearGradient>
<linearGradient id="paint77_linear_236_154" x1="5.98101" y1="30.5474" x2="13.7613" y2="40.9647" gradientUnits="userSpaceOnUse">
<stop stop-color="#FFD945"/>
<stop offset="0.3043" stop-color="#FFCD3E"/>
<stop offset="0.8558" stop-color="#FFAD2B"/>
<stop offset="1" stop-color="#FFA325"/>
</linearGradient>
<linearGradient id="paint78_linear_236_154" x1="18.5731" y1="9.28705" x2="24.075" y2="16.6537" gradientUnits="userSpaceOnUse">
<stop stop-color="#FFD945"/>
<stop offset="0.3043" stop-color="#FFCD3E"/>
<stop offset="0.8558" stop-color="#FFAD2B"/>
<stop offset="1" stop-color="#FFA325"/>
</linearGradient>
<linearGradient id="paint79_linear_236_154" x1="66.0683" y1="13.3527" x2="71.5704" y2="20.7194" gradientUnits="userSpaceOnUse">
<stop stop-color="#FFD945"/>
<stop offset="0.3043" stop-color="#FFCD3E"/>
<stop offset="0.8558" stop-color="#FFAD2B"/>
<stop offset="1" stop-color="#FFA325"/>
</linearGradient>
<clipPath id="clip0_236_154">
<rect width="84" height="84" fill="white"/>
</clipPath>
</defs>
</svg>
