<svg width="142" height="18" viewBox="0 0 142 18" fill="none" xmlns="http://www.w3.org/2000/svg">
<path d="M14.25 3H12.75V2.25C12.75 2.05109 12.671 1.86032 12.5303 1.71967C12.3897 1.57902 12.1989 1.5 12 1.5C11.8011 1.5 11.6103 1.57902 11.4697 1.71967C11.329 1.86032 11.25 2.05109 11.25 2.25V3H6.75V2.25C6.75 2.05109 6.67098 1.86032 6.53033 1.71967C6.38968 1.57902 6.19891 1.5 6 1.5C5.80109 1.5 5.61032 1.57902 5.46967 1.71967C5.32902 1.86032 5.25 2.05109 5.25 2.25V3H3.75C3.15326 3 2.58097 3.23705 2.15901 3.65901C1.73705 4.08097 1.5 4.65326 1.5 5.25V14.25C1.5 14.8467 1.73705 15.419 2.15901 15.841C2.58097 16.2629 3.15326 16.5 3.75 16.5H14.25C14.8467 16.5 15.419 16.2629 15.841 15.841C16.2629 15.419 16.5 14.8467 16.5 14.25V5.25C16.5 4.65326 16.2629 4.08097 15.841 3.65901C15.419 3.23705 14.8467 3 14.25 3V3ZM15 14.25C15 14.4489 14.921 14.6397 14.7803 14.7803C14.6397 14.921 14.4489 15 14.25 15H3.75C3.55109 15 3.36032 14.921 3.21967 14.7803C3.07902 14.6397 3 14.4489 3 14.25V9H15V14.25ZM15 7.5H3V5.25C3 5.05109 3.07902 4.86032 3.21967 4.71967C3.36032 4.57902 3.55109 4.5 3.75 4.5H5.25V5.25C5.25 5.44891 5.32902 5.63968 5.46967 5.78033C5.61032 5.92098 5.80109 6 6 6C6.19891 6 6.38968 5.92098 6.53033 5.78033C6.67098 5.63968 6.75 5.44891 6.75 5.25V4.5H11.25V5.25C11.25 5.44891 11.329 5.63968 11.4697 5.78033C11.6103 5.92098 11.8011 6 12 6C12.1989 6 12.3897 5.92098 12.5303 5.78033C12.671 5.63968 12.75 5.44891 12.75 5.25V4.5H14.25C14.4489 4.5 14.6397 4.57902 14.7803 4.71967C14.921 4.86032 15 5.05109 15 5.25V7.5Z" fill="#9F93EA"/>
<path d="M35.5 15V10.5" stroke="#A5A2E1" stroke-width="2" stroke-linecap="round" stroke-linejoin="round"/>
<path d="M44.5 15V7.5" stroke="#A5A2E1" stroke-width="2" stroke-linecap="round" stroke-linejoin="round"/>
<path d="M40 15V3" stroke="#A5A2E1" stroke-width="2" stroke-linecap="round" stroke-linejoin="round"/>
<path d="M67.25 12C67.5484 12 67.8345 11.8815 68.0455 11.6705C68.2565 11.4595 68.375 11.1734 68.375 10.875C68.3787 10.8376 68.3787 10.7999 68.375 10.7625L70.4675 8.67H70.64H70.8125L72.02 9.8775C72.02 9.8775 72.02 9.915 72.02 9.9375C72.02 10.2359 72.1385 10.522 72.3495 10.733C72.5605 10.944 72.8466 11.0625 73.145 11.0625C73.4434 11.0625 73.7295 10.944 73.9405 10.733C74.1515 10.522 74.27 10.2359 74.27 9.9375V9.8775L77 7.125C77.2225 7.125 77.44 7.05902 77.625 6.9354C77.81 6.81179 77.9542 6.63609 78.0394 6.43052C78.1245 6.22495 78.1468 5.99875 78.1034 5.78052C78.06 5.56229 77.9528 5.36184 77.7955 5.2045C77.6382 5.04717 77.4377 4.94002 77.2195 4.89662C77.0012 4.85321 76.775 4.87549 76.5695 4.96064C76.3639 5.04578 76.1882 5.18998 76.0646 5.37498C75.941 5.55999 75.875 5.7775 75.875 6C75.8713 6.03741 75.8713 6.07509 75.875 6.1125L73.1675 8.82H73.0475L71.75 7.5C71.75 7.20163 71.6315 6.91548 71.4205 6.7045C71.2095 6.49353 70.9234 6.375 70.625 6.375C70.3266 6.375 70.0405 6.49353 69.8295 6.7045C69.6185 6.91548 69.5 7.20163 69.5 7.5L67.25 9.75C66.9516 9.75 66.6655 9.86853 66.4545 10.0795C66.2435 10.2905 66.125 10.5766 66.125 10.875C66.125 11.1734 66.2435 11.4595 66.4545 11.6705C66.6655 11.8815 66.9516 12 67.25 12V12ZM77.375 15H64.625V2.25C64.625 2.05109 64.546 1.86032 64.4053 1.71967C64.2647 1.57902 64.0739 1.5 63.875 1.5C63.6761 1.5 63.4853 1.57902 63.3447 1.71967C63.204 1.86032 63.125 2.05109 63.125 2.25V15.75C63.125 15.9489 63.204 16.1397 63.3447 16.2803C63.4853 16.421 63.6761 16.5 63.875 16.5H77.375C77.5739 16.5 77.7647 16.421 77.9053 16.2803C78.046 16.1397 78.125 15.9489 78.125 15.75C78.125 15.5511 78.046 15.3603 77.9053 15.2197C77.7647 15.079 77.5739 15 77.375 15Z" fill="#9F93EA"/>
<path d="M97.5 15V12" stroke="#A5A2E1" stroke-width="2" stroke-linecap="round" stroke-linejoin="round"/>
<path d="M102 15V7.5" stroke="#A5A2E1" stroke-width="2" stroke-linecap="round" stroke-linejoin="round"/>
<path d="M106.5 15V3" stroke="#A5A2E1" stroke-width="2" stroke-linecap="round" stroke-linejoin="round"/>
<path d="M133.25 6.75004V7.25004H133.75H136.75C136.816 7.25004 136.88 7.27638 136.927 7.32327C136.974 7.37015 137 7.43374 137 7.50004C137 7.56635 136.974 7.62994 136.927 7.67682C136.88 7.7237 136.816 7.75004 136.75 7.75004H129.25C129.184 7.75004 129.12 7.7237 129.073 7.67682C129.026 7.62994 129 7.56635 129 7.50004C129 7.43374 129.026 7.37015 129.073 7.32327C129.12 7.27638 129.184 7.25004 129.25 7.25004H132.25H132.75V6.75004V4.05754V2.83962L131.894 3.70622L131.303 4.30481C131.256 4.35176 131.192 4.37811 131.125 4.37811C131.058 4.37811 130.994 4.35145 130.946 4.30399C130.899 4.25653 130.872 4.19216 130.872 4.12504C130.872 4.05793 130.899 3.99356 130.946 3.9461L132.816 2.07599C132.839 2.05453 132.866 2.03765 132.896 2.02623L132.896 2.02632L132.905 2.02254C132.966 1.99753 133.034 1.99753 133.095 2.02254L133.095 2.02263L133.104 2.02623C133.134 2.03765 133.161 2.05453 133.184 2.07599L135.054 3.9461L135.054 3.9461L135.055 3.94754C135.079 3.97078 135.097 3.99843 135.11 4.0289C135.123 4.05937 135.129 4.09204 135.129 4.12504C135.129 4.15805 135.123 4.19072 135.11 4.22119C135.097 4.25165 135.079 4.2793 135.055 4.30254L135.055 4.30253L135.053 4.30544C135.029 4.32888 135.002 4.34747 134.971 4.36017C134.941 4.37286 134.908 4.37939 134.875 4.37939C134.842 4.37939 134.809 4.37286 134.779 4.36017C134.749 4.34753 134.721 4.32904 134.698 4.30575C134.698 4.30565 134.698 4.30555 134.697 4.30544L134.106 3.70622L133.25 2.83962V4.05754V6.75004ZM132.75 11.25V10.75H132.25H129.25C129.184 10.75 129.12 10.7237 129.073 10.6768C129.026 10.6299 129 10.5663 129 10.5C129 10.4337 129.026 10.3702 129.073 10.3233C129.12 10.2764 129.184 10.25 129.25 10.25H136.75C136.816 10.25 136.88 10.2764 136.927 10.3233C136.974 10.3702 137 10.4337 137 10.5C137 10.5663 136.974 10.6299 136.927 10.6768C136.88 10.7237 136.816 10.75 136.75 10.75H133.75H133.25V11.25V13.9425V15.1605L134.106 14.2939L134.696 13.6961C134.696 13.6958 134.697 13.6956 134.697 13.6953C134.744 13.6483 134.808 13.622 134.875 13.622C134.942 13.622 135.006 13.6486 135.054 13.6961C135.101 13.7436 135.128 13.8079 135.128 13.875C135.128 13.9422 135.101 14.0065 135.054 14.054L133.184 15.9241C133.161 15.9456 133.134 15.9624 133.104 15.9739L133.093 15.978L133.083 15.9827C133.057 15.9943 133.029 16.0002 133 16.0002C132.971 16.0002 132.943 15.9943 132.917 15.9827L132.907 15.978L132.896 15.9739C132.866 15.9624 132.839 15.9456 132.816 15.9241L130.946 14.054C130.923 14.0305 130.904 14.0026 130.891 13.9719C130.878 13.9412 130.872 13.9083 130.872 13.875C130.872 13.8418 130.878 13.8089 130.891 13.7782C130.904 13.7475 130.923 13.7196 130.946 13.6961C130.97 13.6726 130.997 13.654 131.028 13.6412C131.059 13.6285 131.092 13.622 131.125 13.622C131.158 13.622 131.191 13.6285 131.222 13.6412C131.252 13.6538 131.28 13.6722 131.303 13.6953C131.303 13.6955 131.304 13.6958 131.304 13.6961L131.894 14.2939L132.75 15.1605V13.9425V11.25Z" fill="#9F93EA" stroke="#A5A2E1"/>
</svg>
