<svg width="500" height="421" viewBox="0 0 500 421" fill="none" xmlns="http://www.w3.org/2000/svg">
<path d="M29.236 58.228C32.516 58.228 35.66 58.792 38.608 59.792C45.4 50.872 55.364 44.528 66.844 42.456C78.64 17.392 104.048 0 133.584 0C163.056 0 188.42 17.32 200.244 42.296C202.576 41.932 204.948 41.684 207.38 41.684C232.66 41.684 253.152 62.176 253.152 87.456C253.152 112.736 232.66 133.228 207.38 133.228C199.056 133.228 191.272 130.972 184.544 127.084C171.292 139.76 153.368 147.588 133.58 147.588C116.168 147.588 100.196 141.52 87.572 131.436C83.576 132.576 79.372 133.224 75.008 133.224C60.14 133.224 46.968 126.104 38.604 115.12C35.66 116.116 32.516 116.684 29.232 116.684C13.088 116.684 0 103.596 0 87.452C0.008 71.316 13.092 58.228 29.236 58.228V58.228Z" fill="url(#paint0_linear_459_239)"/>
<path d="M133.639 377.136C131.763 377.136 129.987 377.496 128.275 378.008C126.119 373.844 122.999 370.268 119.211 367.56C117.731 351.628 104.339 339.152 88.0187 339.152C71.3147 339.152 57.6987 352.232 56.7667 368.708C43.6067 369.68 33.2227 380.64 33.2227 394.048C33.2227 408.096 44.6107 419.484 58.6587 419.484C66.8987 419.484 74.2027 415.548 78.8507 409.472C84.2347 416.44 92.6507 420.948 102.139 420.948C110.563 420.948 118.143 417.388 123.507 411.716C126.435 413.6 129.899 414.724 133.639 414.724C144.019 414.724 152.431 406.308 152.431 395.932C152.431 385.548 144.015 377.136 133.639 377.136V377.136Z" fill="url(#paint1_linear_459_239)"/>
<path d="M476.752 323.848C474.188 323.848 471.764 324.356 469.464 325.12C464.144 318.228 456.316 313.324 447.292 311.724C438.052 292.456 418.148 279.088 395.012 279.088C371.924 279.088 352.056 292.4 342.792 311.6C340.968 311.32 339.108 311.132 337.2 311.132C317.396 311.132 301.344 326.884 301.344 346.316C301.344 365.748 317.396 381.5 337.2 381.5C343.724 381.5 349.82 379.764 355.088 376.78C365.468 386.524 379.512 392.544 395.012 392.544C408.652 392.544 421.164 387.88 431.052 380.128C434.184 381.004 437.476 381.504 440.892 381.504C452.572 381.504 462.916 376 469.46 367.52C471.76 368.284 474.184 368.792 476.748 368.792C489.396 368.792 499.648 358.732 499.648 346.324C499.648 333.908 489.396 323.848 476.752 323.848V323.848Z" fill="url(#paint2_linear_459_239)"/>
<defs>
<linearGradient id="paint0_linear_459_239" x1="126.576" y1="0" x2="126.576" y2="147.588" gradientUnits="userSpaceOnUse">
<stop stop-color="#ADD8FF"/>
<stop offset="1" stop-color="#D5ECF8" stop-opacity="0"/>
</linearGradient>
<linearGradient id="paint1_linear_459_239" x1="92.8267" y1="339.152" x2="92.8267" y2="420.948" gradientUnits="userSpaceOnUse">
<stop stop-color="#ADBAFF"/>
<stop offset="1" stop-color="#9CEAEF" stop-opacity="0"/>
</linearGradient>
<linearGradient id="paint2_linear_459_239" x1="400.496" y1="279.088" x2="400.496" y2="392.544" gradientUnits="userSpaceOnUse">
<stop stop-color="#ADE1FF"/>
<stop offset="1" stop-color="#D2E1F7" stop-opacity="0"/>
</linearGradient>
</defs>
</svg>
