<svg width="96" height="96" viewBox="0 0 96 96" fill="none" xmlns="http://www.w3.org/2000/svg">
<g clip-path="url(#clip0_236_417)">
<path fill-rule="evenodd" clip-rule="evenodd" d="M56.7855 0.439453H7.21444C3.24656 0.439453 0 3.68583 0 7.65389V41.3531C0 45.321 3.24656 48.5675 7.21444 48.5675H12.672V62.5342C12.672 62.9396 12.9056 63.2857 13.2818 63.437C13.6579 63.5885 14.0661 63.501 14.3471 63.2087L28.4198 48.5675H56.7855C60.7536 48.5675 64 45.321 64 41.3531V7.65389C64 3.68583 60.7536 0.439453 56.7855 0.439453Z" fill="#FFD944"/>
<path fill-rule="evenodd" clip-rule="evenodd" d="M56.7856 0.439453H32V48.5675H56.7856C60.7535 48.5675 64.0001 45.321 64.0001 41.3531V7.65389C64.0003 3.68583 60.7537 0.439453 56.7856 0.439453Z" fill="#FFC107"/>
<path fill-rule="evenodd" clip-rule="evenodd" d="M19.7287 36.6519C21.1357 36.6519 22.2765 37.7927 22.2765 39.1997C22.2765 40.6068 21.1357 41.7476 19.7287 41.7476C18.3216 41.7476 17.1808 40.6068 17.1808 39.1997C17.181 37.7925 18.3216 36.6519 19.7287 36.6519ZM12.8882 17.7454C12.8882 18.6054 12.1909 19.3027 11.3308 19.3027C10.4707 19.3027 9.77344 18.6054 9.77344 17.7454C9.77344 14.9964 10.8877 12.5075 12.6894 10.706C14.4909 8.90435 16.98 7.79004 19.7289 7.79004C22.4779 7.79004 24.9668 8.90435 26.7682 10.706C28.5699 12.5075 29.6842 14.9964 29.6842 17.7454C29.6842 19.7032 29.1173 21.531 28.1381 23.0734C27.1301 24.6613 25.6817 25.9449 23.9638 26.7534C23.1217 27.1498 22.4503 27.7421 21.9919 28.4647C21.5355 29.184 21.2863 30.0433 21.2863 30.9765V32.6602C21.2863 33.5203 20.589 34.2176 19.7289 34.2176C18.8689 34.2176 18.1716 33.5203 18.1716 32.6602V30.9765C18.1716 29.4433 18.5925 28.0134 19.3639 26.7979C20.1332 25.5855 21.2481 24.5968 22.6378 23.9428C23.8176 23.3876 24.8141 22.503 25.5101 21.4067C26.181 20.3499 26.5695 19.094 26.5695 17.7455C26.5695 15.8565 25.8037 14.1463 24.5661 12.9084C23.3284 11.6707 21.6182 10.905 19.7291 10.905C17.8401 10.905 16.1299 11.6707 14.892 12.9084C13.6541 14.1461 12.8882 15.8565 12.8882 17.7454ZM41.0051 14.3737C40.1451 14.3737 39.4477 13.6764 39.4477 12.8164C39.4477 11.9563 40.1451 11.259 41.0051 11.259H52.8028C53.6629 11.259 54.3602 11.9563 54.3602 12.8164C54.3602 13.6764 53.6629 14.3737 52.8028 14.3737H41.0051ZM41.0051 23.9164C40.1451 23.9164 39.4477 23.219 39.4477 22.359C39.4477 21.4989 40.1451 20.8016 41.0051 20.8016H52.8028C53.6629 20.8016 54.3602 21.4989 54.3602 22.359C54.3602 23.219 53.6629 23.9164 52.8028 23.9164H41.0051Z" fill="#F7F9FA"/>
<path fill-rule="evenodd" clip-rule="evenodd" d="M39.2144 32.4893H88.7855C92.7536 32.4893 96 35.7356 96 39.7037V73.4029C96 77.3708 92.7536 80.6173 88.7855 80.6173H83.3279V94.584C83.3279 94.9894 83.0943 95.3355 82.7182 95.4868C82.3421 95.6383 81.9339 95.5508 81.6528 95.2584L67.58 80.6173H39.2144C35.2466 80.6173 32 77.3708 32 73.4029V39.7037C32 35.7356 35.2464 32.4893 39.2144 32.4893Z" fill="#00DDC1"/>
<path fill-rule="evenodd" clip-rule="evenodd" d="M64.0002 32.4893H88.7856C92.7537 32.4893 96.0001 35.7356 96.0001 39.7037V73.4029C96.0001 77.3708 92.7537 80.6173 88.7856 80.6173H83.3281V94.584C83.3281 94.9894 83.0944 95.3355 82.7183 95.4868C82.3422 95.6383 81.934 95.5508 81.6529 95.2585L67.5801 80.6173H64V32.4893H64.0002Z" fill="#00BAA0"/>
<path fill-rule="evenodd" clip-rule="evenodd" d="M48.7839 48.5679C47.9239 48.5679 47.2266 47.8706 47.2266 47.0105C47.2266 46.1504 47.9239 45.4531 48.7839 45.4531H79.2127C80.0728 45.4531 80.7701 46.1504 80.7701 47.0105C80.7701 47.8706 80.0728 48.5679 79.2127 48.5679H48.7839ZM48.7839 67.6533C47.9239 67.6533 47.2266 66.956 47.2266 66.0959C47.2266 65.2359 47.9239 64.5386 48.7839 64.5386H79.2127C80.0728 64.5386 80.7701 65.2359 80.7701 66.0959C80.7701 66.956 80.0728 67.6533 79.2127 67.6533H48.7839ZM48.7839 58.1105C47.9239 58.1105 47.2266 57.4132 47.2266 56.5531C47.2266 55.6931 47.9239 54.9957 48.7839 54.9957H79.2127C80.0728 54.9957 80.7701 55.6931 80.7701 56.5531C80.7701 57.4132 80.0728 58.1105 79.2127 58.1105H48.7839Z" fill="#F7F9FA"/>
</g>
<defs>
<clipPath id="clip0_236_417">
<rect width="96" height="96" fill="white"/>
</clipPath>
</defs>
</svg>
