<svg width="96" height="96" viewBox="0 0 96 96" fill="none" xmlns="http://www.w3.org/2000/svg">
<path d="M0 25.0262V58.1578H10.5199C11.8057 58.1578 12.6988 56.8969 12.2931 55.6766C12.0259 54.873 11.8989 54.0054 11.9419 53.1024C12.1159 49.4447 15.1318 46.4889 18.7922 46.3841C22.7893 46.2696 26.0657 49.4758 26.0657 53.4471C26.0657 54.2383 25.9354 54.9992 25.6954 55.7092C25.2881 56.9136 26.2086 58.1576 27.4798 58.1576H37.8424V47.7949C37.8424 46.509 39.1033 45.6159 40.3236 46.0217C41.1272 46.2889 41.9947 46.4158 42.8978 46.3729C46.5555 46.1989 49.5112 43.1829 49.6161 39.5226C49.7306 35.5254 46.5244 32.2491 42.5531 32.2491C41.7619 32.2491 41.001 32.3794 40.2909 32.6194C39.0866 33.0266 37.8426 32.1062 37.8426 30.8349V20.3154H4.71075C2.109 20.3156 0 22.4246 0 25.0262H0Z" fill="#5AE1EA"/>
<path d="M11.9419 53.1025C11.8989 54.0055 12.0257 54.873 12.2931 55.6766C12.6988 56.8967 11.8057 58.1578 10.5199 58.1578H0V91.2895C0 93.8912 2.109 96.0002 4.71075 96.0002H37.8424V85.4803C37.8424 84.1945 36.5814 83.3014 35.3612 83.7071C34.5576 83.9743 33.69 84.1013 32.787 84.0583C29.1292 83.8843 26.1735 80.8684 26.0687 77.208C25.9541 73.2109 29.1604 69.9345 33.1316 69.9345C33.9229 69.9345 34.6837 70.0648 35.3938 70.3048C36.5981 70.7121 37.8422 69.7916 37.8422 68.5204V58.1578H27.4796C26.2084 58.1578 25.2879 56.9138 25.6952 55.7094C25.9354 54.9992 26.0655 54.2385 26.0655 53.4473C26.0655 49.4758 22.7893 46.2698 18.792 46.3843C15.1318 46.489 12.1159 49.4447 11.9419 53.1025Z" fill="#FFF05F"/>
<path d="M60.6374 12.2931C61.4411 12.0259 62.3088 11.8989 63.2116 11.9419C66.8694 12.1159 69.8251 15.1318 69.9299 18.7922C70.0445 22.7893 66.8382 26.0657 62.867 26.0657C62.0757 26.0657 61.3149 25.9354 60.6048 25.6954C59.4005 25.2881 58.1564 26.2086 58.1564 27.4798V37.8424H68.5192C69.8051 37.8424 70.6981 39.1033 70.2924 40.3236C70.0252 41.1272 69.8982 41.9949 69.9412 42.8978C70.1152 46.5555 73.1311 49.5112 76.7915 49.6161C80.7886 49.7306 84.065 46.5244 84.065 42.5531C84.065 41.7619 83.9347 41.001 83.6947 40.2909C83.2874 39.0866 84.2079 37.8426 85.4791 37.8426H95.9986V4.71094C95.9986 2.109 93.8894 0 91.2879 0H58.1562V10.5199C58.1562 11.8057 59.4172 12.699 60.6374 12.2931Z" fill="#648CFF"/>
<path d="M32.7859 84.0582C29.1282 83.884 26.1724 80.8679 26.0678 77.2075C25.9534 73.2106 29.1597 69.9344 33.1307 69.9344C33.922 69.9344 34.6828 70.0647 35.3931 70.3047C36.5974 70.712 37.8415 69.7915 37.8415 68.5203V58.1577L1.37891 94.6205C2.23128 95.4728 3.40897 96.0001 4.70984 96.0001H37.8415V85.4802C37.8415 84.1943 36.5805 83.3013 35.3603 83.707C34.5567 83.9744 33.6889 84.1012 32.7859 84.0582Z" fill="#FFD737"/>
<path d="M94.6188 1.37988L58.1562 37.8424H68.519C69.8049 37.8424 70.6979 39.1034 70.2922 40.3236C70.0248 41.1273 69.8981 41.995 69.941 42.898C70.1152 46.5558 73.1313 49.5115 76.7917 49.6161C80.7886 49.7303 84.0646 46.5243 84.0646 42.553C84.0646 41.7618 83.9343 41.0009 83.6943 40.2908C83.2871 39.0865 84.2075 37.8424 85.4788 37.8424H95.9982V4.71082C95.9986 3.40994 95.4714 2.23226 94.6188 1.37988Z" fill="#506EF0"/>
<path d="M49.6278 63.2131C49.5849 62.3101 49.7116 61.4425 49.979 60.6389C50.3848 59.4188 49.4917 58.1577 48.2058 58.1577H37.8431V68.5205C37.8431 69.8063 36.5821 70.6994 35.3619 70.2936C34.5583 70.0265 33.6907 69.8995 32.7877 69.9425C29.1299 70.1165 26.1742 73.1324 26.0694 76.7928C25.9548 80.7899 29.1611 84.0663 33.1323 84.0663C33.9236 84.0663 34.6844 83.936 35.3945 83.696C36.5988 83.2887 37.8429 84.2091 37.8429 85.4804V95.9999H70.9745C73.5761 95.9999 75.6852 93.8909 75.6852 91.2891V58.1577H65.1658C63.8945 58.1577 62.9741 59.4018 63.3813 60.6061C63.6215 61.3163 63.7516 62.077 63.7516 62.8683C63.7516 66.8397 60.4754 70.0458 56.4781 69.9312C52.8178 69.8266 49.8018 66.8708 49.6278 63.2131Z" fill="#FA3226"/>
</svg>
