<svg width="24" height="25" viewBox="0 0 24 25" fill="none" xmlns="http://www.w3.org/2000/svg">
<path d="M21.71 20.93L18 17.25C19.4401 15.4545 20.1375 13.1753 19.9488 10.8813C19.7601 8.58734 18.6997 6.45282 16.9855 4.91669C15.2714 3.38055 13.0338 2.55955 10.7329 2.62251C8.43203 2.68547 6.24272 3.6276 4.61514 5.25518C2.98756 6.88276 2.04543 9.07208 1.98247 11.373C1.91951 13.6738 2.7405 15.9114 4.27664 17.6256C5.81278 19.3397 7.9473 20.4002 10.2413 20.5889C12.5353 20.7775 14.8144 20.0801 16.61 18.64L20.29 22.32C20.383 22.4138 20.4936 22.4882 20.6154 22.5389C20.7373 22.5897 20.868 22.6158 21 22.6158C21.132 22.6158 21.2627 22.5897 21.3846 22.5389C21.5064 22.4882 21.617 22.4138 21.71 22.32C21.8902 22.1336 21.991 21.8844 21.991 21.625C21.991 21.3657 21.8902 21.1165 21.71 20.93ZM11 18.64C9.61553 18.64 8.26215 18.2295 7.111 17.4603C5.95986 16.6912 5.06265 15.5979 4.53284 14.3188C4.00303 13.0397 3.8644 11.6323 4.1345 10.2744C4.4046 8.91654 5.07128 7.66926 6.05025 6.69029C7.02922 5.71133 8.2765 5.04464 9.63436 4.77454C10.9922 4.50445 12.3997 4.64307 13.6788 5.17288C14.9579 5.7027 16.0511 6.59991 16.8203 7.75105C17.5895 8.90219 18 10.2556 18 11.64C18 13.4966 17.2625 15.277 15.9497 16.5898C14.637 17.9025 12.8565 18.64 11 18.64Z" fill="white"/>
</svg>
