<svg width="116" height="25" viewBox="0 0 116 25" fill="none" xmlns="http://www.w3.org/2000/svg">
<path d="M8.83984 6.96094V21H5.16016V6.96094H0.964844V3.84375H13.0586V6.96094H8.83984Z" fill="white"/>
<path d="M14.9805 4.78125C14.9805 4.25 15.1719 3.79297 15.5547 3.41016C15.9375 3.02734 16.3945 2.83594 16.9258 2.83594C17.4648 2.83594 17.9258 3.02734 18.3086 3.41016C18.6992 3.78516 18.8945 4.24219 18.8945 4.78125C18.8945 5.32031 18.6992 5.78125 18.3086 6.16406C17.9258 6.54688 17.4648 6.73828 16.9258 6.73828C16.3945 6.73828 15.9375 6.54297 15.5547 6.15234C15.1719 5.76172 14.9805 5.30469 14.9805 4.78125ZM15.2734 21V9.50391H18.6016V21H15.2734Z" fill="white"/>
<path d="M21.9883 2.83594H25.3281V14.5898L29.5938 9.50391H33.6016L28.9727 14.5898L34.0586 21H29.9336L25.3281 14.9062V21H21.9883V2.83594Z" fill="white"/>
<path d="M34.75 18.8203L36.7891 16.5117C37.0469 17.1445 37.4609 17.6445 38.0312 18.0117C38.6016 18.3711 39.2422 18.5508 39.9531 18.5508C40.8125 18.5508 41.4922 18.3477 41.9922 17.9414C42.4922 17.5352 42.7422 16.9883 42.7422 16.3008C42.7422 15.4883 41.9102 14.6797 40.2461 13.875C39.707 13.6172 39.2812 13.4062 38.9688 13.2422C37.4688 12.4609 36.4297 11.6992 35.8516 10.957C35.2734 10.207 34.9844 9.31641 34.9844 8.28516C34.9844 6.87109 35.543 5.71094 36.6602 4.80469C37.7852 3.89062 39.2422 3.43359 41.0312 3.43359C42.0703 3.43359 42.9648 3.61719 43.7148 3.98438C44.4727 4.34375 45.1406 4.91016 45.7188 5.68359L43.5508 7.75781C43.293 7.25781 42.9492 6.88672 42.5195 6.64453C42.0977 6.39453 41.5859 6.26953 40.9844 6.26953C40.2578 6.26953 39.6719 6.45312 39.2266 6.82031C38.7812 7.17969 38.5586 7.64844 38.5586 8.22656C38.5586 9.13281 39.4414 9.96094 41.207 10.7109C41.5586 10.8594 41.8281 10.9766 42.0156 11.0625C43.4688 11.7266 44.543 12.4766 45.2383 13.3125C45.9414 14.1484 46.293 15.1016 46.293 16.1719C46.293 17.7812 45.7422 19.0664 44.6406 20.0273C43.5469 20.9805 42.0742 21.457 40.2227 21.457C38.9102 21.457 37.7852 21.2305 36.8477 20.7773C35.9102 20.3242 35.2109 19.6719 34.75 18.8203Z" fill="url(#paint0_linear_401_164)"/>
<path d="M49.4219 21V12.1172H47.8164V9.50391H49.4219V5.68359H52.7617V9.50391H54.3672V12.1172H52.7617V21H49.4219Z" fill="url(#paint1_linear_401_164)"/>
<path d="M65.1367 15.2695C65.1367 14.332 64.8633 13.5859 64.3164 13.0312C63.7695 12.4688 63.0352 12.1875 62.1133 12.1875C61.1914 12.1875 60.4609 12.4648 59.9219 13.0195C59.3828 13.5742 59.1133 14.3242 59.1133 15.2695C59.1133 16.207 59.3828 16.957 59.9219 17.5195C60.4609 18.082 61.1914 18.3633 62.1133 18.3633C63.0273 18.3633 63.7578 18.082 64.3047 17.5195C64.8594 16.957 65.1367 16.207 65.1367 15.2695ZM68.5352 15.293C68.5352 17.0586 67.9297 18.5273 66.7188 19.6992C65.5156 20.8711 63.9883 21.457 62.1367 21.457C60.2695 21.457 58.7305 20.8711 57.5195 19.6992C56.3086 18.5273 55.7031 17.0586 55.7031 15.293C55.7031 13.5352 56.3125 12.0664 57.5312 10.8867C58.75 9.70703 60.2852 9.11719 62.1367 9.11719C63.9961 9.11719 65.5273 9.69922 66.7305 10.8633C67.9336 12.0273 68.5352 13.5039 68.5352 15.293Z" fill="url(#paint2_linear_401_164)"/>
<path d="M79.5391 20.6602C79.0859 20.9336 78.6094 21.1328 78.1094 21.2578C77.6094 21.3906 77.0625 21.457 76.4688 21.457C74.6562 21.457 73.1797 20.8828 72.0391 19.7344C70.8984 18.5781 70.3281 17.0781 70.3281 15.2344C70.3281 13.4297 70.9023 11.9609 72.0508 10.8281C73.1992 9.6875 74.6875 9.11719 76.5156 9.11719C77.125 9.11719 77.6719 9.17578 78.1562 9.29297C78.6406 9.41016 79.1016 9.59375 79.5391 9.84375L79.5156 13.1953C79.1641 12.8359 78.7578 12.5586 78.2969 12.3633C77.8359 12.168 77.3477 12.0703 76.832 12.0703C75.8945 12.0703 75.1445 12.3594 74.582 12.9375C74.0195 13.5078 73.7383 14.2656 73.7383 15.2109C73.7383 16.1797 74.0234 16.9531 74.5938 17.5312C75.1719 18.1016 75.9492 18.3867 76.9258 18.3867C77.4648 18.3867 77.9414 18.2891 78.3555 18.0938C78.7773 17.8984 79.1641 17.5938 79.5156 17.1797L79.5391 20.6602Z" fill="url(#paint3_linear_401_164)"/>
<path d="M82.0586 2.83594H85.3984V14.5898L89.6641 9.50391H93.6719L89.043 14.5898L94.1289 21H90.0039L85.3984 14.9062V21H82.0586V2.83594Z" fill="url(#paint4_linear_401_164)"/>
<path d="M97.2502 15.6248C96.9739 15.6248 96.7089 15.7346 96.5136 15.9299C96.3182 16.1253 96.2085 16.3902 96.2085 16.6665V19.7915C96.2085 20.0678 96.3182 20.3327 96.5136 20.5281C96.7089 20.7234 96.9739 20.8332 97.2502 20.8332C97.5264 20.8332 97.7914 20.7234 97.9867 20.5281C98.1821 20.3327 98.2918 20.0678 98.2918 19.7915V16.6665C98.2918 16.3902 98.1821 16.1253 97.9867 15.9299C97.7914 15.7346 97.5264 15.6248 97.2502 15.6248ZM101.417 12.4998C101.141 12.4998 100.876 12.6096 100.68 12.8049C100.485 13.0003 100.375 13.2652 100.375 13.5415V19.7915C100.375 20.0678 100.485 20.3327 100.68 20.5281C100.876 20.7234 101.141 20.8332 101.417 20.8332C101.693 20.8332 101.958 20.7234 102.153 20.5281C102.349 20.3327 102.458 20.0678 102.458 19.7915V13.5415C102.458 13.2652 102.349 13.0003 102.153 12.8049C101.958 12.6096 101.693 12.4998 101.417 12.4998ZM109.75 4.1665C109.474 4.1665 109.209 4.27625 109.014 4.4716C108.818 4.66695 108.708 4.9319 108.708 5.20817V19.7915C108.708 20.0678 108.818 20.3327 109.014 20.5281C109.209 20.7234 109.474 20.8332 109.75 20.8332C110.026 20.8332 110.291 20.7234 110.487 20.5281C110.682 20.3327 110.792 20.0678 110.792 19.7915V5.20817C110.792 4.9319 110.682 4.66695 110.487 4.4716C110.291 4.27625 110.026 4.1665 109.75 4.1665V4.1665ZM105.583 8.33317C105.307 8.33317 105.042 8.44292 104.847 8.63827C104.652 8.83362 104.542 9.09857 104.542 9.37484V19.7915C104.542 20.0678 104.652 20.3327 104.847 20.5281C105.042 20.7234 105.307 20.8332 105.583 20.8332C105.86 20.8332 106.125 20.7234 106.32 20.5281C106.515 20.3327 106.625 20.0678 106.625 19.7915V9.37484C106.625 9.09857 106.515 8.83362 106.32 8.63827C106.125 8.44292 105.86 8.33317 105.583 8.33317Z" fill="white"/>
<defs>
<linearGradient id="paint0_linear_401_164" x1="40" y1="6.49999" x2="90.5" y2="26" gradientUnits="userSpaceOnUse">
<stop stop-color="#5AE9F2"/>
<stop offset="1" stop-color="#B67DFF"/>
</linearGradient>
<linearGradient id="paint1_linear_401_164" x1="40" y1="6.49999" x2="90.5" y2="26" gradientUnits="userSpaceOnUse">
<stop stop-color="#5AE9F2"/>
<stop offset="1" stop-color="#B67DFF"/>
</linearGradient>
<linearGradient id="paint2_linear_401_164" x1="40" y1="6.49999" x2="90.5" y2="26" gradientUnits="userSpaceOnUse">
<stop stop-color="#5AE9F2"/>
<stop offset="1" stop-color="#B67DFF"/>
</linearGradient>
<linearGradient id="paint3_linear_401_164" x1="40" y1="6.49999" x2="90.5" y2="26" gradientUnits="userSpaceOnUse">
<stop stop-color="#5AE9F2"/>
<stop offset="1" stop-color="#B67DFF"/>
</linearGradient>
<linearGradient id="paint4_linear_401_164" x1="40" y1="6.49999" x2="90.5" y2="26" gradientUnits="userSpaceOnUse">
<stop stop-color="#5AE9F2"/>
<stop offset="1" stop-color="#B67DFF"/>
</linearGradient>
</defs>
</svg>
