<svg width="76" height="76" viewBox="0 0 76 76" fill="none" xmlns="http://www.w3.org/2000/svg">
<g clip-path="url(#clip0_61_1607)">
<path d="M73.2191 34.7315L63.7191 26.419C63.5474 26.2689 63.3361 26.1714 63.1105 26.1382C62.8849 26.1049 62.6545 26.1374 62.4468 26.2316C62.2392 26.3258 62.063 26.4779 61.9394 26.6695C61.8159 26.8612 61.7501 27.0844 61.75 27.3125V41.515C61.7501 41.7266 61.8068 41.9343 61.9141 42.1167C62.0214 42.2991 62.1754 42.4495 62.3603 42.5524C62.5452 42.6553 62.7543 42.707 62.9658 42.7021C63.1774 42.6971 63.3838 42.6358 63.5637 42.5243L73.0637 36.6343C73.2216 36.5366 73.3543 36.4031 73.4512 36.2446C73.5481 36.0862 73.6065 35.9072 73.6216 35.7221C73.6367 35.537 73.6082 35.3509 73.5383 35.1788C73.4684 35.0068 73.359 34.8535 73.2191 34.7314V34.7315Z" fill="#376CFB"/>
<path d="M13.553 26.2312C13.3454 26.1367 13.1149 26.1041 12.8892 26.1375C12.6636 26.1708 12.4523 26.2686 12.2809 26.4191L2.78086 34.7316C2.64095 34.8537 2.53165 35.007 2.46176 35.179C2.39186 35.3511 2.36333 35.5371 2.37845 35.7222C2.39357 35.9073 2.45192 36.0863 2.54882 36.2447C2.64571 36.4032 2.77843 36.5366 2.93631 36.6344L12.4363 42.5244C12.6162 42.6358 12.8226 42.6971 13.0341 42.702C13.2457 42.707 13.4547 42.6553 13.6396 42.5524C13.8245 42.4495 13.9785 42.2991 14.0858 42.1167C14.1932 41.9344 14.2498 41.7267 14.25 41.5151V27.3126C14.25 27.0844 14.1842 26.8611 14.0606 26.6693C13.937 26.4776 13.7608 26.3255 13.553 26.2312Z" fill="#376CFB"/>
<path d="M62.9375 0H13.0625C12.7476 0 12.4455 0.125111 12.2228 0.347811C12.0001 0.57051 11.875 0.872555 11.875 1.1875V41.5269C11.8749 41.729 11.9265 41.9278 12.0247 42.1044C12.1229 42.281 12.2646 42.4297 12.4363 42.5363L29.9995 53.4256C30.2109 53.5567 30.4583 53.6181 30.7065 53.601C30.9547 53.584 31.1913 53.4894 31.3829 53.3306L38 47.8542L44.6171 53.3313C44.8088 53.4899 45.0454 53.5843 45.2935 53.6013C45.5417 53.6184 45.789 53.5572 46.0005 53.4263L63.5637 42.537C63.7355 42.4303 63.8773 42.2816 63.9755 42.1048C64.0737 41.928 64.1252 41.7291 64.125 41.5269V1.1875C64.125 0.872555 63.9999 0.57051 63.7772 0.347811C63.5545 0.125111 63.2524 0 62.9375 0V0Z" fill="#E6ECFF"/>
<path d="M73.015 34.5877C72.8301 34.4845 72.621 34.4327 72.4094 34.4376C72.1977 34.4425 71.9912 34.5039 71.8113 34.6154L62.3113 40.5054C62.2688 40.5319 62.2281 40.5611 62.1895 40.593L45.474 50.9575L38.7573 45.3981C38.5442 45.2221 38.2764 45.1258 38 45.1258C37.7236 45.1258 37.4558 45.2221 37.2427 45.3981L30.526 50.9581L13.8128 40.5947C13.7733 40.5624 13.7319 40.5326 13.6887 40.5054L4.18867 34.6154C4.00875 34.5041 3.80235 34.4427 3.5908 34.4378C3.37925 34.4329 3.17023 34.4846 2.98533 34.5875C2.80044 34.6904 2.64638 34.8408 2.53908 35.0232C2.43178 35.2056 2.37514 35.4133 2.375 35.6249V74.8124C2.375 75.1274 2.50011 75.4294 2.72281 75.6521C2.94551 75.8748 3.24756 75.9999 3.5625 75.9999H72.4375C72.7524 75.9999 73.0545 75.8748 73.2772 75.6521C73.4999 75.4294 73.625 75.1274 73.625 74.8124V35.6249C73.6251 35.4133 73.5686 35.2056 73.4613 35.0232C73.3541 34.8408 73.2 34.6904 73.015 34.5877Z" fill="#4294FF"/>
<path d="M30.5246 50.9567L2.375 74.2498V74.8125C2.375 75.1274 2.50011 75.4295 2.72281 75.6522C2.94551 75.8749 3.24756 76 3.5625 76H72.4375C72.7524 76 73.0545 75.8749 73.2772 75.6522C73.4999 75.4295 73.625 75.1274 73.625 74.8125V74.25L45.4754 50.9567L45.474 50.9575L38.7573 45.3981C38.5442 45.2221 38.2764 45.1259 38 45.1259C37.7236 45.1259 37.4558 45.2221 37.2427 45.3981L30.526 50.9581L30.5246 50.9567Z" fill="#376CFB"/>
<path d="M33.9773 34.4514C33.6898 34.4513 33.4122 34.347 33.1958 34.1578C32.9794 33.9686 32.839 33.7073 32.8007 33.4224C32.7623 33.1375 32.8286 32.8484 32.9871 32.6087C33.1457 32.369 33.3859 32.1949 33.6631 32.1188L34.8285 31.7981C35.2977 31.669 35.6964 31.3587 35.9369 30.9356C36.1774 30.5125 36.24 30.0112 36.111 29.5419L35.8431 28.5712C35.7637 28.2691 35.8066 27.9479 35.9624 27.6772C36.1182 27.4064 36.3744 27.208 36.6755 27.1249C36.9766 27.0417 37.2984 27.0806 37.571 27.233C37.8437 27.3854 38.0453 27.6391 38.1322 27.9391L38.4001 28.9104C38.5471 29.4434 38.5877 30.0002 38.5194 30.549C38.4512 31.0977 38.2755 31.6276 38.0024 32.1084C37.7293 32.5892 37.3641 33.0115 36.9278 33.3512C36.4914 33.6908 35.9924 33.9411 35.4593 34.0879L34.2938 34.4085C34.1907 34.4371 34.0842 34.4516 33.9773 34.4514Z" fill="#2946ED"/>
<path d="M37.8098 38.236L33.1919 29.0582C33.0681 28.8133 32.8634 28.6187 32.6125 28.5074C32.3616 28.3962 32.08 28.3751 31.8153 28.4477L28.9023 29.2495C28.0211 29.4973 27.0933 29.5304 26.1967 29.3458C25.978 29.3006 25.7511 29.3179 25.5418 29.3958C25.3326 29.4737 25.1495 29.609 25.0136 29.7862C24.8778 29.9634 24.7947 30.1753 24.7738 30.3976C24.7529 30.6199 24.7951 30.8436 24.8956 31.043L29.8601 40.9094C29.9836 41.1547 30.1883 41.3495 30.4392 41.4609C30.6902 41.5722 30.972 41.5931 31.2367 41.5201L37.064 39.915C37.2334 39.8684 37.3903 39.7848 37.5235 39.6701C37.6567 39.5555 37.7627 39.4128 37.8341 39.2522C37.9054 39.0916 37.9402 38.9172 37.936 38.7415C37.9317 38.5659 37.8886 38.3933 37.8096 38.2364L37.8098 38.236Z" fill="#376CFB"/>
<path d="M41.0462 27.1364L37.3005 13.5387C37.2594 13.3881 37.1889 13.2472 37.0932 13.1239C36.9974 13.0006 36.8783 12.8975 36.7425 12.8204C36.6068 12.7434 36.4572 12.6939 36.3023 12.6749C36.1473 12.6558 35.9902 12.6676 35.8398 12.7095L25.1559 15.6522C24.1127 15.9396 23.1363 16.4297 22.2825 17.0944C21.4286 17.7592 20.7141 18.5856 20.1797 19.5265C19.6452 20.4674 19.3013 21.5043 19.1676 22.5781C19.0339 23.6519 19.113 24.7415 19.4004 25.7847C19.6878 26.8279 20.1779 27.8043 20.8426 28.6581C21.5074 29.512 22.3338 30.2265 23.2747 30.7609C24.2156 31.2954 25.2525 31.6393 26.3263 31.773C27.4001 31.9067 28.4897 31.8276 29.5329 31.5402L40.2169 28.5969C40.3673 28.5555 40.508 28.4848 40.6311 28.389C40.7541 28.2932 40.8571 28.1741 40.9341 28.0384C41.0111 27.9028 41.0606 27.7534 41.0798 27.5986C41.0991 27.4438 41.0876 27.2868 41.0462 27.1364Z" fill="#4294FF"/>
<path d="M48.7116 18.8988C48.4241 18.8988 48.1463 18.7945 47.9299 18.6053C47.7134 18.4161 47.5729 18.1547 47.5346 17.8698C47.4962 17.5848 47.5625 17.2957 47.7212 17.0559C47.8798 16.8161 48.1201 16.6421 48.3974 16.566L54.2247 14.9604C54.376 14.9156 54.5348 14.9015 54.6917 14.9188C54.8485 14.936 55.0004 14.9844 55.1383 15.0611C55.2763 15.1377 55.3976 15.2411 55.4952 15.3652C55.5927 15.4892 55.6645 15.6315 55.7065 15.7837C55.7484 15.9358 55.7596 16.0948 55.7393 16.2513C55.7191 16.4078 55.6679 16.5588 55.5886 16.6953C55.5094 16.8318 55.4038 16.9511 55.2779 17.0463C55.152 17.1415 55.0084 17.2106 54.8555 17.2497L49.0282 18.8552C48.9252 18.8841 48.8186 18.8987 48.7116 18.8988Z" fill="#4294FF"/>
<path d="M47.3743 14.0414C47.1418 14.0413 46.9145 13.9731 46.7205 13.845C46.5265 13.717 46.3744 13.5349 46.2829 13.3213C46.1914 13.1076 46.1646 12.8718 46.2059 12.643C46.2471 12.4143 46.3546 12.2027 46.515 12.0345L50.5692 7.78323C50.6761 7.66724 50.8049 7.57368 50.9483 7.50801C51.0916 7.44235 51.2466 7.40589 51.4042 7.40077C51.5618 7.39565 51.7189 7.42197 51.8662 7.4782C52.0135 7.53442 52.1482 7.61942 52.2623 7.72824C52.3764 7.83706 52.4677 7.96752 52.5309 8.112C52.594 8.25648 52.6278 8.4121 52.6301 8.56976C52.6325 8.72743 52.6035 8.88399 52.5447 9.03031C52.4859 9.17663 52.3986 9.30978 52.2878 9.42198L48.2337 13.6732C48.1229 13.7897 47.9896 13.8824 47.8418 13.9457C47.6941 14.009 47.535 14.0415 47.3743 14.0414Z" fill="#4294FF"/>
<path d="M55.7102 25.3308C55.6018 25.3306 55.4939 25.3157 55.3895 25.2866L49.7304 23.7107C49.427 23.626 49.1696 23.4243 49.0149 23.1499C48.8602 22.8755 48.8209 22.5509 48.9055 22.2475C48.9901 21.9441 49.1918 21.6867 49.4662 21.532C49.7406 21.3773 50.0653 21.3379 50.3687 21.4226L56.0278 22.9986C56.3049 23.0752 56.5448 23.2496 56.703 23.4896C56.8612 23.7295 56.9271 24.0187 56.8883 24.3035C56.8495 24.5883 56.7087 24.8494 56.4921 25.0383C56.2754 25.2272 55.9976 25.3311 55.7102 25.3308Z" fill="#4294FF"/>
<path d="M49.1827 30.1201L42.7619 6.80959C42.7039 6.5994 42.5891 6.40926 42.4301 6.26C42.2711 6.11075 42.0741 6.00814 41.8607 5.96345C41.6473 5.91875 41.4256 5.93368 41.2201 6.00661C41.0146 6.07953 40.8332 6.20763 40.6957 6.37687L34.6968 13.0251L39.0732 28.9121L47.6294 31.5509C47.8342 31.6261 48.0559 31.6434 48.2699 31.6009C48.484 31.5583 48.6822 31.4576 48.8427 31.3099C49.0033 31.1621 49.12 30.9729 49.1801 30.7631C49.2402 30.5533 49.2413 30.331 49.1833 30.1206L49.1827 30.1201Z" fill="#376CFB"/>
</g>
<defs>
<clipPath id="clip0_61_1607">
<rect width="76" height="76" fill="white"/>
</clipPath>
</defs>
</svg>
