<svg width="94" height="94" viewBox="0 0 94 94" fill="none" xmlns="http://www.w3.org/2000/svg">
<path d="M7.76748 71.03H86.2334C89.8919 64.523 91.9812 57.0155 91.9812 49.0189C91.9812 24.1767 71.8426 4.03809 47.0004 4.03809C22.1581 4.03809 2.01953 24.1767 2.01953 49.0189C2.01971 57.0155 4.10901 64.5229 7.76748 71.03Z" fill="#FF9100"/>
<path d="M30.223 28.9116H63.8704C63.9301 26.4872 64.3343 20.0703 66.8681 15.4991C67.2204 14.8634 67.2834 14.1081 67.0381 13.4238C66.1187 10.8605 63.3725 4.86797 57.3833 3.2696C57.0642 3.18441 56.9799 2.77169 57.2395 2.56772L58.1371 1.86254C58.5442 1.54272 58.3877 0.893161 57.8795 0.795306C53.4608 -0.0569364 38.7851 -2.0963 34.2264 7.27745C33.9543 7.83686 33.4416 8.23967 32.8394 8.39554C31.5129 8.73886 29.1271 9.77359 27.5721 12.8743C27.2679 13.4807 27.2161 14.1841 27.434 14.8265C28.1899 17.0536 30.0309 23.034 30.223 28.9116Z" fill="#56415E"/>
<path d="M45.2786 14.095C39.9044 5.90504 49.3048 0.00341797 49.3048 0.00341797C43.6038 0.0772227 37.0182 1.53716 34.2264 7.27759C33.9543 7.837 33.4416 8.2398 32.8394 8.39567C31.5129 8.73899 29.1271 9.77373 27.5721 12.8744C27.2679 13.4809 27.2161 14.1842 27.434 14.8266C28.1897 17.0538 30.0309 23.0341 30.223 28.9117H38.0551C43.0121 24.8963 48.472 18.9617 45.2786 14.095Z" fill="#45304C"/>
<path d="M46.953 70.2802C49.9211 70.2802 52.81 69.3881 55.2468 67.7363C57.0855 65.119 58.4639 61.9072 58.2486 58.2797C58.0424 54.8082 56.4864 52.6364 56.4288 52.5577C56.1042 52.0581 55.8238 51.4401 55.5931 50.7197H55.0283C54.5534 51.1662 54.0784 51.5714 53.6137 51.9322C51.7132 53.4081 49.368 54.2097 46.9526 54.2097C44.5372 54.2097 42.192 53.4081 40.2916 51.9322C39.8271 51.5714 39.3522 51.1662 38.8772 50.7197H38.3894C38.4023 50.7322 38.4144 50.7456 38.4272 50.7581C38.1937 51.5016 37.9077 52.1367 37.5763 52.6478C37.4625 52.8059 35.9553 54.9626 35.7526 58.3756C35.5389 61.976 36.8952 65.1667 38.7133 67.7734C41.1389 69.4017 44.007 70.2802 46.953 70.2802Z" fill="#FFD9A1"/>
<path d="M46.9526 54.2097C44.5372 54.2097 42.192 53.4081 40.2916 51.9322C39.8271 51.5716 39.3522 51.1662 38.8772 50.7197H38.3894C38.4023 50.7322 38.4144 50.7456 38.4272 50.7581C38.1937 51.5016 37.9077 52.1367 37.5763 52.648C37.4625 52.8061 35.9553 54.9626 35.7526 58.3756C35.5389 61.976 36.8952 65.1669 38.7133 67.7734C47.429 64.6097 46.9526 54.2097 46.9526 54.2097Z" fill="#F9C98A"/>
<path d="M38.2539 67.0862C39.4497 68.9563 40.9111 70.5552 42.2739 71.8236C42.5878 72.1157 42.7677 72.5296 42.7677 72.9588V93.8002C44.1612 93.9303 45.5721 93.9999 46.9996 93.9999C48.427 93.9999 49.8379 93.9303 51.2314 93.8004V73.0135C51.247 72.9379 51.1446 72.2683 51.7251 71.7278C53.0762 70.4704 54.524 68.8876 55.714 67.0381C53.1832 68.9014 50.1124 69.9126 46.9517 69.9126C43.8179 69.9128 40.7723 68.9192 38.2539 67.0862Z" fill="#FFC839"/>
<path d="M42.2739 71.8238C42.5878 72.1159 42.7677 72.5297 42.7677 72.959V73.9888C44.1168 74.3862 45.5248 74.5944 46.9517 74.5944C48.4125 74.5944 49.8534 74.3758 51.2314 73.9594V73.0135C51.247 72.9379 51.1446 72.2683 51.7251 71.7278C53.0762 70.4704 54.524 68.8876 55.714 67.0381C53.1832 68.9014 50.1124 69.9128 46.9517 69.9128C43.8179 69.9128 40.7723 68.9192 38.2539 67.0862C39.4498 68.9565 40.9112 70.5554 42.2739 71.8238Z" fill="#FFDD40"/>
<path d="M86.2336 71.0301C85.8918 70.0188 85.5224 69.09 85.1218 68.2728C82.3462 62.6108 72.3314 62.3978 69.088 59.1543C69.088 59.1543 68.1754 71.9532 50.957 72.9587V93.8245C66.1263 92.5025 79.1366 83.6527 86.2336 71.0301Z" fill="#945230"/>
<path d="M29.054 67.4946C28.918 68.144 28.8921 68.8705 28.9806 69.6735C27.46 69.8889 20.3594 71.2533 20.3594 77.9127V85.2597C26.8195 90.0166 34.5971 93.0885 43.0448 93.8247V72.9589C36.0073 72.548 31.6948 70.1668 29.054 67.4946Z" fill="#945230"/>
<path d="M24.9114 59.1548C21.6679 62.3982 11.6532 62.6111 8.87747 68.2731C8.47687 69.0903 8.10748 70.0191 7.76562 71.0304C10.9664 76.7232 15.3703 81.6483 20.6322 85.4618C20.6322 83.5023 20.6322 80.9408 20.6322 77.9127C20.6322 70.6597 29.2856 69.913 29.2856 69.913C29.1686 69.0727 29.1787 68.3499 29.2868 67.727C25.2452 63.8107 24.9114 59.1548 24.9114 59.1548Z" fill="#753616"/>
<path d="M65.1772 27.9312C64.4239 27.2409 62.7398 27.5908 62.0909 28.0135C62.233 28.8986 62.2411 29.8041 62.1183 30.6982L61.3527 36.2743C61.3527 36.7237 61.3386 37.1647 61.3125 37.598C63.1795 38.1611 64.2904 36.485 64.4466 35.3348C64.5138 34.8397 64.6238 34.3517 64.7764 33.8754C65.273 32.3248 67.0645 29.6609 65.1772 27.9312Z" fill="#FFD9A1"/>
<path d="M28.7282 27.9312C29.4815 27.2409 31.1656 27.5908 31.8144 28.0135C31.6723 28.8986 31.6642 29.8041 31.787 30.6982L32.5526 36.2743C32.5526 36.7237 32.5668 37.1647 32.5928 37.598C30.7259 38.1611 29.6149 36.485 29.4587 35.3348C29.3915 34.8397 29.2815 34.3517 29.129 33.8754C28.6322 32.3248 26.8408 29.6609 28.7282 27.9312Z" fill="#F9C98A"/>
<path d="M68.0942 54.1001C65.7134 51.5645 61.3411 49.5258 57.965 47.5269C57.965 47.5269 57.9125 47.557 57.8021 47.6168C57.0026 48.7494 56.1353 49.7388 55.2623 50.5844C55.4619 51.2536 55.762 52.037 56.1979 52.7079C56.1979 52.7079 62.4864 61.337 51.5388 71.5264C51.168 71.8716 50.957 72.3566 50.957 72.8632C50.957 74.0672 52.1001 74.9462 53.2621 74.631C56.5196 73.7473 62.5798 71.7409 67.1307 68.116C71.4848 64.6475 71.9045 58.158 68.0942 54.1001Z" fill="#B26847"/>
<path d="M36.9031 63.8477C36.061 63.7171 32.3324 63.2745 30.2702 65.2432C29.2023 66.2627 28.769 67.7522 28.9809 69.6733C28.9643 69.6757 28.9436 69.679 28.9258 69.6815C33.1152 72.3916 37.9531 73.9705 40.74 74.7265C41.902 75.0417 43.0451 74.1627 43.0451 72.9587C43.0451 72.4522 42.8341 71.9671 42.4632 71.6219C39.5067 68.8702 37.8088 66.2327 36.9031 63.8477Z" fill="#B26847"/>
<path d="M37.8027 52.8037C38.2393 52.1317 38.5396 51.3469 38.7394 50.6771C37.8517 49.8286 36.9672 48.8324 36.1516 47.6873C36.0745 47.6453 36.0358 47.623 36.0358 47.623C32.6597 49.6218 28.2874 51.6605 25.9066 54.1961C22.0963 58.254 22.5159 64.7435 26.8699 68.2116C27.6391 68.8245 28.4521 69.3897 29.2867 69.9124C28.2558 62.5086 37.018 64.1463 37.018 64.1463L37.0188 64.1456C34.3508 57.5439 37.8027 52.8037 37.8027 52.8037Z" fill="#945230"/>
<path d="M35.4024 85.9122C34.5408 85.9122 33.8359 85.2074 33.8359 84.3458V71.479C33.8359 70.6174 34.5408 69.9126 35.4024 69.9126C36.2638 69.9126 36.9688 70.6174 36.9688 71.479V84.3458C36.9686 85.2074 36.2638 85.9122 35.4024 85.9122Z" fill="#DEEEFF"/>
<path d="M58.6953 85.9122C57.8337 85.9122 57.1289 85.2074 57.1289 84.3458V71.479C57.1289 70.6174 57.8337 69.9126 58.6953 69.9126C59.5569 69.9126 60.2617 70.6174 60.2617 71.479V84.3458C60.2617 85.2074 59.5568 85.9122 58.6953 85.9122Z" fill="#DEEEFF"/>
<path d="M61.811 26.2907C61.6386 25.8411 61.4214 25.3858 61.1477 24.9564C60.6841 24.2292 60.4801 23.3687 60.5424 22.5109C60.721 20.0438 60.6254 15.2184 57.3864 13.761C54.6349 12.5229 51.2595 13.2398 49.1071 13.9556C47.7608 14.4032 46.3063 14.4185 44.952 14.0039C42.4995 15.8861 42.4419 20.124 42.6077 22.3806C42.671 23.2431 42.4588 24.1058 41.9926 24.8372C41.724 25.2588 41.509 25.7049 41.3372 26.1464C40.7796 27.5788 40.6169 29.1324 40.8259 30.6537L41.6017 36.3049C41.6017 44.4293 45.9386 49.9514 49.6275 52.8162C50.1721 53.239 50.7548 53.6027 51.3629 53.9132C52.16 53.5597 52.9163 53.1107 53.6124 52.57C57.2533 49.7428 61.5334 44.2927 61.5334 36.2744L62.299 30.6983C62.5035 29.2115 62.3487 27.6934 61.811 26.2907Z" fill="#FCE6CA"/>
<path d="M49.6559 52.5694C46.015 49.7423 41.7349 44.2921 41.7349 36.2738L40.9691 30.6966C40.763 29.1954 40.9234 27.662 41.4738 26.2483C41.6435 25.8125 41.8555 25.3722 42.1208 24.9562C42.5809 24.2343 42.7904 23.383 42.728 22.5316C42.5591 20.2338 42.6248 15.8545 45.2788 14.0946C45.1174 14.0538 44.9572 14.0079 44.7984 13.9551C42.6459 13.2392 39.2705 12.5225 36.519 13.7605C33.2709 15.2219 33.1839 20.0708 33.3647 22.5315C33.4273 23.3828 33.2176 24.2341 32.7575 24.956C32.4924 25.372 32.2802 25.8123 32.1106 26.2481C31.5603 27.6618 31.3999 29.1952 31.6059 30.6964L32.3716 36.2736C32.3716 44.2919 36.6519 49.7419 40.2926 52.5692C42.193 54.045 44.5382 54.8465 46.9536 54.8465C48.5848 54.8465 50.1834 54.4795 51.6352 53.7876C50.9372 53.4555 50.2728 53.0486 49.6559 52.5694Z" fill="#FFD9A1"/>
<path d="M91.9831 49.0193C91.9831 35.5631 86.0725 23.4891 76.7081 15.2461C72.6031 18.4706 68.5385 23.2657 70.6416 29.0872C74.3721 39.4133 57.4868 45.925 76.3356 53.4094C83.3145 56.1805 87.5846 59.0626 90.1986 61.5943C91.3591 57.6036 91.9831 53.3846 91.9831 49.0193Z" fill="#FFB332"/>
<path d="M2.01953 49.0193C2.01953 35.5631 7.93015 23.4891 17.2943 15.2461C21.3993 18.4706 25.4639 23.2657 23.3608 29.0872C19.6304 39.4133 36.5157 45.925 17.6669 53.4094C10.6879 56.1805 6.41789 59.0626 3.80406 61.5943C2.64357 57.6036 2.01953 53.3846 2.01953 49.0193Z" fill="#FFB332"/>
<path d="M80.3423 79.2057C79.4522 75.5264 77.1828 73.4015 75.3472 72.241C74.1996 71.5155 72.7031 72.3321 72.7031 73.69V85.9335C75.4982 83.9837 78.0606 81.7242 80.3423 79.2057Z" fill="#753616"/>
</svg>
