<svg width="24" height="24" viewBox="0 0 24 24" fill="none" xmlns="http://www.w3.org/2000/svg">
<path d="M12 23.5312C18.3685 23.5312 23.5312 18.3685 23.5312 12C23.5312 5.63147 18.3685 0.46875 12 0.46875C5.63147 0.46875 0.46875 5.63147 0.46875 12C0.46875 18.3685 5.63147 23.5312 12 23.5312Z" fill="#FFE352"/>
<path d="M12 21.375C17.1777 21.375 21.375 17.1777 21.375 12C21.375 6.82233 17.1777 2.625 12 2.625C6.82233 2.625 2.625 6.82233 2.625 12C2.625 17.1777 6.82233 21.375 12 21.375Z" fill="#FFB236"/>
<path d="M12 4.02051L14.3466 8.77522L19.5938 9.53769L15.7969 13.2388L16.6932 18.4647L12 15.9973L7.30678 18.4647L8.20312 13.2388L4.40625 9.53769L9.65339 8.77522L12 4.02051Z" fill="#FFE352"/>
</svg>
