<svg width="34" height="34" viewBox="0 0 34 34" fill="none" xmlns="http://www.w3.org/2000/svg">
  <path d="M15.9536 25.5941L14.7978 26.7498L7.25082 19.2029L8.40654 18.0471C8.6184 17.8353 8.6184 17.4918 8.40654 17.28C8.19468 17.0681 7.85117 17.0681 7.63939 17.28L4.5275 20.3919C2.94667 21.9727 2.31203 24.1524 2.69206 26.6952C2.89192 28.0323 3.3194 29.1304 3.5602 29.6734L2.24093 30.9926C2.02907 31.2045 2.02907 31.548 2.24093 31.7598C2.34682 31.8657 2.4857 31.9187 2.62451 31.9187C2.76331 31.9187 2.90219 31.8658 3.00809 31.7598L4.32736 30.4405C4.87028 30.6813 5.96843 31.1088 7.30543 31.3087C7.78485 31.3803 8.25096 31.4159 8.70303 31.4159C10.6486 31.4158 12.326 30.756 13.6088 29.4732L16.7206 26.3613C16.9325 26.1495 16.9325 25.806 16.7206 25.5942C16.5089 25.3823 16.1654 25.3823 15.9536 25.5941ZM7.49573 30.2399C6.13082 30.0405 5.01509 29.5651 4.61972 29.381C4.43542 28.9851 3.9602 27.8696 3.76078 26.505C3.61416 25.5018 3.64143 24.5833 3.84005 23.7534L10.2474 30.1607C9.41753 30.3594 8.49898 30.3867 7.49573 30.2399ZM12.8416 28.7061C12.4024 29.1453 11.9137 29.4954 11.378 29.7571L4.24367 22.6228C4.50537 22.087 4.85546 21.5983 5.29459 21.1591L6.48359 19.9701L14.0305 27.5171L12.8416 28.7061Z" fill="white" />
  <path d="M11.2737 16.7976C11.0618 16.5857 10.7183 16.5857 10.5066 16.7976C10.2947 17.0094 10.2947 17.3529 10.5066 17.5647L16.4375 23.4956C16.5434 23.6015 16.6822 23.6545 16.821 23.6545C16.9598 23.6545 17.0987 23.6016 17.2046 23.4956C17.4165 23.2838 17.4165 22.9403 17.2046 22.7285L11.2737 16.7976Z" fill="white" />
  <path d="M18.432 18.8398C18.5708 18.8398 18.7097 18.7868 18.8156 18.6808C19.0275 18.469 19.0275 18.1255 18.8156 17.9137L16.0862 15.1843C15.8744 14.9724 15.5308 14.9724 15.3191 15.1843C15.1072 15.3961 15.1072 15.7397 15.3191 15.9514L18.0485 18.6808C18.1543 18.7867 18.2932 18.8398 18.432 18.8398Z" fill="white" />
  <path d="M33.4912 25.5969C33.1902 24.9115 32.7569 24.2749 32.2379 23.7557L25.7604 17.2782C26.4624 16.4051 26.8445 15.3278 26.8445 14.1915C26.8445 13.923 26.8222 13.6582 26.7804 13.3982C27.1939 13.6054 27.6527 13.7157 28.1288 13.7157C28.9341 13.7157 29.6913 13.4022 30.2607 12.8327C31.4362 11.6572 31.4362 9.74441 30.2607 8.56886L29.3396 7.64778L30.8986 6.0888C31.1105 5.87694 31.1105 5.53343 30.8986 5.32164C30.6867 5.10978 30.3432 5.10978 30.1314 5.32164L28.5725 6.88062L27.1195 5.42768L28.6785 3.8687C28.8904 3.65684 28.8904 3.31333 28.6785 3.10154C28.4667 2.88968 28.1232 2.88968 27.9113 3.10154L26.3523 4.66045L25.4312 3.73937C24.8617 3.1699 24.1046 2.85633 23.2993 2.85633C22.494 2.85633 21.7368 3.1699 21.1673 3.73937C20.5979 4.30884 20.2843 5.06595 20.2843 5.87129C20.2843 6.34731 20.3947 6.80612 20.6019 7.21964C20.3419 7.17791 20.077 7.15556 19.8086 7.15556C18.6722 7.15556 17.595 7.53769 16.7219 8.23967L10.2443 1.76202C9.72516 1.24318 9.08849 0.809761 8.40314 0.508859C7.63714 0.172513 6.82766 0.00195312 5.99729 0.00195312C3.61907 0.00195312 1.46472 1.40867 0.508775 3.58581C-0.134622 5.05104 -0.168907 6.67918 0.412284 8.17024C0.993403 9.6613 2.12041 10.8368 3.58565 11.4801C3.62486 11.4973 3.66435 11.5142 3.7042 11.5306C3.77769 13.9281 5.68315 15.917 8.12133 16.0491C8.20574 16.0537 8.29095 16.056 8.37478 16.056C8.87207 16.056 9.3674 15.9744 9.84675 15.8134L19.7361 12.5006C19.9394 12.4726 20.1121 12.3309 20.1771 12.1328C20.246 11.9394 20.2004 11.7182 20.0495 11.5674L17.4946 9.01247C18.1584 8.51179 18.9624 8.24047 19.8085 8.24047C20.8377 8.24047 21.8053 8.64126 22.5331 9.369L24.6309 11.4669C25.3587 12.1946 25.7594 13.1622 25.7594 14.1914C25.7594 15.0374 25.4881 15.8415 24.9874 16.5053L22.4325 13.9504C22.2817 13.7997 22.0604 13.7539 21.8672 13.8228C21.669 13.8878 21.5273 14.0606 21.4993 14.2639L18.1866 24.1529C17.9985 24.7133 17.9191 25.2939 17.9508 25.8787C18.0825 28.309 20.0544 30.223 22.4694 30.2959C22.4858 30.3356 22.5026 30.3751 22.5198 30.4143C23.4757 32.5912 25.63 33.9979 28.0083 33.9981C28.8388 33.9981 29.6482 33.8276 30.4141 33.4912C31.8794 32.8478 33.0064 31.6723 33.5875 30.1813C34.1689 28.6903 34.1346 27.0622 33.4912 25.5969ZM1.42313 7.77617C0.947254 6.55512 0.975319 5.22189 1.50219 4.02197C2.28512 2.23898 4.04952 1.08694 5.99729 1.08694C6.67656 1.08694 7.33927 1.22669 7.9669 1.50227C8.53015 1.74958 9.05239 2.1048 9.47713 2.52932L18.2848 11.3369L4.37162 10.6234C4.24865 10.5805 4.1335 10.5356 4.02189 10.4867C2.82197 9.95981 1.89908 8.99721 1.42313 7.77617ZM9.50186 14.7847C9.06606 14.931 8.63344 14.9902 8.18006 14.9657C6.38947 14.8687 4.97342 13.4672 4.80431 11.732L16.7813 12.3462L9.50186 14.7847ZM29.4935 9.33609C29.8581 9.70064 30.0588 10.1853 30.0588 10.7009C30.0588 11.2164 29.8581 11.7011 29.4935 12.0656C29.129 12.43 28.6444 12.6308 28.1288 12.6308C27.6132 12.6308 27.1286 12.4301 26.764 12.0656L25.8429 11.1445L28.5724 8.41501L29.4935 9.33609ZM27.8052 7.64778L25.0758 10.3772L23.6228 8.9243L26.3523 6.19484L27.8052 7.64778ZM21.9345 4.50653C22.2991 4.14197 22.7837 3.94125 23.2992 3.94125C23.8147 3.94125 24.2994 4.14197 24.664 4.50653L25.5851 5.42761L22.8556 8.15707L21.9345 7.23599C21.57 6.87143 21.3692 6.38681 21.3692 5.87122C21.3692 5.35564 21.57 4.87108 21.9345 4.50653ZM32.5768 29.7874C32.1008 31.0084 31.1779 31.971 29.978 32.4979C29.3503 32.7735 28.6878 32.9132 28.0088 32.9132C26.0606 32.9131 24.2961 31.7609 23.5132 29.9781C23.4643 29.8666 23.4194 29.7514 23.3766 29.6284L23.0416 23.0975C23.0263 22.7983 22.7724 22.5679 22.472 22.5836C22.1728 22.5989 21.9427 22.8539 21.958 23.1532L22.268 29.1965C20.5227 29.0294 19.131 27.6065 19.0342 25.82C19.0097 25.3665 19.0688 24.9341 19.2153 24.4979L21.6537 17.2188L21.8469 20.986C21.8618 21.2758 22.1014 21.5007 22.3882 21.5007C22.3976 21.5007 22.4071 21.5005 22.4165 21.5C22.7158 21.4847 22.9459 21.2296 22.9305 20.9304L22.663 15.7153L31.4706 24.5229C31.8953 24.9477 32.2504 25.4699 32.4977 26.0331C33.0247 27.233 33.0527 28.5663 32.5768 29.7874Z" fill="white" />
</svg>