<svg width="34" height="34" viewBox="0 0 34 34" fill="none" xmlns="http://www.w3.org/2000/svg">
  <path d="M29.75 31.875C30.9235 31.875 31.875 30.9246 31.875 29.75V17C31.875 15.8254 30.9235 14.875 29.75 14.875C28.5765 14.875 27.625 15.8254 27.625 17V29.75C27.625 30.9246 28.5765 31.875 29.75 31.875Z" fill="white" />
  <path d="M21.25 31.875C22.4235 31.875 23.375 30.9246 23.375 29.75V4.25C23.375 3.07544 22.4235 2.125 21.25 2.125C20.0765 2.125 19.125 3.07544 19.125 4.25V29.75C19.125 30.9246 20.0765 31.875 21.25 31.875Z" fill="white" />
  <path d="M12.75 31.875C13.9246 31.875 14.875 30.9246 14.875 29.75V21.25C14.875 20.0754 13.9246 19.125 12.75 19.125C11.5754 19.125 10.625 20.0754 10.625 21.25V29.75C10.625 30.9246 11.5754 31.875 12.75 31.875Z" fill="white" />
  <path d="M4.25 31.875C5.42456 31.875 6.375 30.9246 6.375 29.75V12.75C6.375 11.5754 5.42456 10.625 4.25 10.625C3.07544 10.625 2.125 11.5754 2.125 12.75V29.75C2.125 30.9246 3.07544 31.875 4.25 31.875Z" fill="white" />
</svg>