<svg width="32" height="32" viewBox="0 0 32 32" fill="none" xmlns="http://www.w3.org/2000/svg">
  <path d="M31.5 25.1419H30.6V9.68565C30.5994 9.13356 30.3797 8.60428 29.9893 8.2139C29.599 7.82353 29.0697 7.60395 28.5176 7.60334H24.7371C23.7893 6.14937 22.4937 4.95491 20.9676 4.12822C19.4416 3.30154 17.7333 2.86877 15.9978 2.86914C14.2622 2.86951 12.5541 3.30302 11.0284 4.13036C9.50273 4.9577 8.20762 6.15271 7.2605 7.60709C7.24107 7.60467 7.22152 7.60342 7.20194 7.60334H3.4825C2.93045 7.60393 2.40117 7.82347 2.01076 8.21379C1.62036 8.60411 1.40071 9.13335 1.4 9.6854V25.1417H0.5C0.367392 25.1417 0.240215 25.1943 0.146447 25.2881C0.0526784 25.3819 0 25.5091 0 25.6417L0 27.3284C0.00052934 27.8058 0.190386 28.2634 0.527917 28.601C0.865448 28.9385 1.32309 29.1284 1.80044 29.1289H30.1996C30.6769 29.1284 31.1345 28.9385 31.472 28.601C31.8095 28.2636 31.9994 27.806 32 27.3287V25.6419C32 25.5093 31.9473 25.3821 31.8536 25.2884C31.7598 25.1946 31.6326 25.1419 31.5 25.1419ZM16 3.8689C21.2039 3.8689 25.4375 8.10253 25.4375 13.3064C25.4375 18.5103 21.2039 22.7439 16 22.7439C10.7961 22.7439 6.5625 18.5103 6.5625 13.3064C6.5625 8.10253 10.7962 3.8689 16 3.8689ZM2.4 9.6854C2.40035 9.39843 2.51451 9.12331 2.71745 8.92041C2.92039 8.71751 3.19553 8.60339 3.4825 8.60309H6.68406C5.94495 10.0606 5.56066 11.6722 5.5625 13.3064C5.5625 19.0617 10.2448 23.7439 16 23.7439C21.7552 23.7439 26.4375 19.0617 26.4375 13.3064C26.4394 11.6722 26.0551 10.0606 25.316 8.60309H28.5175C28.8045 8.60339 29.0796 8.71751 29.2825 8.92041C29.4855 9.12331 29.5997 9.39843 29.6 9.6854V25.1417H2.4V9.6854ZM13.1548 26.1417H18.8451V26.6354H13.1549L13.1548 26.1417ZM31 27.3287C30.9998 27.5409 30.9154 27.7444 30.7653 27.8944C30.6153 28.0445 30.4118 28.1289 30.1996 28.1292H1.80044C1.58821 28.1289 1.38474 28.0445 1.23468 27.8944C1.08461 27.7444 1.00022 27.5409 1 27.3287V26.1419H12.1549V26.8384C12.1551 27.0498 12.2392 27.2524 12.3886 27.4018C12.5381 27.5513 12.7407 27.6354 12.9521 27.6356H19.0479C19.2593 27.6354 19.4619 27.5513 19.6114 27.4018C19.7608 27.2524 19.8449 27.0498 19.8451 26.8384V26.1419H31V27.3287ZM14.3789 15.4274C14.3789 15.2948 14.3263 15.1676 14.2325 15.0739C14.1387 14.9801 14.0115 14.9274 13.8789 14.9274C13.7463 14.9274 13.6192 14.9801 13.5254 15.0739C13.4316 15.1676 13.3789 15.2948 13.3789 15.4274C13.3797 16.0355 13.5917 16.6245 13.9785 17.0938C14.3654 17.563 14.9032 17.8833 15.5 18.0001V18.5362C15.5 18.6688 15.5527 18.7959 15.6464 18.8897C15.7402 18.9835 15.8674 19.0362 16 19.0362C16.1326 19.0362 16.2598 18.9835 16.3536 18.8897C16.4473 18.7959 16.5 18.6688 16.5 18.5362V18.0001C17.0968 17.8833 17.6346 17.563 18.0215 17.0938C18.4083 16.6245 18.6203 16.0355 18.6211 15.4274C18.6211 13.6518 17.4921 13.1754 16.5 12.9149V9.64365C16.8255 9.74963 17.1093 9.9558 17.3106 10.2327C17.5119 10.5096 17.6206 10.843 17.6211 11.1854C17.6211 11.318 17.6737 11.4452 17.7675 11.539C17.8613 11.6327 17.9885 11.6854 18.1211 11.6854C18.2537 11.6854 18.3808 11.6327 18.4746 11.539C18.5684 11.4452 18.6211 11.318 18.6211 11.1854C18.6203 10.5773 18.4083 9.98827 18.0215 9.51904C17.6346 9.04981 17.0968 8.72946 16.5 8.61271V8.07665C16.5 7.94404 16.4473 7.81687 16.3536 7.7231C16.2598 7.62933 16.1326 7.57665 16 7.57665C15.8674 7.57665 15.7402 7.62933 15.6464 7.7231C15.5527 7.81687 15.5 7.94404 15.5 8.07665V8.61271C14.9032 8.72946 14.3654 9.0498 13.9786 9.51902C13.5917 9.98823 13.3798 10.5772 13.3789 11.1853C13.3789 12.961 14.5079 13.4375 15.5 13.6978V16.969C15.1745 16.863 14.8908 16.6569 14.6895 16.38C14.4881 16.1032 14.3794 15.7697 14.3789 15.4274ZM17.6211 15.4274C17.6206 15.7698 17.5119 16.1032 17.3106 16.3801C17.1093 16.657 16.8255 16.8632 16.5 16.9692V13.9545C17.2386 14.1812 17.6211 14.4928 17.6211 15.4274ZM14.3789 11.1853C14.3794 10.843 14.4881 10.5095 14.6894 10.2326C14.8907 9.95574 15.1745 9.74957 15.5 9.64359V12.6584C14.7614 12.4316 14.3789 12.1199 14.3789 11.1853ZM16 21.4314C17.607 21.4314 19.1779 20.9549 20.514 20.0621C21.8502 19.1693 22.8916 17.9004 23.5065 16.4157C24.1215 14.9311 24.2824 13.2974 23.9689 11.7213C23.6554 10.1452 22.8815 8.69746 21.7452 7.56116C20.6089 6.42486 19.1612 5.65103 17.5851 5.33752C16.009 5.02402 14.3753 5.18492 12.8907 5.79988C11.406 6.41484 10.1371 7.45624 9.24431 8.79239C8.35152 10.1285 7.875 11.6994 7.875 13.3064C7.87742 15.4605 8.73422 17.5258 10.2574 19.049C11.7806 20.5722 13.8459 21.429 16 21.4314ZM16 6.1814C17.4092 6.1814 18.7867 6.59928 19.9584 7.38218C21.1301 8.16509 22.0434 9.27786 22.5826 10.5798C23.1219 11.8817 23.263 13.3143 22.9881 14.6964C22.7132 16.0785 22.0346 17.3481 21.0381 18.3445C20.0417 19.341 18.7721 20.0196 17.39 20.2945C16.0079 20.5694 14.5753 20.4283 13.2734 19.889C11.9715 19.3498 10.8587 18.4365 10.0758 17.2648C9.29287 16.0931 8.875 14.7156 8.875 13.3064C8.87715 11.4174 9.62851 9.60637 10.9642 8.27064C12.3 6.93491 14.111 6.18355 16 6.1814Z" fill="white" />
</svg>