<svg width="34" height="34" viewBox="0 0 34 34" fill="none" xmlns="http://www.w3.org/2000/svg">
  <g clipPath="url(#clip0_189_615)">
    <path d="M33.6084 12.5155L17.3168 4.36968C17.1173 4.27 16.8826 4.27 16.6832 4.36968L0.391598 12.5155C0.151605 12.6355 0 12.8808 0 13.149C0 13.4174 0.151605 13.6626 0.391598 13.7826L5.78478 16.4791V21.8922C5.78478 25.2352 10.7111 27.854 17.0001 27.854C23.289 27.854 28.2153 25.2353 28.2153 21.8922V16.4791L30.0976 15.5379V20.704C29.2299 20.9997 28.6039 21.8222 28.6039 22.7887C28.6039 23.665 29.1184 24.4231 29.8611 24.7775L28.3564 28.7475C28.2739 28.9652 28.3036 29.2095 28.4359 29.401C28.5682 29.5925 28.786 29.7068 29.0188 29.7068H32.5936C32.8264 29.7068 33.0443 29.5925 33.1766 29.401C33.3088 29.2095 33.3385 28.9652 33.2561 28.7475L31.7514 24.7776C32.494 24.4232 33.0085 23.6651 33.0085 22.7888C33.0085 21.8222 32.3823 20.9997 31.5144 20.704V14.8297L33.6086 13.7826C33.8486 13.6626 34.0001 13.4173 34.0001 13.1491C34 12.8808 33.8484 12.6355 33.6084 12.5155ZM24.1127 24.9735C22.2247 25.9174 19.6987 26.4374 17 26.4374C14.3013 26.4374 11.7754 25.9175 9.88729 24.9735C8.18045 24.12 7.20143 22.997 7.20143 21.8922V17.1875L16.6832 21.9285C16.783 21.9784 16.8915 22.0033 17 22.0033C17.1085 22.0033 17.217 21.9784 17.3168 21.9285L26.7986 17.1875V21.8922C26.7986 22.997 25.8196 24.12 24.1127 24.9735ZM30.0446 28.2903L30.8061 26.2813L31.5675 28.2903H30.0446ZM31.5916 22.7888C31.5916 23.2221 31.2392 23.5744 30.8061 23.5744C30.3729 23.5744 30.0205 23.222 30.0205 22.7888C30.0205 22.3568 30.3711 22.0054 30.8026 22.0035C30.8037 22.0035 30.8048 22.0036 30.8059 22.0036C30.8071 22.0036 30.8083 22.0035 30.8094 22.0035C31.241 22.0053 31.5916 22.3567 31.5916 22.7888ZM30.6622 13.6719L17.0635 12.4439C16.6739 12.4084 16.3295 12.696 16.2943 13.0856C16.2591 13.4753 16.5464 13.8196 16.9361 13.8548L28.2525 14.8767L17 20.503L2.29221 13.149L17 5.79522L31.7078 13.1491L30.6622 13.6719Z" fill="white" />
  </g>
  <defs>
    <clipPath id="clip0_189_615">
      <rect width="34" height="34" fill="white" />
    </clipPath>
  </defs>
</svg>