<svg width="32" height="32" viewBox="0 0 32 32" fill="none" xmlns="http://www.w3.org/2000/svg">
  <path d="M16.577 8.33997V6.72659C16.8459 6.84084 17.0141 7.06291 17.0811 7.38547L18.1233 7.25103C17.9952 6.45734 17.4805 5.90834 16.577 5.81253V5.40234H15.9791V5.81253C15.0624 5.90391 14.426 6.54791 14.426 7.47953C14.426 7.92341 14.5538 8.30653 14.8024 8.61566C15.0511 8.93178 15.4479 9.16028 15.979 9.31472V11.0491C15.6925 10.9061 15.4171 10.5815 15.3336 10.135L14.2578 10.256C14.4245 11.3637 15.0681 11.9335 15.979 12.0373V12.8037H16.5769V12.0305C17.7084 11.8492 18.2914 11.093 18.2914 10.135C18.2914 9.68447 18.1768 9.32147 17.9349 9.03259C17.6929 8.75016 17.2426 8.51484 16.577 8.33997ZM15.979 8.13841C15.2228 7.81791 15.3368 6.94747 15.979 6.70634V8.13841ZM16.577 11.1164V9.49628C16.8324 9.56334 17.0074 9.67091 17.1148 9.80534C17.4588 10.1898 17.2877 10.9559 16.577 11.1164Z" fill="white" />
  <path d="M24.3086 25.6671C24.0824 25.5839 23.831 25.7034 23.7455 25.9343C23.6623 26.1604 23.7795 26.4165 24.0126 26.4974C24.2388 26.5806 24.4902 26.461 24.5734 26.2349C24.659 26.0039 24.5395 25.7526 24.3086 25.6671Z" fill="white" />
  <path d="M28.5093 11.0015C28.2606 10.0757 27.9351 9.55863 27.4839 9.37407C26.4923 8.97182 25.4953 9.90494 25.163 10.9072C24.8411 11.8638 24.8052 13.34 24.9444 14.5673C24.0354 14.5804 22.9901 15.3718 21.8369 16.9198C20.9964 18.0487 20.2338 19.4338 20.0246 20.2113C19.7398 21.2502 19.8544 22.8521 19.9332 23.9461C19.5866 24.1131 19.2535 24.3826 19.25 24.9146C19.2506 25.0963 19.3739 26.9315 19.7682 27.4254C20.1502 27.9106 20.6732 27.8136 21.0769 27.9024C22.4489 28.203 24.0313 29.601 25.4729 29.7973C25.7542 29.8353 26.0143 29.7363 26.1974 29.5401C26.5217 29.1926 26.5206 28.6313 26.5048 28.4045C26.4878 28.1724 26.4951 27.6733 26.503 27.1454C26.5353 24.9557 26.4989 24.2169 26.2069 23.8594C26.0144 23.6268 25.7513 23.5003 25.487 23.4299C25.9182 20.5709 27.5674 20.8211 28.6241 18.218C29.1913 16.8266 29.0167 12.8903 28.5093 11.0015ZM25.3804 28.63C24.2511 28.3329 22.775 27.1201 21.3188 26.8007C21.0173 26.7344 20.7914 26.7374 20.6543 26.7122C20.5441 26.4274 20.3961 25.4483 20.3798 24.9866C20.4328 24.9579 20.5323 24.9123 20.7149 24.8472C21.3635 24.6126 24.7983 24.3014 25.308 24.5589C25.4073 24.9544 25.3866 26.3578 25.3754 27.1289C25.3529 28.6194 25.3924 28.4331 25.3804 28.63ZM27.5794 17.7931C26.6615 20.0569 24.8346 20.0135 24.3612 23.3349C23.4588 23.3455 21.9922 23.4486 21.0406 23.615C20.9712 22.5984 20.8971 21.2953 21.113 20.5071C21.2633 19.9476 21.9137 18.7048 22.7416 17.5933C23.7843 16.1935 24.5753 15.6948 24.9676 15.6948C25.0511 15.6948 25.2198 15.7434 25.2409 15.8184C25.2831 15.9699 25.2805 16.622 23.4805 18.6596C23.4371 18.7089 23.3999 18.7511 23.3709 18.7844C23.1667 19.0194 23.1923 19.3757 23.4274 19.5801C23.6618 19.7834 24.0184 19.7594 24.2229 19.5233C25.1776 18.4206 26.9718 16.431 26.1817 15.1883C25.9444 14.0386 25.9069 12.2331 26.2326 11.2643C26.3683 10.8553 26.7684 10.4059 26.9972 10.4059C27.0134 10.4059 27.0289 10.4085 27.0448 10.4135C27.2246 10.5653 27.6307 11.5599 27.7904 13.7656C27.9131 15.4651 27.8226 17.1963 27.5794 17.7931Z" fill="white" />
  <path d="M12.708 23.4922C12.7546 22.3507 12.8363 20.6627 12.505 19.5729C12.265 18.7713 11.4339 17.3542 10.5289 16.2037C9.26067 14.5915 8.13273 13.7885 7.17735 13.819C7.29073 12.5264 7.21192 10.9684 6.84542 9.9723C6.61541 9.33886 5.89416 8.33398 4.9376 8.33398C3.97754 8.33398 3.61423 9.23517 3.39216 10.1645C3.22454 10.8655 3.10798 11.7796 3.05466 12.8079C2.96385 14.561 3.06085 16.7583 3.48179 17.7143C4.66923 20.4178 6.39716 20.0929 6.93035 23.1167C6.65173 23.1963 6.37398 23.3358 6.17654 23.5883C5.88854 23.9616 5.87304 24.7332 5.97085 27.0202C5.99454 27.5744 6.01716 28.0977 6.00604 28.3444C5.99666 28.5741 6.01073 29.146 6.34466 29.494C6.53541 29.6933 6.80579 29.7917 7.0976 29.7437C8.60173 29.4958 10.2066 27.987 11.6469 27.6284C12.0679 27.5229 12.611 27.6096 12.9872 27.1034C13.3835 26.5767 13.458 24.66 13.453 24.4655C13.4342 23.9187 13.0742 23.6522 12.708 23.4922ZM4.51423 17.2602C4.2391 16.6359 4.09291 14.8097 4.17379 13.0127C4.27929 10.6733 4.68329 9.62717 4.86841 9.47505C4.89185 9.46598 4.9141 9.46186 4.93754 9.46186C5.2141 9.46186 5.64185 9.96255 5.78598 10.3595C6.15748 11.3688 6.17098 13.2728 5.95441 14.4884C5.17454 15.7806 7.10316 17.8287 8.12942 18.9464C8.33892 19.1749 8.69573 19.192 8.92629 18.9804C9.15567 18.7701 9.17092 18.4132 8.96023 18.1835C8.92892 18.1495 8.88904 18.1068 8.84185 18.0564C6.88541 15.9632 6.86579 15.2679 6.90623 15.1047C6.91179 15.083 6.9261 15.0253 7.09398 14.9674C8.18179 14.59 10.9782 18.4062 11.4249 19.8985C11.6775 20.7282 11.6347 22.1175 11.5914 23.191C10.6849 23.0527 9.2751 22.9889 8.38742 22.9889C8.26935 22.99 8.42698 22.9871 8.05316 22.9924C7.45973 19.4762 5.56566 19.6557 4.51423 17.2602ZM12.0822 26.4189C11.9644 26.4482 11.6855 26.4565 11.3744 26.5338C9.84067 26.9158 8.33042 28.247 7.14004 28.5805C7.1336 28.5265 7.12979 28.4627 7.13273 28.393C7.1641 27.6925 6.94935 24.8712 7.09523 24.2586C7.26279 24.156 7.65892 24.1344 7.85404 24.1262C8.88823 24.0846 11.2765 24.1935 11.9539 24.4168C12.1642 24.4853 12.272 24.5328 12.3262 24.5615C12.325 25.0513 12.1927 26.1295 12.0822 26.4189Z" fill="white" />
  <path d="M8.2008 25.4082C7.96143 25.5049 7.84336 25.772 7.94005 26.0111C8.0338 26.2461 8.30099 26.3638 8.53568 26.2701C8.77768 26.1781 8.89311 25.9063 8.79905 25.6719C8.70268 25.4322 8.43543 25.3144 8.2008 25.4082Z" fill="white" />
  <path d="M23.183 9.10325C23.183 5.29406 20.084 2.19531 16.2751 2.19531C12.4662 2.19531 9.36719 5.29406 9.36719 9.10325C9.36719 12.9121 12.4662 16.0111 16.2751 16.0111C20.0839 16.0111 23.183 12.9121 23.183 9.10325ZM16.2751 14.8832C13.0879 14.8832 10.4952 12.2901 10.4952 9.10325C10.4952 5.916 13.0879 3.323 16.2751 3.323C19.4623 3.323 22.0551 5.91606 22.0551 9.10325C22.0551 12.2902 19.4623 14.8832 16.2751 14.8832Z" fill="white" />
</svg>