<svg width="32" height="32" viewBox="0 0 32 32" fill="none" xmlns="http://www.w3.org/2000/svg">
  <path d="M5.06943 29.8912H26.9273C28.8911 29.8912 30.4889 28.2933 30.4889 26.3293V3.61881C30.4889 2.78656 29.8118 2.10938 28.9795 2.10938H8.93323C8.10097 2.10938 7.42379 2.78656 7.42379 3.61881V13.7577H3.01725C2.18499 13.7577 1.50781 14.4349 1.50781 15.2671V26.3293C1.50781 28.298 3.10831 29.8912 5.06943 29.8912ZM8.63134 3.61881C8.63134 3.45224 8.76666 3.31692 8.93323 3.31692H28.9795C29.1461 3.31692 29.2814 3.45224 29.2814 3.61881V26.3293C29.2814 27.6277 28.2254 28.6837 26.9273 28.6837H7.73718C8.26155 28.0897 8.63134 26.9928 8.63134 26.7335C8.63134 21.0455 8.63134 9.54964 8.63134 3.61881ZM7.42379 25.5572H6.0653C5.8492 25.5572 5.6732 25.3812 5.6732 25.1651V14.9652H7.42379V25.5572ZM2.71536 15.2671C2.71536 15.1005 2.85068 14.9652 3.01725 14.9652H4.46565V25.1651C4.46565 26.0472 5.18323 26.7648 6.0653 26.7648H7.37231C7.18328 27.8057 6.34626 28.5293 5.38841 28.6601C3.95754 28.8572 2.71536 27.7355 2.71536 26.3293V15.2671Z" fill="white" />
  <path d="M10.8694 12.7701H16.4876C16.821 12.7701 17.0914 12.4998 17.0914 12.1664V5.65163C17.0914 5.31819 16.821 5.04785 16.4876 5.04785H10.8694C10.536 5.04785 10.2656 5.31819 10.2656 5.65163V12.1664C10.2656 12.4998 10.536 12.7701 10.8694 12.7701ZM11.4732 6.2554H15.8838V11.5626H11.4732V6.2554Z" fill="white" />
  <path d="M19.5491 6.2554H26.8492C27.1826 6.2554 27.453 5.98506 27.453 5.65163C27.453 5.31819 27.1826 5.04785 26.8492 5.04785H19.5491C19.2157 5.04785 18.9453 5.31819 18.9453 5.65163C18.9453 5.98506 19.2157 6.2554 19.5491 6.2554Z" fill="white" />
  <path d="M19.5491 9.51223H26.8492C27.1826 9.51223 27.453 9.24189 27.453 8.90846C27.453 8.57503 27.1826 8.30469 26.8492 8.30469H19.5491C19.2157 8.30469 18.9453 8.57503 18.9453 8.90846C18.9453 9.24189 19.2157 9.51223 19.5491 9.51223Z" fill="white" />
  <path d="M19.5491 12.77H26.8492C27.1826 12.77 27.453 12.4997 27.453 12.1663C27.453 11.8328 27.1826 11.5625 26.8492 11.5625H19.5491C19.2157 11.5625 18.9453 11.8328 18.9453 12.1663C18.9453 12.4997 19.2157 12.77 19.5491 12.77Z" fill="white" />
  <path d="M10.8694 16.3374H26.8502C27.1837 16.3374 27.454 16.0671 27.454 15.7337C27.454 15.4002 27.1837 15.1299 26.8502 15.1299H10.8694C10.536 15.1299 10.2656 15.4002 10.2656 15.7337C10.2656 16.0671 10.536 16.3374 10.8694 16.3374Z" fill="white" />
  <path d="M10.8694 19.813H26.8502C27.1837 19.813 27.454 19.5427 27.454 19.2092C27.454 18.8758 27.1837 18.6055 26.8502 18.6055H10.8694C10.536 18.6055 10.2656 18.8758 10.2656 19.2092C10.2656 19.5427 10.536 19.813 10.8694 19.813Z" fill="white" />
  <path d="M10.8694 23.2886H26.8502C27.1837 23.2886 27.454 23.0182 27.454 22.6848C27.454 22.3514 27.1837 22.0811 26.8502 22.0811H10.8694C10.536 22.0811 10.2656 22.3514 10.2656 22.6848C10.2656 23.0182 10.536 23.2886 10.8694 23.2886Z" fill="white" />
  <path d="M10.8694 26.7652H26.8502C27.1837 26.7652 27.454 26.4948 27.454 26.1614C27.454 25.828 27.1837 25.5576 26.8502 25.5576H10.8694C10.536 25.5576 10.2656 25.828 10.2656 26.1614C10.2656 26.4948 10.536 26.7652 10.8694 26.7652Z" fill="white" />
</svg>