<svg width="83" height="83" viewBox="0 0 83 83" fill="none" xmlns="http://www.w3.org/2000/svg">
  <g clip-path="url(#clip0_202_601)">
  <path d="M29.1102 50.2301C29.6754 49.6246 29.8939 48.7721 29.6896 47.9695C29.1274 45.7533 26.6256 46.1061 17.8401 42.8545C15.1805 41.9663 12.3071 42.6408 10.3458 44.6117L5.38278 49.5724C4.8556 50.0972 4.59914 50.8358 4.68457 51.5743C4.77487 52.3129 5.19279 52.9706 5.82436 53.3624L17.4982 60.5599C18.1217 60.94 18.8596 61.017 19.5166 60.8045C20.191 60.5884 20.742 60.0873 21.0174 59.4344C21.2928 58.7743 21.725 58.1354 22.3093 57.5132C24.3134 55.3476 26.2464 53.2839 28.0844 51.3226L29.1102 50.2301ZM36.9845 55.1479C36.7234 54.3595 36.0774 53.761 35.2748 53.5569C34.4626 53.3433 33.6172 53.5688 33.0142 54.1387L31.9551 55.1289C29.9889 56.974 27.9134 58.9189 25.7145 60.9515C25.1066 61.5238 24.4512 61.9727 23.7151 62.3241C23.0929 62.6185 22.6228 63.1648 22.4232 63.8249C22.2285 64.4828 22.3187 65.1975 22.6797 65.784L29.6327 77.2108C30.0174 77.8495 30.6775 78.2723 31.4185 78.3624C32.1208 78.4501 32.8769 78.2144 33.4275 77.6666L38.5377 72.5612C38.5377 72.5612 38.5377 72.5612 38.5377 72.5587C40.4992 70.5972 41.1687 67.7454 40.2903 65.1166L36.9845 55.1479ZM81.658 71.5541L76.6 57.9858L78.1791 53.3022L74.7037 52.9764L72.8556 47.9674L74.3498 43.06L70.9589 42.9581L65.5121 28.3196C65.2203 27.5416 64.588 26.958 63.7614 26.7636C62.9832 26.6176 62.1564 26.812 61.573 27.3472L46.6427 41.2074C45.7673 42.034 45.6212 43.3473 46.2535 44.3687L70.4241 80.6486C70.8617 81.2322 71.4939 81.6213 72.2236 81.7187C72.7227 81.6382 73.4318 81.8085 74.1687 80.9891L81.0747 74.0834C81.7551 73.4022 81.9986 72.4295 81.658 71.5541ZM56.2715 19.0795C56.0771 18.3012 55.4935 17.669 54.7153 17.3772L40.0769 11.9789L40.454 8.76934L35.0676 10.0823L30.0099 8.23454L30.1563 4.95977L25.0006 6.3865L11.3834 1.32852C10.508 0.988092 9.53537 1.23142 8.85435 1.91212L1.99745 8.81798C1.46249 9.30414 1.21916 10.0338 1.26779 10.7631C1.36522 11.4928 1.75428 12.125 2.33788 12.5625L38.6178 36.6846C39.9056 37.3996 41.1266 37.0336 41.7305 36.2954C47.8096 29.827 52.3324 24.9637 55.6881 21.3163C56.2229 20.7329 56.4664 19.9061 56.2715 19.0795Z" fill="url(#paint0_linear_202_601)"/>
  <path d="M49.3452 69.1227L39.6186 78.8492C38.6688 79.799 38.6688 81.3379 39.6186 82.2877C40.5686 83.2375 42.1073 83.2375 43.0571 82.2877L52.7837 72.5612C53.7335 71.6114 53.7335 70.0725 52.7837 69.1227C51.8339 68.1729 50.295 68.1727 49.3452 69.1227ZM10.4389 30.2164L0.712349 39.943C-0.23745 40.8928 -0.23745 42.4317 0.712349 43.3815C1.66231 44.3313 3.20105 44.3313 4.15085 43.3815L13.8774 33.6549C14.8272 32.7051 14.8272 31.1662 13.8774 30.2164C12.9276 29.2666 11.3887 29.2665 10.4389 30.2164ZM76.0049 20.7256C76.0334 20.6995 76.0619 20.6734 76.0856 20.6448C82.8011 13.8795 84.9574 5.82463 81.0771 1.87791C77.1874 -1.93814 69.1564 0.210942 62.2698 6.96912C62.208 7.02375 61.9848 7.26837 61.9279 7.32771C53.7182 16.3959 22.5734 50.068 18.7501 54.1955C17.7812 55.2213 17.0356 56.3493 16.5892 57.4179C15.0219 60.6142 15.3116 63.8627 17.3443 65.9001C19.5384 68.0897 22.908 68.0678 25.7933 66.717C26.9995 66.147 28.0634 65.418 29.0322 64.5061C32.2647 61.5126 38.6216 55.2839 48.1026 46.4974C64.595 31.2423 55.0772 39.9093 76.0049 20.7256ZM75.5284 41.8395C74.5558 40.9155 72.9993 40.9155 72.0753 41.8395L70.9569 42.9579L72.8536 47.9672L75.5284 45.2924C76.4524 44.3684 76.4524 42.8122 75.5284 41.8395ZM75.8202 51.8579L74.7018 52.9763L76.5982 57.9856L79.2245 55.3108C80.1972 54.3868 80.1972 52.8305 79.2245 51.8577C78.3005 50.9338 76.7442 50.9338 75.8202 51.8579ZM31.1267 7.11551C32.0993 6.19148 32.0993 4.63523 31.1267 3.71121C30.2026 2.73871 28.6464 2.73871 27.7224 3.71121L24.9989 6.38618L30.0083 8.23422L31.1267 7.11551ZM41.1937 10.8604C42.1177 9.88774 42.1177 8.38012 41.1937 7.4073C40.221 6.48328 38.7134 6.48328 37.7406 7.4073L35.0658 10.0821L40.0751 11.9788L41.1937 10.8604Z" fill="url(#paint1_linear_202_601)"/>
  </g>
  <defs>
  <linearGradient id="paint0_linear_202_601" x1="17.6433" y1="65.3214" x2="60.3173" y2="22.6474" gradientUnits="userSpaceOnUse">
  <stop stop-color="#ADDCFF"/>
  <stop offset="0.5028" stop-color="#EAF6FF"/>
  <stop offset="1" stop-color="#EAF6FF"/>
  </linearGradient>
  <linearGradient id="paint1_linear_202_601" x1="17.2143" y1="65.7701" x2="81.0917" y2="1.89268" gradientUnits="userSpaceOnUse">
  <stop stop-color="#5558FF"/>
  <stop offset="1" stop-color="#00C0FF"/>
  </linearGradient>
  <clipPath id="clip0_202_601">
  <rect width="83" height="83" fill="white"/>
  </clipPath>
  </defs>
</svg>