<svg width="105" height="105" viewBox="0 0 105 105" fill="none" xmlns="http://www.w3.org/2000/svg">
  <g clip-path="url(#clip0_202_652)">
  <path d="M59.6459 44.3922L38.3584 44.6842L27.9774 63.9889L25.8779 66.1467C22.3927 69.7289 22.4709 75.4338 26.0531 78.9193C29.6351 82.4044 35.3402 82.3263 38.8257 78.7441L40.9252 76.5863L59.9379 65.6798L59.6459 44.3922ZM24.2069 58.4831C25.1855 58.2826 25.9976 57.6125 26.382 56.69C28.54 51.5123 33.3898 43.8544 39.3584 36.2061C39.9632 35.4284 40.1509 34.4051 39.8572 33.463C39.2559 31.5239 37.3837 31.3998 36.9963 31.2006C36.4012 31.0112 22.2345 26.7164 8.49713 40.8359C-1.88169 51.5033 4.20976 57.668 4.47323 57.9243C5.66608 59.0849 7.57033 59.0588 8.7307 57.8659C12.2041 54.2961 17.9333 54.2176 21.5033 57.6908C22.2176 58.3855 23.2302 58.6816 24.2069 58.4831ZM71.1139 63.8738C70.1642 63.6062 69.1462 63.8217 68.3855 64.4476C60.6427 70.8373 53.3205 75.7657 48.2899 77.9679C47.3723 78.3714 46.7142 79.2038 46.5342 80.1897C46.3585 81.1755 46.6802 82.1859 47.3988 82.885C50.9686 86.3582 51.0472 92.0876 47.574 95.6576C46.4134 96.8505 46.4396 98.7547 47.6324 99.9151C47.8959 100.171 54.2253 106.092 64.6041 95.424C78.3415 81.3046 73.6598 67.2611 73.4542 66.6755C73.2539 66.3115 73.0643 64.4176 71.1139 63.8738ZM102.512 2.92472C102.281 1.60782 101.245 0.600069 99.9221 0.405031C99.1548 0.33024 87.7667 -1.00386 73.6039 3.36334L82.6439 20.5601L100.276 29.314C104.254 15.0369 102.607 3.68962 102.512 2.92472ZM63.6114 23.0463C58.9923 27.7939 59.0974 35.4572 63.845 40.0764C68.6355 44.7373 76.256 44.5904 80.8751 39.8428C85.536 35.0523 85.432 27.4736 80.6415 22.8127C75.8939 18.1936 68.2725 18.2558 63.6114 23.0463Z" fill="url(#paint0_linear_202_652)"/>
  <path d="M73.6013 3.36323C64.3141 6.17367 53.8689 11.4693 44.4208 21.1801C41.3134 24.3739 37.9177 28.2956 34.611 32.4711C28.3345 40.5629 23.1662 48.7247 20.8591 54.3772C20.3633 55.4913 20.5944 56.8082 21.5008 57.6901L27.9746 63.9888L42.6715 48.883C46.1568 45.3008 51.8617 45.2225 55.4441 48.7078C59.0692 52.2348 59.1463 57.8551 55.6193 61.4804L40.9224 76.586L47.3963 82.8847C48.2594 83.7244 49.5833 84.0044 50.6831 83.4784C56.2283 81.0603 64.0775 75.8425 72.2458 69.0876C76.3291 65.6676 80.1565 62.1658 83.2637 58.9722C92.7118 49.2614 97.719 38.6748 100.273 29.3139L73.6013 3.36323ZM80.8723 39.8425C76.2532 44.5901 68.633 44.737 63.8423 40.0761C59.0947 35.457 58.9896 27.7936 63.6087 23.046C68.2696 18.2555 75.8912 18.1933 80.6388 22.8124C85.4293 27.4733 85.5332 35.052 80.8723 39.8425ZM21.8905 83.2369C20.6976 82.0766 18.7936 82.1027 17.633 83.2953L2.25937 99.054C1.0988 100.247 1.12491 102.151 2.31776 103.311C3.5106 104.472 5.41486 104.446 6.57523 103.253L21.9489 87.4944C23.1094 86.3016 23.0833 84.3973 21.8905 83.2369ZM26.2647 91.6935L22.0656 96.0093C20.9051 97.2022 20.9312 99.1064 22.124 100.267C23.3169 101.427 25.2211 101.401 26.3815 100.208L30.5806 95.8926C31.7412 94.6999 31.715 92.7955 30.5222 91.6351C29.3293 90.4747 27.4253 90.5008 26.2647 91.6935ZM9.11787 83.4121L13.3169 79.0962C14.4775 77.9034 14.4514 75.9992 13.2586 74.8388C12.0657 73.6782 10.1615 73.7043 9.00109 74.8972L4.80201 79.213C3.64144 80.4057 3.66756 82.3101 4.8604 83.4705C6.05325 84.6309 7.9575 84.6048 9.11787 83.4121Z" fill="url(#paint1_linear_202_652)"/>
  </g>
  <defs>
  <linearGradient id="paint0_linear_202_652" x1="26.0565" y1="78.9048" x2="101.619" y2="1.24098" gradientUnits="userSpaceOnUse">
  <stop stop-color="#DED0F0"/>
  <stop offset="0.5028" stop-color="white"/>
  <stop offset="1" stop-color="#EAF6FF"/>
  </linearGradient>
  <linearGradient id="paint1_linear_202_652" x1="2.32517" y1="103.293" x2="86.932" y2="16.3331" gradientUnits="userSpaceOnUse">
  <stop stop-color="#E76C38"/>
  <stop offset="0.442708" stop-color="#9A1DD5"/>
  <stop offset="1" stop-color="#4ABFE6"/>
  </linearGradient>
  <clipPath id="clip0_202_652">
  <rect width="102.769" height="102.769" fill="white" transform="translate(0.0390625 1.44727) rotate(-0.785748)"/>
  </clipPath>
  </defs>
</svg>