<svg width="24" height="25" viewBox="0 0 24 25" fill="none" xmlns="http://www.w3.org/2000/svg">
  <path d="M14.8299 11.7899L10.5899 7.54995C10.497 7.45622 10.3864 7.38183 10.2645 7.33106C10.1427 7.28029 10.012 7.25415 9.87994 7.25415C9.74793 7.25415 9.61723 7.28029 9.49537 7.33106C9.37351 7.38183 9.26291 7.45622 9.16994 7.54995C8.98369 7.73731 8.87915 7.99076 8.87915 8.25495C8.87915 8.51913 8.98369 8.77259 9.16994 8.95995L12.7099 12.4999L9.16994 16.0399C8.98369 16.2273 8.87915 16.4808 8.87915 16.7449C8.87915 17.0091 8.98369 17.2626 9.16994 17.4499C9.26338 17.5426 9.3742 17.616 9.49604 17.6657C9.61787 17.7155 9.74834 17.7407 9.87994 17.7399C10.0115 17.7407 10.142 17.7155 10.2638 17.6657C10.3857 17.616 10.4965 17.5426 10.5899 17.4499L14.8299 13.2099C14.9237 13.117 14.9981 13.0064 15.0488 12.8845C15.0996 12.7627 15.1257 12.632 15.1257 12.4999C15.1257 12.3679 15.0996 12.2372 15.0488 12.1154C14.9981 11.9935 14.9237 11.8829 14.8299 11.7899Z" fill="white" />
</svg>