<svg width="34" height="34" viewBox="0 0 34 34" fill="none" xmlns="http://www.w3.org/2000/svg">
  <path d="M29.2188 33.4688H4.78125C4.64035 33.4688 4.50523 33.4128 4.4056 33.3132C4.30597 33.2135 4.25 33.0784 4.25 32.9375V32.4062C4.25 31.5609 4.58583 30.7501 5.1836 30.1523C5.78137 29.5546 6.59212 29.2188 7.4375 29.2188H26.5625C27.4079 29.2188 28.2186 29.5546 28.8164 30.1523C29.4142 30.7501 29.75 31.5609 29.75 32.4062V32.9375C29.75 33.0784 29.694 33.2135 29.5944 33.3132C29.4948 33.4128 29.3596 33.4688 29.2188 33.4688ZM5.3125 32.4062H28.6875C28.6875 31.8427 28.4636 31.3022 28.0651 30.9036C27.6666 30.5051 27.1261 30.2812 26.5625 30.2812H7.4375C6.87391 30.2812 6.33341 30.5051 5.9349 30.9036C5.53638 31.3022 5.3125 31.8427 5.3125 32.4062Z" fill="white" />
  <path d="M26.5625 30.2812H7.4375C7.2966 30.2812 7.16148 30.2253 7.06185 30.1257C6.96222 30.026 6.90625 29.8909 6.90625 29.75V28.6875C6.90625 27.983 7.1861 27.3074 7.68425 26.8092C8.18239 26.3111 8.85802 26.0313 9.5625 26.0312H24.4375C25.142 26.0312 25.8176 26.3111 26.3158 26.8092C26.8139 27.3074 27.0938 27.983 27.0938 28.6875V29.75C27.0938 29.8909 27.0378 30.026 26.9382 30.1257C26.8385 30.2253 26.7034 30.2812 26.5625 30.2812ZM7.96875 29.2188H26.0312V28.6875C26.0312 28.2648 25.8633 27.8594 25.5645 27.5605C25.2656 27.2617 24.8602 27.0938 24.4375 27.0938H9.5625C9.13981 27.0938 8.73443 27.2617 8.43555 27.5605C8.13666 27.8594 7.96875 28.2648 7.96875 28.6875V29.2188Z" fill="white" />
  <path d="M17 15.9375C16.8591 15.9375 16.724 15.8815 16.6243 15.7819C16.5247 15.6823 16.4688 15.5471 16.4688 15.4062C16.4688 15.2654 16.5247 15.1302 16.6243 15.0306C16.724 14.931 16.8591 14.875 17 14.875C17.7045 14.875 18.3801 14.5951 18.8783 14.097C19.3764 13.5989 19.6562 12.9232 19.6562 12.2188C19.6562 12.0779 19.7122 11.9427 19.8118 11.8431C19.9115 11.7435 20.0466 11.6875 20.1875 11.6875C20.3284 11.6875 20.4635 11.7435 20.5632 11.8431C20.6628 11.9427 20.7188 12.0779 20.7188 12.2188C20.7188 13.205 20.327 14.1509 19.6296 14.8483C18.9322 15.5457 17.9863 15.9375 17 15.9375Z" fill="white" />
  <path d="M22.3111 27.0938H9.5611C9.4202 27.0938 9.28508 27.0378 9.18545 26.9382C9.08582 26.8385 9.02985 26.7034 9.02985 26.5625C9.03386 24.4404 9.68981 22.3708 10.9089 20.6338C12.128 18.8968 13.8514 17.5764 15.8458 16.8512C16.0168 16.7918 16.1666 16.6837 16.2771 16.5402C16.3875 16.3968 16.4536 16.2242 16.4674 16.0438L11.5533 16.9575C11.0176 17.0578 10.4662 17.0375 9.93933 16.8981C9.41243 16.7588 8.92317 16.5038 8.50706 16.1518C8.09096 15.7998 7.75846 15.3596 7.5337 14.863C7.30895 14.3665 7.19757 13.8262 7.20766 13.2812C7.21217 12.7898 7.31618 12.3044 7.51339 11.8543C7.71061 11.4042 7.99696 10.9986 8.35516 10.6622L15.9361 3.49031V1.0625C15.9361 0.921604 15.9921 0.786478 16.0917 0.68685C16.1913 0.587221 16.3265 0.53125 16.4674 0.53125C17.8626 0.53125 19.2443 0.806074 20.5334 1.34003C21.8225 1.87399 22.9937 2.65662 23.9804 3.64324C24.967 4.62986 25.7496 5.80115 26.2836 7.09024C26.8175 8.37932 27.0924 9.76095 27.0924 11.1562V22.3125C27.0924 23.5806 26.5886 24.7967 25.692 25.6934C24.7953 26.59 23.5792 27.0938 22.3111 27.0938ZM10.0924 26.0312H22.3111C23.2974 26.0312 24.2433 25.6395 24.9407 24.9421C25.6381 24.2447 26.0299 23.2988 26.0299 22.3125V11.1562C26.0336 8.70953 25.0994 6.35444 23.4194 4.57564C21.7395 2.79685 19.4415 1.72968 16.9986 1.59375V3.71875C16.9991 3.79121 16.9847 3.86299 16.9564 3.92968C16.928 3.99637 16.8864 4.05657 16.8339 4.10656L9.08297 11.4431C8.66083 11.828 8.37642 12.3407 8.27326 12.9026C8.17011 13.4645 8.25389 14.0447 8.51178 14.5544C8.76968 15.0642 9.18748 15.4754 9.70127 15.7252C10.2151 15.975 10.7965 16.0496 11.3567 15.9375L16.903 14.875C16.9793 14.8606 17.0579 14.8631 17.1332 14.8824C17.2084 14.9017 17.2786 14.9372 17.3386 14.9866C17.4 15.0376 17.449 15.1019 17.4822 15.1746C17.5153 15.2472 17.5316 15.3264 17.5299 15.4062V15.9641C17.5295 16.3762 17.4024 16.7782 17.1658 17.1156C16.9291 17.453 16.5944 17.7094 16.207 17.85C14.5001 18.4674 13.0114 19.5712 11.9247 21.0251C10.8381 22.479 10.201 24.2194 10.0924 26.0312Z" fill="white" />
  <path d="M24.4386 22.8431C24.2977 22.8431 24.1626 22.7871 24.063 22.6875C23.9634 22.5878 23.9074 22.4527 23.9074 22.3118V11.1556C23.9037 9.52893 23.3687 7.94802 22.3838 6.6534C21.399 5.35878 20.0181 4.42134 18.4514 3.98371C18.3254 3.93794 18.2214 3.84621 18.1602 3.72692C18.0989 3.60763 18.0851 3.46961 18.1214 3.34054C18.1577 3.21147 18.2415 3.1009 18.3559 3.03101C18.4703 2.96112 18.6069 2.93708 18.7383 2.96371C20.5299 3.45983 22.1095 4.52963 23.235 6.00921C24.3605 7.48879 24.9699 9.29656 24.9699 11.1556V22.3118C24.9699 22.4527 24.9139 22.5878 24.8143 22.6875C24.7147 22.7871 24.5795 22.8431 24.4386 22.8431Z" fill="white" />
</svg>