<svg width="18" height="18" viewBox="0 0 18 18" fill="none" xmlns="http://www.w3.org/2000/svg">
  <path d="M15.75 1.5H2.25C2.05109 1.5 1.86032 1.57902 1.71967 1.71967C1.57902 1.86032 1.5 2.05109 1.5 2.25V15.75C1.5 15.9489 1.57902 16.1397 1.71967 16.2803C1.86032 16.421 2.05109 16.5 2.25 16.5H15.75C15.9489 16.5 16.1397 16.421 16.2803 16.2803C16.421 16.1397 16.5 15.9489 16.5 15.75V2.25C16.5 2.05109 16.421 1.86032 16.2803 1.71967C16.1397 1.57902 15.9489 1.5 15.75 1.5ZM6 15H3V12H6V15ZM6 10.5H3V7.5H6V10.5ZM6 6H3V3H6V6ZM10.5 15H7.5V12H10.5V15ZM10.5 10.5H7.5V7.5H10.5V10.5ZM10.5 6H7.5V3H10.5V6ZM15 15H12V12H15V15ZM15 10.5H12V7.5H15V10.5ZM15 6H12V3H15V6Z" fill="#626587" />
</svg>