<svg width="32" height="32" viewBox="0 0 32 32" fill="none" xmlns="http://www.w3.org/2000/svg">
  <g clipPath="url(#clip0_189_650)">
    <path d="M18.0013 32.0003H14.0013C13.068 32.0003 12.0013 31.2003 12.0013 29.6003V26.8003C12.0013 25.467 11.3346 24.267 10.268 23.3337C7.86797 21.467 6.66797 18.8003 6.66797 15.867C6.8013 10.8003 10.9346 6.80033 15.868 6.66699C18.4013 6.66699 20.8013 7.60033 22.5346 9.33366C24.268 11.067 25.3346 13.467 25.3346 16.0003C25.3346 18.8003 24.1346 21.467 21.868 23.2003C20.668 24.1337 20.0013 25.6003 20.0013 26.9337V30.0003C20.0013 31.067 19.068 32.0003 18.0013 32.0003ZM16.0013 8.00033C11.7346 8.00033 8.13464 11.6003 8.0013 15.867C8.0013 18.4003 9.06797 20.8003 11.068 22.267C12.5346 23.467 13.3346 25.067 13.3346 26.8003V29.6003C13.3346 29.867 13.3346 30.667 14.0013 30.667H18.0013C18.4013 30.667 18.668 30.4003 18.668 30.0003V26.9337C18.668 25.2003 19.6013 23.3337 21.068 22.1337C22.9346 20.667 24.0013 18.4003 24.0013 16.0003C24.0013 13.867 23.2013 11.867 21.6013 10.267C20.1346 8.80033 18.1346 8.00033 16.0013 8.00033Z" fill="white" />
    <path d="M19.3333 28.0003H12.6667C12.2667 28.0003 12 27.7337 12 27.3337C12 26.9337 12.2667 26.667 12.6667 26.667H19.3333C19.7333 26.667 20 26.9337 20 27.3337C20 27.7337 19.7333 28.0003 19.3333 28.0003Z" fill="white" />
    <path d="M15.9987 4C15.5987 4 15.332 3.73333 15.332 3.33333V0.666667C15.332 0.266667 15.5987 0 15.9987 0C16.3987 0 16.6654 0.266667 16.6654 0.666667V3.33333C16.6654 3.73333 16.3987 4 15.9987 4Z" fill="white" />
    <path d="M24.9326 7.73294C24.7992 7.73294 24.5326 7.73294 24.3992 7.59961C24.1326 7.33294 24.1326 6.93294 24.3992 6.66627L26.2659 4.79961C26.5326 4.53294 26.9325 4.53294 27.1992 4.79961C27.4659 5.06628 27.4659 5.46628 27.1992 5.73294L25.3326 7.59961C25.3326 7.59961 25.0659 7.73294 24.9326 7.73294Z" fill="white" />
    <path d="M31.3333 16.6663H28.6667C28.2667 16.6663 28 16.3997 28 15.9997C28 15.5997 28.2667 15.333 28.6667 15.333H31.3333C31.7333 15.333 32 15.5997 32 15.9997C32 16.3997 31.7333 16.6663 31.3333 16.6663Z" fill="white" />
    <path d="M26.7992 27.4663C26.6659 27.4663 26.3992 27.4663 26.2659 27.333L24.3992 25.4663C24.1326 25.1997 24.1326 24.7997 24.3992 24.533C24.6659 24.2663 25.0659 24.2663 25.3326 24.533L27.1992 26.3997C27.4659 26.6663 27.4659 27.0663 27.1992 27.333C27.1992 27.4663 27.0659 27.4663 26.7992 27.4663Z" fill="white" />
    <path d="M5.19818 27.4663C5.06484 27.4663 4.79818 27.4663 4.66484 27.333C4.39818 27.0663 4.39818 26.6663 4.66484 26.3997L6.53151 24.533C6.79818 24.2663 7.19818 24.2663 7.46484 24.533C7.73151 24.7997 7.73151 25.1997 7.46484 25.4663L5.59818 27.333C5.46484 27.4663 5.33151 27.4663 5.19818 27.4663Z" fill="white" />
    <path d="M3.33333 16.6663H0.666667C0.266667 16.6663 0 16.3997 0 15.9997C0 15.5997 0.266667 15.333 0.666667 15.333H3.33333C3.73333 15.333 4 15.5997 4 15.9997C4 16.3997 3.73333 16.6663 3.33333 16.6663Z" fill="white" />
    <path d="M7.06484 7.73346C6.93151 7.73346 6.66484 7.73346 6.53151 7.60013L4.66484 5.60013C4.39818 5.33346 4.39818 4.93346 4.66484 4.6668C4.93151 4.40013 5.33151 4.40013 5.59818 4.6668L7.46484 6.53346C7.73151 6.80013 7.73151 7.20013 7.46484 7.46679C7.33151 7.60013 7.19818 7.73346 7.06484 7.73346Z" fill="white" />
    <path d="M21.332 16.6667C20.932 16.6667 20.6654 16.4 20.6654 16C20.6654 13.4667 18.532 11.3333 15.9987 11.3333C15.5987 11.3333 15.332 11.0667 15.332 10.6667C15.332 10.2667 15.5987 10 15.9987 10C19.332 10 21.9987 12.6667 21.9987 16C21.9987 16.4 21.732 16.6667 21.332 16.6667Z" fill="white" />
  </g>
  <defs>
    <clipPath id="clip0_189_650">
      <rect width="32" height="32" fill="white" />
    </clipPath>
  </defs>
</svg>